<?xml version="1.0" encoding="utf-8" standalone="no"?>
<!DOCTYPE svg PUBLIC "-//W3C//DTD SVG 1.1//EN"
  "http://www.w3.org/Graphics/SVG/1.1/DTD/svg11.dtd">
<svg xmlns:xlink="http://www.w3.org/1999/xlink" width="255.11832pt" height="504pt" viewBox="0 0 255.11832 504" xmlns="http://www.w3.org/2000/svg" version="1.1">
 <metadata>
  <rdf:RDF xmlns:dc="http://purl.org/dc/elements/1.1/" xmlns:cc="http://creativecommons.org/ns#" xmlns:rdf="http://www.w3.org/1999/02/22-rdf-syntax-ns#">
   <cc:Work>
    <dc:type rdf:resource="http://purl.org/dc/dcmitype/StillImage"/>
    <dc:date>2024-12-09T16:06:31.469226</dc:date>
    <dc:format>image/svg+xml</dc:format>
    <dc:creator>
     <cc:Agent>
      <dc:title>Matplotlib v3.9.2, https://matplotlib.org/</dc:title>
     </cc:Agent>
    </dc:creator>
   </cc:Work>
  </rdf:RDF>
 </metadata>
 <defs>
  <style type="text/css">*{stroke-linejoin: round; stroke-linecap: butt}</style>
 </defs>
 <g id="figure_1">
  <g id="patch_1">
   <path d="M 0 504 
L 255.11832 504 
L 255.11832 0 
L 0 0 
z
" style="fill: #ffffff"/>
  </g>
  <g id="axes_1">
   <g id="patch_2">
    <path d="M 51.518 232.4 
L 244.31832 232.4 
L 244.31832 13.68 
L 51.518 13.68 
z
" style="fill: #ffffff"/>
   </g>
   <g id="PolyCollection_1">
    <defs>
     <path id="m13cc82dc9a" d="M 92.32631 -285.27 
L 61.396752 -285.27 
L 60.281651 -290.306316 
L 69.086699 -295.342632 
L 74.869495 -300.378947 
L 76.362947 -305.415263 
L 76.715984 -310.451579 
L 76.839857 -315.487895 
L 76.86036 -320.524211 
L 76.861509 -325.560526 
L 76.861531 -330.596842 
L 76.861531 -335.633158 
L 76.861531 -340.669474 
L 76.861531 -345.705789 
L 76.861531 -350.742105 
L 76.861531 -355.778421 
L 76.861478 -360.814737 
L 76.859253 -365.851053 
L 76.827893 -370.887368 
L 76.692337 -375.923684 
L 76.57164 -380.96 
L 77.151422 -380.96 
L 77.151422 -380.96 
L 77.030725 -375.923684 
L 76.895169 -370.887368 
L 76.863809 -365.851053 
L 76.861584 -360.814737 
L 76.861531 -355.778421 
L 76.861531 -350.742105 
L 76.861531 -345.705789 
L 76.861531 -340.669474 
L 76.861531 -335.633158 
L 76.861531 -330.596842 
L 76.861553 -325.560526 
L 76.862702 -320.524211 
L 76.883205 -315.487895 
L 77.007078 -310.451579 
L 77.360115 -305.415263 
L 78.853567 -300.378947 
L 84.636363 -295.342632 
L 93.441411 -290.306316 
L 92.32631 -285.27 
z
" style="stroke: #000000"/>
    </defs>
    <g clip-path="url(#pf52aa45c75)">
     <use xlink:href="#m13cc82dc9a" x="0" y="504" style="fill: #808080; stroke: #000000"/>
    </g>
   </g>
   <g id="PolyCollection_2">
    <defs>
     <path id="mdcc5c85ef9" d="M 133.632525 -282.536 
L 114.832709 -282.536 
L 107.652737 -292.425493 
L 108.494453 -302.314986 
L 114.938679 -312.204478 
L 119.494509 -322.093971 
L 121.848441 -331.983464 
L 123.356917 -341.872957 
L 124.038277 -351.76245 
L 124.208603 -361.651943 
L 124.222476 -371.541435 
L 124.161565 -381.430928 
L 124.001308 -391.320421 
L 123.929827 -401.209914 
L 124.073319 -411.099407 
L 124.198932 -420.9889 
L 124.229545 -430.878392 
L 124.227415 -440.767885 
L 124.182766 -450.657378 
L 124.036964 -460.546871 
L 123.923995 -470.436364 
L 124.541239 -470.436364 
L 124.541239 -470.436364 
L 124.42827 -460.546871 
L 124.282468 -450.657378 
L 124.237819 -440.767885 
L 124.235689 -430.878392 
L 124.266302 -420.9889 
L 124.391915 -411.099407 
L 124.535407 -401.209914 
L 124.463926 -391.320421 
L 124.303669 -381.430928 
L 124.242758 -371.541435 
L 124.256631 -361.651943 
L 124.426957 -351.76245 
L 125.108317 -341.872957 
L 126.616793 -331.983464 
L 128.970725 -322.093971 
L 133.526555 -312.204478 
L 139.970781 -302.314986 
L 140.812497 -292.425493 
L 133.632525 -282.536 
z
" style="stroke: #000000"/>
    </defs>
    <g clip-path="url(#pf52aa45c75)">
     <use xlink:href="#mdcc5c85ef9" x="0" y="504" style="fill: #808080; stroke: #000000"/>
    </g>
   </g>
   <g id="PolyCollection_3">
    <path d="M 188.183583 211.895 
L 155.023823 211.895 
L 157.256091 97.858421 
L 167.122659 -16.178158 
L 170.767366 -130.214737 
L 171.31491 -244.251316 
L 171.520196 -358.287895 
L 171.595435 -472.324474 
L 171.603461 -586.361053 
L 171.603701 -700.397632 
L 171.603703 -814.434211 
L 171.603703 -928.470789 
L 171.603703 -1042.507368 
L 171.603703 -1156.543947 
L 171.603703 -1270.580526 
L 171.603703 -1384.617105 
L 171.603691 -1498.653684 
L 171.602767 -1612.690263 
L 171.582929 -1726.726842 
L 171.470255 -1840.763421 
L 171.355632 -1954.8 
L 171.851774 -1954.8 
L 171.851774 -1954.8 
L 171.737151 -1840.763421 
L 171.624477 -1726.726842 
L 171.604639 -1612.690263 
L 171.603715 -1498.653684 
L 171.603703 -1384.617105 
L 171.603703 -1270.580526 
L 171.603703 -1156.543947 
L 171.603703 -1042.507368 
L 171.603703 -928.470789 
L 171.603703 -814.434211 
L 171.603705 -700.397632 
L 171.603945 -586.361053 
L 171.611971 -472.324474 
L 171.68721 -358.287895 
L 171.892496 -244.251316 
L 172.44004 -130.214737 
L 176.084747 -16.178158 
L 185.951315 97.858421 
L 188.183583 211.895 
z
" clip-path="url(#pf52aa45c75)" style="fill: #808080; stroke: #000000"/>
   </g>
   <g id="PolyCollection_4">
    <path d="M 235.554669 221.464 
L 202.394909 221.464 
L 204.065459 187.504842 
L 212.155181 153.545684 
L 217.078579 119.586526 
L 218.656084 85.627368 
L 218.947534 51.668211 
L 218.973625 17.709053 
L 218.971133 -16.250105 
L 218.93512 -50.209263 
L 218.809562 -84.168421 
L 218.711821 -118.127579 
L 218.814863 -152.086737 
L 218.937625 -186.045895 
L 218.971489 -220.005053 
L 218.974675 -253.964211 
L 218.974668 -287.923368 
L 218.971323 -321.882526 
L 218.936388 -355.841684 
L 218.812212 -389.800842 
L 218.711784 -423.76 
L 219.237794 -423.76 
L 219.237794 -423.76 
L 219.137366 -389.800842 
L 219.01319 -355.841684 
L 218.978255 -321.882526 
L 218.97491 -287.923368 
L 218.974903 -253.964211 
L 218.978089 -220.005053 
L 219.011953 -186.045895 
L 219.134715 -152.086737 
L 219.237757 -118.127579 
L 219.140016 -84.168421 
L 219.014458 -50.209263 
L 218.978445 -16.250105 
L 218.975953 17.709053 
L 219.002044 51.668211 
L 219.293494 85.627368 
L 220.870999 119.586526 
L 225.794397 153.545684 
L 233.884119 187.504842 
L 235.554669 221.464 
z
" clip-path="url(#pf52aa45c75)" style="fill: #808080; stroke: #000000"/>
   </g>
   <g id="matplotlib.axis_1">
    <g id="xtick_1">
     <g id="line2d_1">
      <path d="M 76.861531 232.4 
L 76.861531 13.68 
" clip-path="url(#pf52aa45c75)" style="fill: none; stroke: #b0b0b0; stroke-opacity: 0.5; stroke-width: 0.8; stroke-linecap: square"/>
     </g>
     <g id="line2d_2">
      <defs>
       <path id="mfde343d1ab" d="M 0 0 
L 0 3.5 
" style="stroke: #000000; stroke-width: 0.8"/>
      </defs>
      <g>
       <use xlink:href="#mfde343d1ab" x="76.861531" y="232.4" style="stroke: #000000; stroke-width: 0.8"/>
      </g>
     </g>
     <g id="text_1">
      <!-- sample 1 -->
      <g transform="translate(58.502156 245.47875) scale(0.08 -0.08)">
       <defs>
        <path id="DejaVuSans-73" d="M 2834 3397 
L 2834 2853 
Q 2591 2978 2328 3040 
Q 2066 3103 1784 3103 
Q 1356 3103 1142 2972 
Q 928 2841 928 2578 
Q 928 2378 1081 2264 
Q 1234 2150 1697 2047 
L 1894 2003 
Q 2506 1872 2764 1633 
Q 3022 1394 3022 966 
Q 3022 478 2636 193 
Q 2250 -91 1575 -91 
Q 1294 -91 989 -36 
Q 684 19 347 128 
L 347 722 
Q 666 556 975 473 
Q 1284 391 1588 391 
Q 1994 391 2212 530 
Q 2431 669 2431 922 
Q 2431 1156 2273 1281 
Q 2116 1406 1581 1522 
L 1381 1569 
Q 847 1681 609 1914 
Q 372 2147 372 2553 
Q 372 3047 722 3315 
Q 1072 3584 1716 3584 
Q 2034 3584 2315 3537 
Q 2597 3491 2834 3397 
z
" transform="scale(0.015625)"/>
        <path id="DejaVuSans-61" d="M 2194 1759 
Q 1497 1759 1228 1600 
Q 959 1441 959 1056 
Q 959 750 1161 570 
Q 1363 391 1709 391 
Q 2188 391 2477 730 
Q 2766 1069 2766 1631 
L 2766 1759 
L 2194 1759 
z
M 3341 1997 
L 3341 0 
L 2766 0 
L 2766 531 
Q 2569 213 2275 61 
Q 1981 -91 1556 -91 
Q 1019 -91 701 211 
Q 384 513 384 1019 
Q 384 1609 779 1909 
Q 1175 2209 1959 2209 
L 2766 2209 
L 2766 2266 
Q 2766 2663 2505 2880 
Q 2244 3097 1772 3097 
Q 1472 3097 1187 3025 
Q 903 2953 641 2809 
L 641 3341 
Q 956 3463 1253 3523 
Q 1550 3584 1831 3584 
Q 2591 3584 2966 3190 
Q 3341 2797 3341 1997 
z
" transform="scale(0.015625)"/>
        <path id="DejaVuSans-6d" d="M 3328 2828 
Q 3544 3216 3844 3400 
Q 4144 3584 4550 3584 
Q 5097 3584 5394 3201 
Q 5691 2819 5691 2113 
L 5691 0 
L 5113 0 
L 5113 2094 
Q 5113 2597 4934 2840 
Q 4756 3084 4391 3084 
Q 3944 3084 3684 2787 
Q 3425 2491 3425 1978 
L 3425 0 
L 2847 0 
L 2847 2094 
Q 2847 2600 2669 2842 
Q 2491 3084 2119 3084 
Q 1678 3084 1418 2786 
Q 1159 2488 1159 1978 
L 1159 0 
L 581 0 
L 581 3500 
L 1159 3500 
L 1159 2956 
Q 1356 3278 1631 3431 
Q 1906 3584 2284 3584 
Q 2666 3584 2933 3390 
Q 3200 3197 3328 2828 
z
" transform="scale(0.015625)"/>
        <path id="DejaVuSans-70" d="M 1159 525 
L 1159 -1331 
L 581 -1331 
L 581 3500 
L 1159 3500 
L 1159 2969 
Q 1341 3281 1617 3432 
Q 1894 3584 2278 3584 
Q 2916 3584 3314 3078 
Q 3713 2572 3713 1747 
Q 3713 922 3314 415 
Q 2916 -91 2278 -91 
Q 1894 -91 1617 61 
Q 1341 213 1159 525 
z
M 3116 1747 
Q 3116 2381 2855 2742 
Q 2594 3103 2138 3103 
Q 1681 3103 1420 2742 
Q 1159 2381 1159 1747 
Q 1159 1113 1420 752 
Q 1681 391 2138 391 
Q 2594 391 2855 752 
Q 3116 1113 3116 1747 
z
" transform="scale(0.015625)"/>
        <path id="DejaVuSans-6c" d="M 603 4863 
L 1178 4863 
L 1178 0 
L 603 0 
L 603 4863 
z
" transform="scale(0.015625)"/>
        <path id="DejaVuSans-65" d="M 3597 1894 
L 3597 1613 
L 953 1613 
Q 991 1019 1311 708 
Q 1631 397 2203 397 
Q 2534 397 2845 478 
Q 3156 559 3463 722 
L 3463 178 
Q 3153 47 2828 -22 
Q 2503 -91 2169 -91 
Q 1331 -91 842 396 
Q 353 884 353 1716 
Q 353 2575 817 3079 
Q 1281 3584 2069 3584 
Q 2775 3584 3186 3129 
Q 3597 2675 3597 1894 
z
M 3022 2063 
Q 3016 2534 2758 2815 
Q 2500 3097 2075 3097 
Q 1594 3097 1305 2825 
Q 1016 2553 972 2059 
L 3022 2063 
z
" transform="scale(0.015625)"/>
        <path id="DejaVuSans-20" transform="scale(0.015625)"/>
        <path id="DejaVuSans-31" d="M 794 531 
L 1825 531 
L 1825 4091 
L 703 3866 
L 703 4441 
L 1819 4666 
L 2450 4666 
L 2450 531 
L 3481 531 
L 3481 0 
L 794 0 
L 794 531 
z
" transform="scale(0.015625)"/>
       </defs>
       <use xlink:href="#DejaVuSans-73"/>
       <use xlink:href="#DejaVuSans-61" x="52.099609"/>
       <use xlink:href="#DejaVuSans-6d" x="113.378906"/>
       <use xlink:href="#DejaVuSans-70" x="210.791016"/>
       <use xlink:href="#DejaVuSans-6c" x="274.267578"/>
       <use xlink:href="#DejaVuSans-65" x="302.050781"/>
       <use xlink:href="#DejaVuSans-20" x="363.574219"/>
       <use xlink:href="#DejaVuSans-31" x="395.361328"/>
      </g>
     </g>
    </g>
    <g id="xtick_2">
     <g id="line2d_3">
      <path d="M 124.232617 232.4 
L 124.232617 13.68 
" clip-path="url(#pf52aa45c75)" style="fill: none; stroke: #b0b0b0; stroke-opacity: 0.5; stroke-width: 0.8; stroke-linecap: square"/>
     </g>
     <g id="line2d_4">
      <g>
       <use xlink:href="#mfde343d1ab" x="124.232617" y="232.4" style="stroke: #000000; stroke-width: 0.8"/>
      </g>
     </g>
     <g id="text_2">
      <!-- sample 2 -->
      <g transform="translate(105.873242 245.47875) scale(0.08 -0.08)">
       <defs>
        <path id="DejaVuSans-32" d="M 1228 531 
L 3431 531 
L 3431 0 
L 469 0 
L 469 531 
Q 828 903 1448 1529 
Q 2069 2156 2228 2338 
Q 2531 2678 2651 2914 
Q 2772 3150 2772 3378 
Q 2772 3750 2511 3984 
Q 2250 4219 1831 4219 
Q 1534 4219 1204 4116 
Q 875 4013 500 3803 
L 500 4441 
Q 881 4594 1212 4672 
Q 1544 4750 1819 4750 
Q 2544 4750 2975 4387 
Q 3406 4025 3406 3419 
Q 3406 3131 3298 2873 
Q 3191 2616 2906 2266 
Q 2828 2175 2409 1742 
Q 1991 1309 1228 531 
z
" transform="scale(0.015625)"/>
       </defs>
       <use xlink:href="#DejaVuSans-73"/>
       <use xlink:href="#DejaVuSans-61" x="52.099609"/>
       <use xlink:href="#DejaVuSans-6d" x="113.378906"/>
       <use xlink:href="#DejaVuSans-70" x="210.791016"/>
       <use xlink:href="#DejaVuSans-6c" x="274.267578"/>
       <use xlink:href="#DejaVuSans-65" x="302.050781"/>
       <use xlink:href="#DejaVuSans-20" x="363.574219"/>
       <use xlink:href="#DejaVuSans-32" x="395.361328"/>
      </g>
     </g>
    </g>
    <g id="xtick_3">
     <g id="line2d_5">
      <path d="M 171.603703 232.4 
L 171.603703 13.68 
" clip-path="url(#pf52aa45c75)" style="fill: none; stroke: #b0b0b0; stroke-opacity: 0.5; stroke-width: 0.8; stroke-linecap: square"/>
     </g>
     <g id="line2d_6">
      <g>
       <use xlink:href="#mfde343d1ab" x="171.603703" y="232.4" style="stroke: #000000; stroke-width: 0.8"/>
      </g>
     </g>
     <g id="text_3">
      <!-- sample 3 -->
      <g transform="translate(153.244328 245.47875) scale(0.08 -0.08)">
       <defs>
        <path id="DejaVuSans-33" d="M 2597 2516 
Q 3050 2419 3304 2112 
Q 3559 1806 3559 1356 
Q 3559 666 3084 287 
Q 2609 -91 1734 -91 
Q 1441 -91 1130 -33 
Q 819 25 488 141 
L 488 750 
Q 750 597 1062 519 
Q 1375 441 1716 441 
Q 2309 441 2620 675 
Q 2931 909 2931 1356 
Q 2931 1769 2642 2001 
Q 2353 2234 1838 2234 
L 1294 2234 
L 1294 2753 
L 1863 2753 
Q 2328 2753 2575 2939 
Q 2822 3125 2822 3475 
Q 2822 3834 2567 4026 
Q 2313 4219 1838 4219 
Q 1578 4219 1281 4162 
Q 984 4106 628 3988 
L 628 4550 
Q 988 4650 1302 4700 
Q 1616 4750 1894 4750 
Q 2613 4750 3031 4423 
Q 3450 4097 3450 3541 
Q 3450 3153 3228 2886 
Q 3006 2619 2597 2516 
z
" transform="scale(0.015625)"/>
       </defs>
       <use xlink:href="#DejaVuSans-73"/>
       <use xlink:href="#DejaVuSans-61" x="52.099609"/>
       <use xlink:href="#DejaVuSans-6d" x="113.378906"/>
       <use xlink:href="#DejaVuSans-70" x="210.791016"/>
       <use xlink:href="#DejaVuSans-6c" x="274.267578"/>
       <use xlink:href="#DejaVuSans-65" x="302.050781"/>
       <use xlink:href="#DejaVuSans-20" x="363.574219"/>
       <use xlink:href="#DejaVuSans-33" x="395.361328"/>
      </g>
     </g>
    </g>
    <g id="xtick_4">
     <g id="line2d_7">
      <path d="M 218.974789 232.4 
L 218.974789 13.68 
" clip-path="url(#pf52aa45c75)" style="fill: none; stroke: #b0b0b0; stroke-opacity: 0.5; stroke-width: 0.8; stroke-linecap: square"/>
     </g>
     <g id="line2d_8">
      <g>
       <use xlink:href="#mfde343d1ab" x="218.974789" y="232.4" style="stroke: #000000; stroke-width: 0.8"/>
      </g>
     </g>
     <g id="text_4">
      <!-- sample 4 -->
      <g transform="translate(200.615414 245.47875) scale(0.08 -0.08)">
       <defs>
        <path id="DejaVuSans-34" d="M 2419 4116 
L 825 1625 
L 2419 1625 
L 2419 4116 
z
M 2253 4666 
L 3047 4666 
L 3047 1625 
L 3713 1625 
L 3713 1100 
L 3047 1100 
L 3047 0 
L 2419 0 
L 2419 1100 
L 313 1100 
L 313 1709 
L 2253 4666 
z
" transform="scale(0.015625)"/>
       </defs>
       <use xlink:href="#DejaVuSans-73"/>
       <use xlink:href="#DejaVuSans-61" x="52.099609"/>
       <use xlink:href="#DejaVuSans-6d" x="113.378906"/>
       <use xlink:href="#DejaVuSans-70" x="210.791016"/>
       <use xlink:href="#DejaVuSans-6c" x="274.267578"/>
       <use xlink:href="#DejaVuSans-65" x="302.050781"/>
       <use xlink:href="#DejaVuSans-20" x="363.574219"/>
       <use xlink:href="#DejaVuSans-34" x="395.361328"/>
      </g>
     </g>
    </g>
   </g>
   <g id="matplotlib.axis_2">
    <g id="ytick_1">
     <g id="line2d_9">
      <path d="M 51.518 232.4 
L 244.31832 232.4 
" clip-path="url(#pf52aa45c75)" style="fill: none; stroke: #b0b0b0; stroke-opacity: 0.5; stroke-width: 0.8; stroke-linecap: square"/>
     </g>
     <g id="line2d_10">
      <defs>
       <path id="m8652a8b961" d="M 0 0 
L -3.5 0 
" style="stroke: #000000; stroke-width: 0.8"/>
      </defs>
      <g>
       <use xlink:href="#m8652a8b961" x="51.518" y="232.4" style="stroke: #000000; stroke-width: 0.8"/>
      </g>
     </g>
     <g id="text_5">
      <!-- 0.0 -->
      <g transform="translate(31.7955 235.439375) scale(0.08 -0.08)">
       <defs>
        <path id="DejaVuSans-30" d="M 2034 4250 
Q 1547 4250 1301 3770 
Q 1056 3291 1056 2328 
Q 1056 1369 1301 889 
Q 1547 409 2034 409 
Q 2525 409 2770 889 
Q 3016 1369 3016 2328 
Q 3016 3291 2770 3770 
Q 2525 4250 2034 4250 
z
M 2034 4750 
Q 2819 4750 3233 4129 
Q 3647 3509 3647 2328 
Q 3647 1150 3233 529 
Q 2819 -91 2034 -91 
Q 1250 -91 836 529 
Q 422 1150 422 2328 
Q 422 3509 836 4129 
Q 1250 4750 2034 4750 
z
" transform="scale(0.015625)"/>
        <path id="DejaVuSans-2e" d="M 684 794 
L 1344 794 
L 1344 0 
L 684 0 
L 684 794 
z
" transform="scale(0.015625)"/>
       </defs>
       <use xlink:href="#DejaVuSans-30"/>
       <use xlink:href="#DejaVuSans-2e" x="63.623047"/>
       <use xlink:href="#DejaVuSans-30" x="95.410156"/>
      </g>
     </g>
    </g>
    <g id="ytick_2">
     <g id="line2d_11">
      <path d="M 51.518 205.06 
L 244.31832 205.06 
" clip-path="url(#pf52aa45c75)" style="fill: none; stroke: #b0b0b0; stroke-opacity: 0.5; stroke-width: 0.8; stroke-linecap: square"/>
     </g>
     <g id="line2d_12">
      <g>
       <use xlink:href="#m8652a8b961" x="51.518" y="205.06" style="stroke: #000000; stroke-width: 0.8"/>
      </g>
     </g>
     <g id="text_6">
      <!-- 2.5 -->
      <g transform="translate(31.7955 208.099375) scale(0.08 -0.08)">
       <defs>
        <path id="DejaVuSans-35" d="M 691 4666 
L 3169 4666 
L 3169 4134 
L 1269 4134 
L 1269 2991 
Q 1406 3038 1543 3061 
Q 1681 3084 1819 3084 
Q 2600 3084 3056 2656 
Q 3513 2228 3513 1497 
Q 3513 744 3044 326 
Q 2575 -91 1722 -91 
Q 1428 -91 1123 -41 
Q 819 9 494 109 
L 494 744 
Q 775 591 1075 516 
Q 1375 441 1709 441 
Q 2250 441 2565 725 
Q 2881 1009 2881 1497 
Q 2881 1984 2565 2268 
Q 2250 2553 1709 2553 
Q 1456 2553 1204 2497 
Q 953 2441 691 2322 
L 691 4666 
z
" transform="scale(0.015625)"/>
       </defs>
       <use xlink:href="#DejaVuSans-32"/>
       <use xlink:href="#DejaVuSans-2e" x="63.623047"/>
       <use xlink:href="#DejaVuSans-35" x="95.410156"/>
      </g>
     </g>
    </g>
    <g id="ytick_3">
     <g id="line2d_13">
      <path d="M 51.518 177.72 
L 244.31832 177.72 
" clip-path="url(#pf52aa45c75)" style="fill: none; stroke: #b0b0b0; stroke-opacity: 0.5; stroke-width: 0.8; stroke-linecap: square"/>
     </g>
     <g id="line2d_14">
      <g>
       <use xlink:href="#m8652a8b961" x="51.518" y="177.72" style="stroke: #000000; stroke-width: 0.8"/>
      </g>
     </g>
     <g id="text_7">
      <!-- 5.0 -->
      <g transform="translate(31.7955 180.759375) scale(0.08 -0.08)">
       <use xlink:href="#DejaVuSans-35"/>
       <use xlink:href="#DejaVuSans-2e" x="63.623047"/>
       <use xlink:href="#DejaVuSans-30" x="95.410156"/>
      </g>
     </g>
    </g>
    <g id="ytick_4">
     <g id="line2d_15">
      <path d="M 51.518 150.38 
L 244.31832 150.38 
" clip-path="url(#pf52aa45c75)" style="fill: none; stroke: #b0b0b0; stroke-opacity: 0.5; stroke-width: 0.8; stroke-linecap: square"/>
     </g>
     <g id="line2d_16">
      <g>
       <use xlink:href="#m8652a8b961" x="51.518" y="150.38" style="stroke: #000000; stroke-width: 0.8"/>
      </g>
     </g>
     <g id="text_8">
      <!-- 7.5 -->
      <g transform="translate(31.7955 153.419375) scale(0.08 -0.08)">
       <defs>
        <path id="DejaVuSans-37" d="M 525 4666 
L 3525 4666 
L 3525 4397 
L 1831 0 
L 1172 0 
L 2766 4134 
L 525 4134 
L 525 4666 
z
" transform="scale(0.015625)"/>
       </defs>
       <use xlink:href="#DejaVuSans-37"/>
       <use xlink:href="#DejaVuSans-2e" x="63.623047"/>
       <use xlink:href="#DejaVuSans-35" x="95.410156"/>
      </g>
     </g>
    </g>
    <g id="ytick_5">
     <g id="line2d_17">
      <path d="M 51.518 123.04 
L 244.31832 123.04 
" clip-path="url(#pf52aa45c75)" style="fill: none; stroke: #b0b0b0; stroke-opacity: 0.5; stroke-width: 0.8; stroke-linecap: square"/>
     </g>
     <g id="line2d_18">
      <g>
       <use xlink:href="#m8652a8b961" x="51.518" y="123.04" style="stroke: #000000; stroke-width: 0.8"/>
      </g>
     </g>
     <g id="text_9">
      <!-- 10.0 -->
      <g transform="translate(26.7055 126.079375) scale(0.08 -0.08)">
       <use xlink:href="#DejaVuSans-31"/>
       <use xlink:href="#DejaVuSans-30" x="63.623047"/>
       <use xlink:href="#DejaVuSans-2e" x="127.246094"/>
       <use xlink:href="#DejaVuSans-30" x="159.033203"/>
      </g>
     </g>
    </g>
    <g id="ytick_6">
     <g id="line2d_19">
      <path d="M 51.518 95.7 
L 244.31832 95.7 
" clip-path="url(#pf52aa45c75)" style="fill: none; stroke: #b0b0b0; stroke-opacity: 0.5; stroke-width: 0.8; stroke-linecap: square"/>
     </g>
     <g id="line2d_20">
      <g>
       <use xlink:href="#m8652a8b961" x="51.518" y="95.7" style="stroke: #000000; stroke-width: 0.8"/>
      </g>
     </g>
     <g id="text_10">
      <!-- 12.5 -->
      <g transform="translate(26.7055 98.739375) scale(0.08 -0.08)">
       <use xlink:href="#DejaVuSans-31"/>
       <use xlink:href="#DejaVuSans-32" x="63.623047"/>
       <use xlink:href="#DejaVuSans-2e" x="127.246094"/>
       <use xlink:href="#DejaVuSans-35" x="159.033203"/>
      </g>
     </g>
    </g>
    <g id="ytick_7">
     <g id="line2d_21">
      <path d="M 51.518 68.36 
L 244.31832 68.36 
" clip-path="url(#pf52aa45c75)" style="fill: none; stroke: #b0b0b0; stroke-opacity: 0.5; stroke-width: 0.8; stroke-linecap: square"/>
     </g>
     <g id="line2d_22">
      <g>
       <use xlink:href="#m8652a8b961" x="51.518" y="68.36" style="stroke: #000000; stroke-width: 0.8"/>
      </g>
     </g>
     <g id="text_11">
      <!-- 15.0 -->
      <g transform="translate(26.7055 71.399375) scale(0.08 -0.08)">
       <use xlink:href="#DejaVuSans-31"/>
       <use xlink:href="#DejaVuSans-35" x="63.623047"/>
       <use xlink:href="#DejaVuSans-2e" x="127.246094"/>
       <use xlink:href="#DejaVuSans-30" x="159.033203"/>
      </g>
     </g>
    </g>
    <g id="ytick_8">
     <g id="line2d_23">
      <path d="M 51.518 41.02 
L 244.31832 41.02 
" clip-path="url(#pf52aa45c75)" style="fill: none; stroke: #b0b0b0; stroke-opacity: 0.5; stroke-width: 0.8; stroke-linecap: square"/>
     </g>
     <g id="line2d_24">
      <g>
       <use xlink:href="#m8652a8b961" x="51.518" y="41.02" style="stroke: #000000; stroke-width: 0.8"/>
      </g>
     </g>
     <g id="text_12">
      <!-- 17.5 -->
      <g transform="translate(26.7055 44.059375) scale(0.08 -0.08)">
       <use xlink:href="#DejaVuSans-31"/>
       <use xlink:href="#DejaVuSans-37" x="63.623047"/>
       <use xlink:href="#DejaVuSans-2e" x="127.246094"/>
       <use xlink:href="#DejaVuSans-35" x="159.033203"/>
      </g>
     </g>
    </g>
    <g id="ytick_9">
     <g id="line2d_25">
      <path d="M 51.518 13.68 
L 244.31832 13.68 
" clip-path="url(#pf52aa45c75)" style="fill: none; stroke: #b0b0b0; stroke-opacity: 0.5; stroke-width: 0.8; stroke-linecap: square"/>
     </g>
     <g id="line2d_26">
      <g>
       <use xlink:href="#m8652a8b961" x="51.518" y="13.68" style="stroke: #000000; stroke-width: 0.8"/>
      </g>
     </g>
     <g id="text_13">
      <!-- 20.0 -->
      <g transform="translate(26.7055 16.719375) scale(0.08 -0.08)">
       <use xlink:href="#DejaVuSans-32"/>
       <use xlink:href="#DejaVuSans-30" x="63.623047"/>
       <use xlink:href="#DejaVuSans-2e" x="127.246094"/>
       <use xlink:href="#DejaVuSans-30" x="159.033203"/>
      </g>
     </g>
    </g>
    <g id="text_14">
     <!-- $C_u$ -->
     <g transform="translate(20.625812 128.89) rotate(-90) scale(0.1 -0.1)">
      <defs>
       <path id="DejaVuSans-Oblique-43" d="M 4447 4306 
L 4319 3641 
Q 4019 3944 3683 4091 
Q 3347 4238 2956 4238 
Q 2422 4238 2017 3981 
Q 1613 3725 1319 3200 
Q 1131 2863 1032 2486 
Q 934 2109 934 1728 
Q 934 1091 1264 756 
Q 1594 422 2222 422 
Q 2656 422 3056 561 
Q 3456 700 3834 978 
L 3688 231 
Q 3316 72 2936 -9 
Q 2556 -91 2175 -91 
Q 1278 -91 773 396 
Q 269 884 269 1753 
Q 269 2309 461 2846 
Q 653 3384 1013 3828 
Q 1394 4300 1883 4525 
Q 2372 4750 3022 4750 
Q 3422 4750 3780 4639 
Q 4138 4528 4447 4306 
z
" transform="scale(0.015625)"/>
       <path id="DejaVuSans-Oblique-75" d="M 428 1388 
L 838 3500 
L 1416 3500 
L 1006 1409 
Q 975 1256 961 1147 
Q 947 1038 947 966 
Q 947 700 1109 554 
Q 1272 409 1569 409 
Q 2031 409 2368 721 
Q 2706 1034 2809 1563 
L 3194 3500 
L 3769 3500 
L 3091 0 
L 2516 0 
L 2631 550 
Q 2388 244 2052 76 
Q 1716 -91 1338 -91 
Q 878 -91 622 161 
Q 366 413 366 863 
Q 366 956 381 1097 
Q 397 1238 428 1388 
z
" transform="scale(0.015625)"/>
      </defs>
      <use xlink:href="#DejaVuSans-Oblique-43" transform="translate(0 0.78125)"/>
      <use xlink:href="#DejaVuSans-Oblique-75" transform="translate(69.824219 -15.625) scale(0.7)"/>
     </g>
    </g>
   </g>
   <g id="patch_3">
    <path d="M 51.518 232.4 
L 51.518 13.68 
" style="fill: none; stroke: #000000; stroke-width: 0.8; stroke-linejoin: miter; stroke-linecap: square"/>
   </g>
   <g id="patch_4">
    <path d="M 244.31832 232.4 
L 244.31832 13.68 
" style="fill: none; stroke: #000000; stroke-width: 0.8; stroke-linejoin: miter; stroke-linecap: square"/>
   </g>
   <g id="patch_5">
    <path d="M 51.518 232.4 
L 244.31832 232.4 
" style="fill: none; stroke: #000000; stroke-width: 0.8; stroke-linejoin: miter; stroke-linecap: square"/>
   </g>
   <g id="patch_6">
    <path d="M 51.518 13.68 
L 244.31832 13.68 
" style="fill: none; stroke: #000000; stroke-width: 0.8; stroke-linejoin: miter; stroke-linecap: square"/>
   </g>
   <g id="legend_1">
    <g id="patch_7">
     <path d="M 57.118 52.52325 
L 168.553 52.52325 
Q 170.153 52.52325 170.153 50.92325 
L 170.153 19.28 
Q 170.153 17.68 168.553 17.68 
L 57.118 17.68 
Q 55.518 17.68 55.518 19.28 
L 55.518 50.92325 
Q 55.518 52.52325 57.118 52.52325 
z
" style="fill: #ffffff; opacity: 0.8; stroke: #cccccc; stroke-linejoin: miter"/>
    </g>
    <g id="PathCollection_1">
     <defs>
      <path id="ma55a9d2ef2" d="M -1.490712 4.472136 
L 1.490712 4.472136 
L 1.490712 1.490712 
L 4.472136 1.490712 
L 4.472136 -1.490712 
L 1.490712 -1.490712 
L 1.490712 -4.472136 
L -1.490712 -4.472136 
L -1.490712 -1.490712 
L -4.472136 -1.490712 
L -4.472136 1.490712 
L -1.490712 1.490712 
z
" style="stroke: #ffffff"/>
     </defs>
     <g>
      <use xlink:href="#ma55a9d2ef2" x="66.718" y="24.85875" style="stroke: #ffffff"/>
     </g>
    </g>
    <g id="text_15">
     <!-- true value -->
     <g transform="translate(81.118 26.95875) scale(0.08 -0.08)">
      <defs>
       <path id="DejaVuSans-74" d="M 1172 4494 
L 1172 3500 
L 2356 3500 
L 2356 3053 
L 1172 3053 
L 1172 1153 
Q 1172 725 1289 603 
Q 1406 481 1766 481 
L 2356 481 
L 2356 0 
L 1766 0 
Q 1100 0 847 248 
Q 594 497 594 1153 
L 594 3053 
L 172 3053 
L 172 3500 
L 594 3500 
L 594 4494 
L 1172 4494 
z
" transform="scale(0.015625)"/>
       <path id="DejaVuSans-72" d="M 2631 2963 
Q 2534 3019 2420 3045 
Q 2306 3072 2169 3072 
Q 1681 3072 1420 2755 
Q 1159 2438 1159 1844 
L 1159 0 
L 581 0 
L 581 3500 
L 1159 3500 
L 1159 2956 
Q 1341 3275 1631 3429 
Q 1922 3584 2338 3584 
Q 2397 3584 2469 3576 
Q 2541 3569 2628 3553 
L 2631 2963 
z
" transform="scale(0.015625)"/>
       <path id="DejaVuSans-75" d="M 544 1381 
L 544 3500 
L 1119 3500 
L 1119 1403 
Q 1119 906 1312 657 
Q 1506 409 1894 409 
Q 2359 409 2629 706 
Q 2900 1003 2900 1516 
L 2900 3500 
L 3475 3500 
L 3475 0 
L 2900 0 
L 2900 538 
Q 2691 219 2414 64 
Q 2138 -91 1772 -91 
Q 1169 -91 856 284 
Q 544 659 544 1381 
z
M 1991 3584 
L 1991 3584 
z
" transform="scale(0.015625)"/>
       <path id="DejaVuSans-76" d="M 191 3500 
L 800 3500 
L 1894 563 
L 2988 3500 
L 3597 3500 
L 2284 0 
L 1503 0 
L 191 3500 
z
" transform="scale(0.015625)"/>
      </defs>
      <use xlink:href="#DejaVuSans-74"/>
      <use xlink:href="#DejaVuSans-72" x="39.208984"/>
      <use xlink:href="#DejaVuSans-75" x="80.322266"/>
      <use xlink:href="#DejaVuSans-65" x="143.701172"/>
      <use xlink:href="#DejaVuSans-20" x="205.224609"/>
      <use xlink:href="#DejaVuSans-76" x="237.011719"/>
      <use xlink:href="#DejaVuSans-61" x="296.191406"/>
      <use xlink:href="#DejaVuSans-6c" x="357.470703"/>
      <use xlink:href="#DejaVuSans-75" x="385.253906"/>
      <use xlink:href="#DejaVuSans-65" x="448.632812"/>
     </g>
    </g>
    <g id="PathCollection_2">
     <defs>
      <path id="m154297ae77" d="M 0 4.472136 
C 1.186024 4.472136 2.323632 4.000923 3.162278 3.162278 
C 4.000923 2.323632 4.472136 1.186024 4.472136 0 
C 4.472136 -1.186024 4.000923 -2.323632 3.162278 -3.162278 
C 2.323632 -4.000923 1.186024 -4.472136 0 -4.472136 
C -1.186024 -4.472136 -2.323632 -4.000923 -3.162278 -3.162278 
C -4.000923 -2.323632 -4.472136 -1.186024 -4.472136 0 
C -4.472136 1.186024 -4.000923 2.323632 -3.162278 3.162278 
C -2.323632 4.000923 -1.186024 4.472136 0 4.472136 
z
" style="stroke: #ffffff"/>
     </defs>
     <g>
      <use xlink:href="#m154297ae77" x="66.718" y="41.91225" style="stroke: #ffffff"/>
     </g>
    </g>
    <g id="text_16">
     <!-- average -->
     <g transform="translate(81.118 38.70125) scale(0.08 -0.08)">
      <defs>
       <path id="DejaVuSans-67" d="M 2906 1791 
Q 2906 2416 2648 2759 
Q 2391 3103 1925 3103 
Q 1463 3103 1205 2759 
Q 947 2416 947 1791 
Q 947 1169 1205 825 
Q 1463 481 1925 481 
Q 2391 481 2648 825 
Q 2906 1169 2906 1791 
z
M 3481 434 
Q 3481 -459 3084 -895 
Q 2688 -1331 1869 -1331 
Q 1566 -1331 1297 -1286 
Q 1028 -1241 775 -1147 
L 775 -588 
Q 1028 -725 1275 -790 
Q 1522 -856 1778 -856 
Q 2344 -856 2625 -561 
Q 2906 -266 2906 331 
L 2906 616 
Q 2728 306 2450 153 
Q 2172 0 1784 0 
Q 1141 0 747 490 
Q 353 981 353 1791 
Q 353 2603 747 3093 
Q 1141 3584 1784 3584 
Q 2172 3584 2450 3431 
Q 2728 3278 2906 2969 
L 2906 3500 
L 3481 3500 
L 3481 434 
z
" transform="scale(0.015625)"/>
      </defs>
      <use xlink:href="#DejaVuSans-61"/>
      <use xlink:href="#DejaVuSans-76" x="61.279297"/>
      <use xlink:href="#DejaVuSans-65" x="120.458984"/>
      <use xlink:href="#DejaVuSans-72" x="181.982422"/>
      <use xlink:href="#DejaVuSans-61" x="223.095703"/>
      <use xlink:href="#DejaVuSans-67" x="284.375"/>
      <use xlink:href="#DejaVuSans-65" x="347.851562"/>
     </g>
     <!-- based on estimations -->
     <g transform="translate(81.118 47.6595) scale(0.08 -0.08)">
      <defs>
       <path id="DejaVuSans-62" d="M 3116 1747 
Q 3116 2381 2855 2742 
Q 2594 3103 2138 3103 
Q 1681 3103 1420 2742 
Q 1159 2381 1159 1747 
Q 1159 1113 1420 752 
Q 1681 391 2138 391 
Q 2594 391 2855 752 
Q 3116 1113 3116 1747 
z
M 1159 2969 
Q 1341 3281 1617 3432 
Q 1894 3584 2278 3584 
Q 2916 3584 3314 3078 
Q 3713 2572 3713 1747 
Q 3713 922 3314 415 
Q 2916 -91 2278 -91 
Q 1894 -91 1617 61 
Q 1341 213 1159 525 
L 1159 0 
L 581 0 
L 581 4863 
L 1159 4863 
L 1159 2969 
z
" transform="scale(0.015625)"/>
       <path id="DejaVuSans-64" d="M 2906 2969 
L 2906 4863 
L 3481 4863 
L 3481 0 
L 2906 0 
L 2906 525 
Q 2725 213 2448 61 
Q 2172 -91 1784 -91 
Q 1150 -91 751 415 
Q 353 922 353 1747 
Q 353 2572 751 3078 
Q 1150 3584 1784 3584 
Q 2172 3584 2448 3432 
Q 2725 3281 2906 2969 
z
M 947 1747 
Q 947 1113 1208 752 
Q 1469 391 1925 391 
Q 2381 391 2643 752 
Q 2906 1113 2906 1747 
Q 2906 2381 2643 2742 
Q 2381 3103 1925 3103 
Q 1469 3103 1208 2742 
Q 947 2381 947 1747 
z
" transform="scale(0.015625)"/>
       <path id="DejaVuSans-6f" d="M 1959 3097 
Q 1497 3097 1228 2736 
Q 959 2375 959 1747 
Q 959 1119 1226 758 
Q 1494 397 1959 397 
Q 2419 397 2687 759 
Q 2956 1122 2956 1747 
Q 2956 2369 2687 2733 
Q 2419 3097 1959 3097 
z
M 1959 3584 
Q 2709 3584 3137 3096 
Q 3566 2609 3566 1747 
Q 3566 888 3137 398 
Q 2709 -91 1959 -91 
Q 1206 -91 779 398 
Q 353 888 353 1747 
Q 353 2609 779 3096 
Q 1206 3584 1959 3584 
z
" transform="scale(0.015625)"/>
       <path id="DejaVuSans-6e" d="M 3513 2113 
L 3513 0 
L 2938 0 
L 2938 2094 
Q 2938 2591 2744 2837 
Q 2550 3084 2163 3084 
Q 1697 3084 1428 2787 
Q 1159 2491 1159 1978 
L 1159 0 
L 581 0 
L 581 3500 
L 1159 3500 
L 1159 2956 
Q 1366 3272 1645 3428 
Q 1925 3584 2291 3584 
Q 2894 3584 3203 3211 
Q 3513 2838 3513 2113 
z
" transform="scale(0.015625)"/>
       <path id="DejaVuSans-69" d="M 603 3500 
L 1178 3500 
L 1178 0 
L 603 0 
L 603 3500 
z
M 603 4863 
L 1178 4863 
L 1178 4134 
L 603 4134 
L 603 4863 
z
" transform="scale(0.015625)"/>
      </defs>
      <use xlink:href="#DejaVuSans-62"/>
      <use xlink:href="#DejaVuSans-61" x="63.476562"/>
      <use xlink:href="#DejaVuSans-73" x="124.755859"/>
      <use xlink:href="#DejaVuSans-65" x="176.855469"/>
      <use xlink:href="#DejaVuSans-64" x="238.378906"/>
      <use xlink:href="#DejaVuSans-20" x="301.855469"/>
      <use xlink:href="#DejaVuSans-6f" x="333.642578"/>
      <use xlink:href="#DejaVuSans-6e" x="394.824219"/>
      <use xlink:href="#DejaVuSans-20" x="458.203125"/>
      <use xlink:href="#DejaVuSans-65" x="489.990234"/>
      <use xlink:href="#DejaVuSans-73" x="551.513672"/>
      <use xlink:href="#DejaVuSans-74" x="603.613281"/>
      <use xlink:href="#DejaVuSans-69" x="642.822266"/>
      <use xlink:href="#DejaVuSans-6d" x="670.605469"/>
      <use xlink:href="#DejaVuSans-61" x="768.017578"/>
      <use xlink:href="#DejaVuSans-74" x="829.296875"/>
      <use xlink:href="#DejaVuSans-69" x="868.505859"/>
      <use xlink:href="#DejaVuSans-6f" x="896.289062"/>
      <use xlink:href="#DejaVuSans-6e" x="957.470703"/>
      <use xlink:href="#DejaVuSans-73" x="1020.849609"/>
     </g>
    </g>
   </g>
   <g id="PathCollection_3">
    <g clip-path="url(#pf52aa45c75)">
     <use xlink:href="#ma55a9d2ef2" x="76.861531" y="218.762929" style="stroke: #ffffff"/>
     <use xlink:href="#ma55a9d2ef2" x="124.232617" y="216.148091" style="stroke: #ffffff"/>
     <use xlink:href="#ma55a9d2ef2" x="171.603703" y="196.524374" style="stroke: #ffffff"/>
     <use xlink:href="#ma55a9d2ef2" x="218.974789" y="220.222493" style="stroke: #ffffff"/>
    </g>
   </g>
   <g id="PathCollection_4">
    <g clip-path="url(#pf52aa45c75)">
     <use xlink:href="#m154297ae77" x="76.861531" y="213.983136" style="stroke: #ffffff"/>
     <use xlink:href="#m154297ae77" x="171.603703" y="133.43299" style="stroke: #ffffff"/>
    </g>
   </g>
  </g>
  <g id="axes_2">
   <g id="patch_8">
    <path d="M 51.518 479 
L 244.31832 479 
L 244.31832 260.28 
L 51.518 260.28 
z
" style="fill: #ffffff"/>
   </g>
   <g id="PolyCollection_5">
    <defs>
     <path id="m694282fd3a" d="M 77.337687 -52.34 
L 76.385375 -52.34 
L 76.500762 -54.738246 
L 76.464014 -57.136491 
L 75.84335 -59.534737 
L 74.930633 -61.932982 
L 73.546313 -64.331228 
L 70.278636 -66.729474 
L 65.201541 -69.127719 
L 60.941959 -71.525965 
L 60.281651 -73.924211 
L 63.99918 -76.322456 
L 68.381226 -78.720702 
L 70.722313 -81.118947 
L 72.742614 -83.517193 
L 75.052971 -85.915439 
L 76.427196 -88.313684 
L 76.796394 -90.71193 
L 76.763773 -93.110175 
L 76.544984 -95.508421 
L 76.388372 -97.906667 
L 77.33469 -97.906667 
L 77.33469 -97.906667 
L 77.178078 -95.508421 
L 76.959289 -93.110175 
L 76.926668 -90.71193 
L 77.295867 -88.313684 
L 78.670091 -85.915439 
L 80.980448 -83.517193 
L 83.000749 -81.118947 
L 85.341836 -78.720702 
L 89.723882 -76.322456 
L 93.441411 -73.924211 
L 92.781103 -71.525965 
L 88.521521 -69.127719 
L 83.444426 -66.729474 
L 80.176749 -64.331228 
L 78.792429 -61.932982 
L 77.879712 -59.534737 
L 77.259048 -57.136491 
L 77.2223 -54.738246 
L 77.337687 -52.34 
z
" style="stroke: #000000"/>
    </defs>
    <g clip-path="url(#pb417072dd2)">
     <use xlink:href="#m694282fd3a" x="0" y="504" style="fill: #808080; stroke: #000000"/>
    </g>
   </g>
   <g id="PolyCollection_6">
    <defs>
     <path id="m1b91df3c29" d="M 126.162128 -47.369091 
L 122.303106 -47.369091 
L 120.652334 -51.673475 
L 118.173982 -55.977858 
L 115.094427 -60.282242 
L 111.922475 -64.586626 
L 109.063062 -68.891009 
L 107.652737 -73.195393 
L 109.132899 -77.499777 
L 112.8879 -81.80416 
L 116.652096 -86.108544 
L 119.103443 -90.412928 
L 120.428958 -94.717311 
L 121.428432 -99.021695 
L 122.550525 -103.326079 
L 123.494143 -107.630463 
L 123.877423 -111.934846 
L 123.722455 -116.23923 
L 123.32439 -120.543614 
L 123.099473 -124.847997 
L 123.275018 -129.152381 
L 125.190216 -129.152381 
L 125.190216 -129.152381 
L 125.365761 -124.847997 
L 125.140844 -120.543614 
L 124.742779 -116.23923 
L 124.587811 -111.934846 
L 124.971091 -107.630463 
L 125.914709 -103.326079 
L 127.036802 -99.021695 
L 128.036276 -94.717311 
L 129.361791 -90.412928 
L 131.813138 -86.108544 
L 135.577334 -81.80416 
L 139.332335 -77.499777 
L 140.812497 -73.195393 
L 139.402172 -68.891009 
L 136.542759 -64.586626 
L 133.370807 -60.282242 
L 130.291252 -55.977858 
L 127.8129 -51.673475 
L 126.162128 -47.369091 
z
" style="stroke: #000000"/>
    </defs>
    <g clip-path="url(#pb417072dd2)">
     <use xlink:href="#m1b91df3c29" x="0" y="504" style="fill: #808080; stroke: #000000"/>
    </g>
   </g>
   <g id="PolyCollection_7">
    <defs>
     <path id="m680aaa0ae2" d="M 182.893673 -38.019048 
L 160.313733 -38.019048 
L 155.023823 -63.234887 
L 157.036053 -88.450727 
L 163.313962 -113.666566 
L 168.077725 -138.882406 
L 170.291096 -164.098246 
L 171.179192 -189.314085 
L 171.50092 -214.529925 
L 171.540761 -239.745764 
L 171.383295 -264.961604 
L 171.069911 -290.177444 
L 170.861889 -315.393283 
L 171.015917 -340.609123 
L 171.346193 -365.824962 
L 171.543552 -391.040802 
L 171.595493 -416.256642 
L 171.591942 -441.472481 
L 171.536931 -466.688321 
L 171.41005 -491.90416 
L 171.32752 -517.12 
L 171.879886 -517.12 
L 171.879886 -517.12 
L 171.797356 -491.90416 
L 171.670475 -466.688321 
L 171.615464 -441.472481 
L 171.611913 -416.256642 
L 171.663854 -391.040802 
L 171.861213 -365.824962 
L 172.191489 -340.609123 
L 172.345517 -315.393283 
L 172.137495 -290.177444 
L 171.824111 -264.961604 
L 171.666645 -239.745764 
L 171.706486 -214.529925 
L 172.028214 -189.314085 
L 172.91631 -164.098246 
L 175.129681 -138.882406 
L 179.893444 -113.666566 
L 186.171353 -88.450727 
L 188.183583 -63.234887 
L 182.893673 -38.019048 
z
" style="stroke: #000000"/>
    </defs>
    <g clip-path="url(#pb417072dd2)">
     <use xlink:href="#m680aaa0ae2" x="0" y="504" style="fill: #808080; stroke: #000000"/>
    </g>
   </g>
   <g id="PolyCollection_8">
    <defs>
     <path id="meaaee639b1" d="M 220.814186 -33.202 
L 217.135392 -33.202 
L 216.979955 -38.526105 
L 217.128234 -43.850211 
L 216.13805 -49.174316 
L 213.683685 -54.498421 
L 211.04259 -59.822526 
L 208.692887 -65.146632 
L 205.541869 -70.470737 
L 202.394909 -75.794842 
L 203.019733 -81.118947 
L 208.002867 -86.443053 
L 213.317045 -91.767158 
L 216.566796 -97.091263 
L 218.074054 -102.415368 
L 218.553214 -107.739474 
L 218.553528 -113.063579 
L 218.549615 -118.387684 
L 218.631524 -123.711789 
L 218.601368 -129.035895 
L 218.546127 -134.36 
L 219.403451 -134.36 
L 219.403451 -134.36 
L 219.34821 -129.035895 
L 219.318054 -123.711789 
L 219.399963 -118.387684 
L 219.39605 -113.063579 
L 219.396364 -107.739474 
L 219.875524 -102.415368 
L 221.382781 -97.091263 
L 224.632533 -91.767158 
L 229.946711 -86.443053 
L 234.929845 -81.118947 
L 235.554669 -75.794842 
L 232.407709 -70.470737 
L 229.256691 -65.146632 
L 226.906988 -59.822526 
L 224.265893 -54.498421 
L 221.811528 -49.174316 
L 220.821344 -43.850211 
L 220.969622 -38.526105 
L 220.814186 -33.202 
z
" style="stroke: #000000"/>
    </defs>
    <g clip-path="url(#pb417072dd2)">
     <use xlink:href="#meaaee639b1" x="0" y="504" style="fill: #808080; stroke: #000000"/>
    </g>
   </g>
   <g id="matplotlib.axis_3">
    <g id="xtick_5">
     <g id="line2d_27">
      <path d="M 76.861531 479 
L 76.861531 260.28 
" clip-path="url(#pb417072dd2)" style="fill: none; stroke: #b0b0b0; stroke-opacity: 0.5; stroke-width: 0.8; stroke-linecap: square"/>
     </g>
     <g id="line2d_28">
      <g>
       <use xlink:href="#mfde343d1ab" x="76.861531" y="479" style="stroke: #000000; stroke-width: 0.8"/>
      </g>
     </g>
     <g id="text_17">
      <!-- sample 1 -->
      <g transform="translate(58.502156 492.07875) scale(0.08 -0.08)">
       <use xlink:href="#DejaVuSans-73"/>
       <use xlink:href="#DejaVuSans-61" x="52.099609"/>
       <use xlink:href="#DejaVuSans-6d" x="113.378906"/>
       <use xlink:href="#DejaVuSans-70" x="210.791016"/>
       <use xlink:href="#DejaVuSans-6c" x="274.267578"/>
       <use xlink:href="#DejaVuSans-65" x="302.050781"/>
       <use xlink:href="#DejaVuSans-20" x="363.574219"/>
       <use xlink:href="#DejaVuSans-31" x="395.361328"/>
      </g>
     </g>
    </g>
    <g id="xtick_6">
     <g id="line2d_29">
      <path d="M 124.232617 479 
L 124.232617 260.28 
" clip-path="url(#pb417072dd2)" style="fill: none; stroke: #b0b0b0; stroke-opacity: 0.5; stroke-width: 0.8; stroke-linecap: square"/>
     </g>
     <g id="line2d_30">
      <g>
       <use xlink:href="#mfde343d1ab" x="124.232617" y="479" style="stroke: #000000; stroke-width: 0.8"/>
      </g>
     </g>
     <g id="text_18">
      <!-- sample 2 -->
      <g transform="translate(105.873242 492.07875) scale(0.08 -0.08)">
       <use xlink:href="#DejaVuSans-73"/>
       <use xlink:href="#DejaVuSans-61" x="52.099609"/>
       <use xlink:href="#DejaVuSans-6d" x="113.378906"/>
       <use xlink:href="#DejaVuSans-70" x="210.791016"/>
       <use xlink:href="#DejaVuSans-6c" x="274.267578"/>
       <use xlink:href="#DejaVuSans-65" x="302.050781"/>
       <use xlink:href="#DejaVuSans-20" x="363.574219"/>
       <use xlink:href="#DejaVuSans-32" x="395.361328"/>
      </g>
     </g>
    </g>
    <g id="xtick_7">
     <g id="line2d_31">
      <path d="M 171.603703 479 
L 171.603703 260.28 
" clip-path="url(#pb417072dd2)" style="fill: none; stroke: #b0b0b0; stroke-opacity: 0.5; stroke-width: 0.8; stroke-linecap: square"/>
     </g>
     <g id="line2d_32">
      <g>
       <use xlink:href="#mfde343d1ab" x="171.603703" y="479" style="stroke: #000000; stroke-width: 0.8"/>
      </g>
     </g>
     <g id="text_19">
      <!-- sample 3 -->
      <g transform="translate(153.244328 492.07875) scale(0.08 -0.08)">
       <use xlink:href="#DejaVuSans-73"/>
       <use xlink:href="#DejaVuSans-61" x="52.099609"/>
       <use xlink:href="#DejaVuSans-6d" x="113.378906"/>
       <use xlink:href="#DejaVuSans-70" x="210.791016"/>
       <use xlink:href="#DejaVuSans-6c" x="274.267578"/>
       <use xlink:href="#DejaVuSans-65" x="302.050781"/>
       <use xlink:href="#DejaVuSans-20" x="363.574219"/>
       <use xlink:href="#DejaVuSans-33" x="395.361328"/>
      </g>
     </g>
    </g>
    <g id="xtick_8">
     <g id="line2d_33">
      <path d="M 218.974789 479 
L 218.974789 260.28 
" clip-path="url(#pb417072dd2)" style="fill: none; stroke: #b0b0b0; stroke-opacity: 0.5; stroke-width: 0.8; stroke-linecap: square"/>
     </g>
     <g id="line2d_34">
      <g>
       <use xlink:href="#mfde343d1ab" x="218.974789" y="479" style="stroke: #000000; stroke-width: 0.8"/>
      </g>
     </g>
     <g id="text_20">
      <!-- sample 4 -->
      <g transform="translate(200.615414 492.07875) scale(0.08 -0.08)">
       <use xlink:href="#DejaVuSans-73"/>
       <use xlink:href="#DejaVuSans-61" x="52.099609"/>
       <use xlink:href="#DejaVuSans-6d" x="113.378906"/>
       <use xlink:href="#DejaVuSans-70" x="210.791016"/>
       <use xlink:href="#DejaVuSans-6c" x="274.267578"/>
       <use xlink:href="#DejaVuSans-65" x="302.050781"/>
       <use xlink:href="#DejaVuSans-20" x="363.574219"/>
       <use xlink:href="#DejaVuSans-34" x="395.361328"/>
      </g>
     </g>
    </g>
   </g>
   <g id="matplotlib.axis_4">
    <g id="ytick_10">
     <g id="line2d_35">
      <path d="M 51.518 479 
L 244.31832 479 
" clip-path="url(#pb417072dd2)" style="fill: none; stroke: #b0b0b0; stroke-opacity: 0.5; stroke-width: 0.8; stroke-linecap: square"/>
     </g>
     <g id="line2d_36">
      <g>
       <use xlink:href="#m8652a8b961" x="51.518" y="479" style="stroke: #000000; stroke-width: 0.8"/>
      </g>
     </g>
     <g id="text_21">
      <!-- 0.0 -->
      <g transform="translate(31.7955 482.039375) scale(0.08 -0.08)">
       <use xlink:href="#DejaVuSans-30"/>
       <use xlink:href="#DejaVuSans-2e" x="63.623047"/>
       <use xlink:href="#DejaVuSans-30" x="95.410156"/>
      </g>
     </g>
    </g>
    <g id="ytick_11">
     <g id="line2d_37">
      <path d="M 51.518 451.66 
L 244.31832 451.66 
" clip-path="url(#pb417072dd2)" style="fill: none; stroke: #b0b0b0; stroke-opacity: 0.5; stroke-width: 0.8; stroke-linecap: square"/>
     </g>
     <g id="line2d_38">
      <g>
       <use xlink:href="#m8652a8b961" x="51.518" y="451.66" style="stroke: #000000; stroke-width: 0.8"/>
      </g>
     </g>
     <g id="text_22">
      <!-- 0.5 -->
      <g transform="translate(31.7955 454.699375) scale(0.08 -0.08)">
       <use xlink:href="#DejaVuSans-30"/>
       <use xlink:href="#DejaVuSans-2e" x="63.623047"/>
       <use xlink:href="#DejaVuSans-35" x="95.410156"/>
      </g>
     </g>
    </g>
    <g id="ytick_12">
     <g id="line2d_39">
      <path d="M 51.518 424.32 
L 244.31832 424.32 
" clip-path="url(#pb417072dd2)" style="fill: none; stroke: #b0b0b0; stroke-opacity: 0.5; stroke-width: 0.8; stroke-linecap: square"/>
     </g>
     <g id="line2d_40">
      <g>
       <use xlink:href="#m8652a8b961" x="51.518" y="424.32" style="stroke: #000000; stroke-width: 0.8"/>
      </g>
     </g>
     <g id="text_23">
      <!-- 1.0 -->
      <g transform="translate(31.7955 427.359375) scale(0.08 -0.08)">
       <use xlink:href="#DejaVuSans-31"/>
       <use xlink:href="#DejaVuSans-2e" x="63.623047"/>
       <use xlink:href="#DejaVuSans-30" x="95.410156"/>
      </g>
     </g>
    </g>
    <g id="ytick_13">
     <g id="line2d_41">
      <path d="M 51.518 396.98 
L 244.31832 396.98 
" clip-path="url(#pb417072dd2)" style="fill: none; stroke: #b0b0b0; stroke-opacity: 0.5; stroke-width: 0.8; stroke-linecap: square"/>
     </g>
     <g id="line2d_42">
      <g>
       <use xlink:href="#m8652a8b961" x="51.518" y="396.98" style="stroke: #000000; stroke-width: 0.8"/>
      </g>
     </g>
     <g id="text_24">
      <!-- 1.5 -->
      <g transform="translate(31.7955 400.019375) scale(0.08 -0.08)">
       <use xlink:href="#DejaVuSans-31"/>
       <use xlink:href="#DejaVuSans-2e" x="63.623047"/>
       <use xlink:href="#DejaVuSans-35" x="95.410156"/>
      </g>
     </g>
    </g>
    <g id="ytick_14">
     <g id="line2d_43">
      <path d="M 51.518 369.64 
L 244.31832 369.64 
" clip-path="url(#pb417072dd2)" style="fill: none; stroke: #b0b0b0; stroke-opacity: 0.5; stroke-width: 0.8; stroke-linecap: square"/>
     </g>
     <g id="line2d_44">
      <g>
       <use xlink:href="#m8652a8b961" x="51.518" y="369.64" style="stroke: #000000; stroke-width: 0.8"/>
      </g>
     </g>
     <g id="text_25">
      <!-- 2.0 -->
      <g transform="translate(31.7955 372.679375) scale(0.08 -0.08)">
       <use xlink:href="#DejaVuSans-32"/>
       <use xlink:href="#DejaVuSans-2e" x="63.623047"/>
       <use xlink:href="#DejaVuSans-30" x="95.410156"/>
      </g>
     </g>
    </g>
    <g id="ytick_15">
     <g id="line2d_45">
      <path d="M 51.518 342.3 
L 244.31832 342.3 
" clip-path="url(#pb417072dd2)" style="fill: none; stroke: #b0b0b0; stroke-opacity: 0.5; stroke-width: 0.8; stroke-linecap: square"/>
     </g>
     <g id="line2d_46">
      <g>
       <use xlink:href="#m8652a8b961" x="51.518" y="342.3" style="stroke: #000000; stroke-width: 0.8"/>
      </g>
     </g>
     <g id="text_26">
      <!-- 2.5 -->
      <g transform="translate(31.7955 345.339375) scale(0.08 -0.08)">
       <use xlink:href="#DejaVuSans-32"/>
       <use xlink:href="#DejaVuSans-2e" x="63.623047"/>
       <use xlink:href="#DejaVuSans-35" x="95.410156"/>
      </g>
     </g>
    </g>
    <g id="ytick_16">
     <g id="line2d_47">
      <path d="M 51.518 314.96 
L 244.31832 314.96 
" clip-path="url(#pb417072dd2)" style="fill: none; stroke: #b0b0b0; stroke-opacity: 0.5; stroke-width: 0.8; stroke-linecap: square"/>
     </g>
     <g id="line2d_48">
      <g>
       <use xlink:href="#m8652a8b961" x="51.518" y="314.96" style="stroke: #000000; stroke-width: 0.8"/>
      </g>
     </g>
     <g id="text_27">
      <!-- 3.0 -->
      <g transform="translate(31.7955 317.999375) scale(0.08 -0.08)">
       <use xlink:href="#DejaVuSans-33"/>
       <use xlink:href="#DejaVuSans-2e" x="63.623047"/>
       <use xlink:href="#DejaVuSans-30" x="95.410156"/>
      </g>
     </g>
    </g>
    <g id="ytick_17">
     <g id="line2d_49">
      <path d="M 51.518 287.62 
L 244.31832 287.62 
" clip-path="url(#pb417072dd2)" style="fill: none; stroke: #b0b0b0; stroke-opacity: 0.5; stroke-width: 0.8; stroke-linecap: square"/>
     </g>
     <g id="line2d_50">
      <g>
       <use xlink:href="#m8652a8b961" x="51.518" y="287.62" style="stroke: #000000; stroke-width: 0.8"/>
      </g>
     </g>
     <g id="text_28">
      <!-- 3.5 -->
      <g transform="translate(31.7955 290.659375) scale(0.08 -0.08)">
       <use xlink:href="#DejaVuSans-33"/>
       <use xlink:href="#DejaVuSans-2e" x="63.623047"/>
       <use xlink:href="#DejaVuSans-35" x="95.410156"/>
      </g>
     </g>
    </g>
    <g id="ytick_18">
     <g id="line2d_51">
      <path d="M 51.518 260.28 
L 244.31832 260.28 
" clip-path="url(#pb417072dd2)" style="fill: none; stroke: #b0b0b0; stroke-opacity: 0.5; stroke-width: 0.8; stroke-linecap: square"/>
     </g>
     <g id="line2d_52">
      <g>
       <use xlink:href="#m8652a8b961" x="51.518" y="260.28" style="stroke: #000000; stroke-width: 0.8"/>
      </g>
     </g>
     <g id="text_29">
      <!-- 4.0 -->
      <g transform="translate(31.7955 263.319375) scale(0.08 -0.08)">
       <use xlink:href="#DejaVuSans-34"/>
       <use xlink:href="#DejaVuSans-2e" x="63.623047"/>
       <use xlink:href="#DejaVuSans-30" x="95.410156"/>
      </g>
     </g>
    </g>
    <g id="text_30">
     <!-- $C_c$ -->
     <g transform="translate(25.715812 375.24) rotate(-90) scale(0.1 -0.1)">
      <defs>
       <path id="DejaVuSans-Oblique-63" d="M 3431 3366 
L 3316 2797 
Q 3109 2947 2876 3022 
Q 2644 3097 2394 3097 
Q 2119 3097 1870 3000 
Q 1622 2903 1453 2725 
Q 1184 2453 1037 2087 
Q 891 1722 891 1331 
Q 891 859 1127 628 
Q 1363 397 1844 397 
Q 2081 397 2348 469 
Q 2616 541 2906 684 
L 2797 116 
Q 2547 13 2283 -39 
Q 2019 -91 1741 -91 
Q 1044 -91 669 257 
Q 294 606 294 1253 
Q 294 1797 489 2255 
Q 684 2713 1069 3078 
Q 1331 3328 1684 3456 
Q 2038 3584 2456 3584 
Q 2700 3584 2940 3529 
Q 3181 3475 3431 3366 
z
" transform="scale(0.015625)"/>
      </defs>
      <use xlink:href="#DejaVuSans-Oblique-43" transform="translate(0 0.78125)"/>
      <use xlink:href="#DejaVuSans-Oblique-63" transform="translate(69.824219 -15.625) scale(0.7)"/>
     </g>
    </g>
   </g>
   <g id="patch_9">
    <path d="M 51.518 479 
L 51.518 260.28 
" style="fill: none; stroke: #000000; stroke-width: 0.8; stroke-linejoin: miter; stroke-linecap: square"/>
   </g>
   <g id="patch_10">
    <path d="M 244.31832 479 
L 244.31832 260.28 
" style="fill: none; stroke: #000000; stroke-width: 0.8; stroke-linejoin: miter; stroke-linecap: square"/>
   </g>
   <g id="patch_11">
    <path d="M 51.518 479 
L 244.31832 479 
" style="fill: none; stroke: #000000; stroke-width: 0.8; stroke-linejoin: miter; stroke-linecap: square"/>
   </g>
   <g id="patch_12">
    <path d="M 51.518 260.28 
L 244.31832 260.28 
" style="fill: none; stroke: #000000; stroke-width: 0.8; stroke-linejoin: miter; stroke-linecap: square"/>
   </g>
   <g id="legend_2">
    <g id="patch_13">
     <path d="M 57.118 299.12325 
L 168.553 299.12325 
Q 170.153 299.12325 170.153 297.52325 
L 170.153 265.88 
Q 170.153 264.28 168.553 264.28 
L 57.118 264.28 
Q 55.518 264.28 55.518 265.88 
L 55.518 297.52325 
Q 55.518 299.12325 57.118 299.12325 
z
" style="fill: #ffffff; opacity: 0.8; stroke: #cccccc; stroke-linejoin: miter"/>
    </g>
    <g id="PathCollection_5">
     <g>
      <use xlink:href="#ma55a9d2ef2" x="66.718" y="271.45875" style="stroke: #ffffff"/>
     </g>
    </g>
    <g id="text_31">
     <!-- true value -->
     <g transform="translate(81.118 273.55875) scale(0.08 -0.08)">
      <use xlink:href="#DejaVuSans-74"/>
      <use xlink:href="#DejaVuSans-72" x="39.208984"/>
      <use xlink:href="#DejaVuSans-75" x="80.322266"/>
      <use xlink:href="#DejaVuSans-65" x="143.701172"/>
      <use xlink:href="#DejaVuSans-20" x="205.224609"/>
      <use xlink:href="#DejaVuSans-76" x="237.011719"/>
      <use xlink:href="#DejaVuSans-61" x="296.191406"/>
      <use xlink:href="#DejaVuSans-6c" x="357.470703"/>
      <use xlink:href="#DejaVuSans-75" x="385.253906"/>
      <use xlink:href="#DejaVuSans-65" x="448.632812"/>
     </g>
    </g>
    <g id="PathCollection_6">
     <g>
      <use xlink:href="#m154297ae77" x="66.718" y="288.51225" style="stroke: #ffffff"/>
     </g>
    </g>
    <g id="text_32">
     <!-- average -->
     <g transform="translate(81.118 285.30125) scale(0.08 -0.08)">
      <use xlink:href="#DejaVuSans-61"/>
      <use xlink:href="#DejaVuSans-76" x="61.279297"/>
      <use xlink:href="#DejaVuSans-65" x="120.458984"/>
      <use xlink:href="#DejaVuSans-72" x="181.982422"/>
      <use xlink:href="#DejaVuSans-61" x="223.095703"/>
      <use xlink:href="#DejaVuSans-67" x="284.375"/>
      <use xlink:href="#DejaVuSans-65" x="347.851562"/>
     </g>
     <!-- based on estimations -->
     <g transform="translate(81.118 294.2595) scale(0.08 -0.08)">
      <use xlink:href="#DejaVuSans-62"/>
      <use xlink:href="#DejaVuSans-61" x="63.476562"/>
      <use xlink:href="#DejaVuSans-73" x="124.755859"/>
      <use xlink:href="#DejaVuSans-65" x="176.855469"/>
      <use xlink:href="#DejaVuSans-64" x="238.378906"/>
      <use xlink:href="#DejaVuSans-20" x="301.855469"/>
      <use xlink:href="#DejaVuSans-6f" x="333.642578"/>
      <use xlink:href="#DejaVuSans-6e" x="394.824219"/>
      <use xlink:href="#DejaVuSans-20" x="458.203125"/>
      <use xlink:href="#DejaVuSans-65" x="489.990234"/>
      <use xlink:href="#DejaVuSans-73" x="551.513672"/>
      <use xlink:href="#DejaVuSans-74" x="603.613281"/>
      <use xlink:href="#DejaVuSans-69" x="642.822266"/>
      <use xlink:href="#DejaVuSans-6d" x="670.605469"/>
      <use xlink:href="#DejaVuSans-61" x="768.017578"/>
      <use xlink:href="#DejaVuSans-74" x="829.296875"/>
      <use xlink:href="#DejaVuSans-69" x="868.505859"/>
      <use xlink:href="#DejaVuSans-6f" x="896.289062"/>
      <use xlink:href="#DejaVuSans-6e" x="957.470703"/>
      <use xlink:href="#DejaVuSans-73" x="1020.849609"/>
     </g>
    </g>
   </g>
   <g id="PathCollection_7">
    <g clip-path="url(#pb417072dd2)">
     <use xlink:href="#ma55a9d2ef2" x="76.861531" y="421.496729" style="stroke: #ffffff"/>
     <use xlink:href="#ma55a9d2ef2" x="124.232617" y="420.723473" style="stroke: #ffffff"/>
     <use xlink:href="#ma55a9d2ef2" x="171.603703" y="442.361928" style="stroke: #ffffff"/>
     <use xlink:href="#ma55a9d2ef2" x="218.974789" y="425.220483" style="stroke: #ffffff"/>
    </g>
   </g>
   <g id="PathCollection_8">
    <g clip-path="url(#pb417072dd2)">
     <use xlink:href="#m154297ae77" x="76.861531" y="430.391503" style="stroke: #ffffff"/>
     <use xlink:href="#m154297ae77" x="124.232617" y="428.619716" style="stroke: #ffffff"/>
     <use xlink:href="#m154297ae77" x="171.603703" y="415.195344" style="stroke: #ffffff"/>
     <use xlink:href="#m154297ae77" x="218.974789" y="430.880914" style="stroke: #ffffff"/>
    </g>
   </g>
  </g>
 </g>
 <defs>
  <clipPath id="pf52aa45c75">
   <rect x="51.518" y="13.68" width="192.80032" height="218.72"/>
  </clipPath>
  <clipPath id="pb417072dd2">
   <rect x="51.518" y="260.28" width="192.80032" height="218.72"/>
  </clipPath>
 </defs>
</svg>
