<?xml version="1.0" encoding="utf-8" standalone="no"?>
<!DOCTYPE svg PUBLIC "-//W3C//DTD SVG 1.1//EN"
  "http://www.w3.org/Graphics/SVG/1.1/DTD/svg11.dtd">
<svg xmlns:xlink="http://www.w3.org/1999/xlink" width="720pt" height="360pt" viewBox="0 0 720 360" xmlns="http://www.w3.org/2000/svg" version="1.1">
 <metadata>
  <rdf:RDF xmlns:dc="http://purl.org/dc/elements/1.1/" xmlns:cc="http://creativecommons.org/ns#" xmlns:rdf="http://www.w3.org/1999/02/22-rdf-syntax-ns#">
   <cc:Work>
    <dc:type rdf:resource="http://purl.org/dc/dcmitype/StillImage"/>
    <dc:date>2024-11-28T14:00:29.993514</dc:date>
    <dc:format>image/svg+xml</dc:format>
    <dc:creator>
     <cc:Agent>
      <dc:title>Matplotlib v3.9.2, https://matplotlib.org/</dc:title>
     </cc:Agent>
    </dc:creator>
   </cc:Work>
  </rdf:RDF>
 </metadata>
 <defs>
  <style type="text/css">*{stroke-linejoin: round; stroke-linecap: butt}</style>
 </defs>
 <g id="figure_1">
  <g id="patch_1">
   <path d="M 0 360 
L 720 360 
L 720 0 
L 0 0 
z
" style="fill: #ffffff"/>
  </g>
  <g id="axes_1">
   <g id="patch_2">
    <path d="M 55.55 316.6 
L 709.2 316.6 
L 709.2 54.418057 
L 55.55 54.418057 
z
" style="fill: #ffffff"/>
   </g>
   <g id="matplotlib.axis_1">
    <g id="xtick_1">
     <g id="line2d_1">
      <path d="M 231.153087 316.6 
L 231.153087 54.418057 
" clip-path="url(#p1b1d751867)" style="fill: none; stroke: #b0b0b0; stroke-opacity: 0.5; stroke-width: 0.8; stroke-linecap: square"/>
     </g>
     <g id="line2d_2">
      <defs>
       <path id="m2adb9b6497" d="M 0 0 
L 0 3.5 
" style="stroke: #000000; stroke-width: 0.8"/>
      </defs>
      <g>
       <use xlink:href="#m2adb9b6497" x="231.153087" y="316.6" style="stroke: #000000; stroke-width: 0.8"/>
      </g>
     </g>
     <g id="text_1">
      <!-- 0.060 -->
      <g transform="translate(213.976212 332.718125) scale(0.12 -0.12)">
       <defs>
        <path id="DejaVuSans-30" d="M 2034 4250 
Q 1547 4250 1301 3770 
Q 1056 3291 1056 2328 
Q 1056 1369 1301 889 
Q 1547 409 2034 409 
Q 2525 409 2770 889 
Q 3016 1369 3016 2328 
Q 3016 3291 2770 3770 
Q 2525 4250 2034 4250 
z
M 2034 4750 
Q 2819 4750 3233 4129 
Q 3647 3509 3647 2328 
Q 3647 1150 3233 529 
Q 2819 -91 2034 -91 
Q 1250 -91 836 529 
Q 422 1150 422 2328 
Q 422 3509 836 4129 
Q 1250 4750 2034 4750 
z
" transform="scale(0.015625)"/>
        <path id="DejaVuSans-2e" d="M 684 794 
L 1344 794 
L 1344 0 
L 684 0 
L 684 794 
z
" transform="scale(0.015625)"/>
        <path id="DejaVuSans-36" d="M 2113 2584 
Q 1688 2584 1439 2293 
Q 1191 2003 1191 1497 
Q 1191 994 1439 701 
Q 1688 409 2113 409 
Q 2538 409 2786 701 
Q 3034 994 3034 1497 
Q 3034 2003 2786 2293 
Q 2538 2584 2113 2584 
z
M 3366 4563 
L 3366 3988 
Q 3128 4100 2886 4159 
Q 2644 4219 2406 4219 
Q 1781 4219 1451 3797 
Q 1122 3375 1075 2522 
Q 1259 2794 1537 2939 
Q 1816 3084 2150 3084 
Q 2853 3084 3261 2657 
Q 3669 2231 3669 1497 
Q 3669 778 3244 343 
Q 2819 -91 2113 -91 
Q 1303 -91 875 529 
Q 447 1150 447 2328 
Q 447 3434 972 4092 
Q 1497 4750 2381 4750 
Q 2619 4750 2861 4703 
Q 3103 4656 3366 4563 
z
" transform="scale(0.015625)"/>
       </defs>
       <use xlink:href="#DejaVuSans-30"/>
       <use xlink:href="#DejaVuSans-2e" x="63.623047"/>
       <use xlink:href="#DejaVuSans-30" x="95.410156"/>
       <use xlink:href="#DejaVuSans-36" x="159.033203"/>
       <use xlink:href="#DejaVuSans-30" x="222.65625"/>
      </g>
     </g>
    </g>
    <g id="xtick_2">
     <g id="line2d_3">
      <path d="M 412.195915 316.6 
L 412.195915 54.418057 
" clip-path="url(#p1b1d751867)" style="fill: none; stroke: #b0b0b0; stroke-opacity: 0.5; stroke-width: 0.8; stroke-linecap: square"/>
     </g>
     <g id="line2d_4">
      <g>
       <use xlink:href="#m2adb9b6497" x="412.195915" y="316.6" style="stroke: #000000; stroke-width: 0.8"/>
      </g>
     </g>
     <g id="text_2">
      <!-- 2.000 -->
      <g transform="translate(395.01904 332.718125) scale(0.12 -0.12)">
       <defs>
        <path id="DejaVuSans-32" d="M 1228 531 
L 3431 531 
L 3431 0 
L 469 0 
L 469 531 
Q 828 903 1448 1529 
Q 2069 2156 2228 2338 
Q 2531 2678 2651 2914 
Q 2772 3150 2772 3378 
Q 2772 3750 2511 3984 
Q 2250 4219 1831 4219 
Q 1534 4219 1204 4116 
Q 875 4013 500 3803 
L 500 4441 
Q 881 4594 1212 4672 
Q 1544 4750 1819 4750 
Q 2544 4750 2975 4387 
Q 3406 4025 3406 3419 
Q 3406 3131 3298 2873 
Q 3191 2616 2906 2266 
Q 2828 2175 2409 1742 
Q 1991 1309 1228 531 
z
" transform="scale(0.015625)"/>
       </defs>
       <use xlink:href="#DejaVuSans-32"/>
       <use xlink:href="#DejaVuSans-2e" x="63.623047"/>
       <use xlink:href="#DejaVuSans-30" x="95.410156"/>
       <use xlink:href="#DejaVuSans-30" x="159.033203"/>
       <use xlink:href="#DejaVuSans-30" x="222.65625"/>
      </g>
     </g>
    </g>
    <g id="xtick_3">
     <g id="line2d_5">
      <path d="M 590.318028 316.6 
L 590.318028 54.418057 
" clip-path="url(#p1b1d751867)" style="fill: none; stroke: #b0b0b0; stroke-opacity: 0.5; stroke-width: 0.8; stroke-linecap: square"/>
     </g>
     <g id="line2d_6">
      <g>
       <use xlink:href="#m2adb9b6497" x="590.318028" y="316.6" style="stroke: #000000; stroke-width: 0.8"/>
      </g>
     </g>
     <g id="text_3">
      <!-- 63.000 -->
      <g transform="translate(569.323653 332.718125) scale(0.12 -0.12)">
       <defs>
        <path id="DejaVuSans-33" d="M 2597 2516 
Q 3050 2419 3304 2112 
Q 3559 1806 3559 1356 
Q 3559 666 3084 287 
Q 2609 -91 1734 -91 
Q 1441 -91 1130 -33 
Q 819 25 488 141 
L 488 750 
Q 750 597 1062 519 
Q 1375 441 1716 441 
Q 2309 441 2620 675 
Q 2931 909 2931 1356 
Q 2931 1769 2642 2001 
Q 2353 2234 1838 2234 
L 1294 2234 
L 1294 2753 
L 1863 2753 
Q 2328 2753 2575 2939 
Q 2822 3125 2822 3475 
Q 2822 3834 2567 4026 
Q 2313 4219 1838 4219 
Q 1578 4219 1281 4162 
Q 984 4106 628 3988 
L 628 4550 
Q 988 4650 1302 4700 
Q 1616 4750 1894 4750 
Q 2613 4750 3031 4423 
Q 3450 4097 3450 3541 
Q 3450 3153 3228 2886 
Q 3006 2619 2597 2516 
z
" transform="scale(0.015625)"/>
       </defs>
       <use xlink:href="#DejaVuSans-36"/>
       <use xlink:href="#DejaVuSans-33" x="63.623047"/>
       <use xlink:href="#DejaVuSans-2e" x="127.246094"/>
       <use xlink:href="#DejaVuSans-30" x="159.033203"/>
       <use xlink:href="#DejaVuSans-30" x="222.65625"/>
       <use xlink:href="#DejaVuSans-30" x="286.279297"/>
      </g>
     </g>
    </g>
    <g id="xtick_4">
     <g id="line2d_7">
      <path d="M 649.959859 316.6 
L 649.959859 54.418057 
" clip-path="url(#p1b1d751867)" style="fill: none; stroke: #b0b0b0; stroke-opacity: 0.5; stroke-width: 0.8; stroke-linecap: square"/>
     </g>
     <g id="line2d_8">
      <g>
       <use xlink:href="#m2adb9b6497" x="649.959859" y="316.6" style="stroke: #000000; stroke-width: 0.8"/>
      </g>
     </g>
     <g id="text_4">
      <!-- 200.000 -->
      <g transform="translate(625.147984 332.718125) scale(0.12 -0.12)">
       <use xlink:href="#DejaVuSans-32"/>
       <use xlink:href="#DejaVuSans-30" x="63.623047"/>
       <use xlink:href="#DejaVuSans-30" x="127.246094"/>
       <use xlink:href="#DejaVuSans-2e" x="190.869141"/>
       <use xlink:href="#DejaVuSans-30" x="222.65625"/>
       <use xlink:href="#DejaVuSans-30" x="286.279297"/>
       <use xlink:href="#DejaVuSans-30" x="349.902344"/>
      </g>
     </g>
    </g>
    <g id="xtick_5">
     <g id="line2d_9">
      <defs>
       <path id="mfdb3cc3e6d" d="M 0 0 
L 0 2 
" style="stroke: #000000; stroke-width: 0.6"/>
      </defs>
      <g>
       <use xlink:href="#mfdb3cc3e6d" x="55.55" y="316.6" style="stroke: #000000; stroke-width: 0.6"/>
      </g>
     </g>
    </g>
    <g id="xtick_6">
     <g id="line2d_10">
      <g>
       <use xlink:href="#mfdb3cc3e6d" x="76.484076" y="316.6" style="stroke: #000000; stroke-width: 0.6"/>
      </g>
     </g>
    </g>
    <g id="xtick_7">
     <g id="line2d_11">
      <g>
       <use xlink:href="#mfdb3cc3e6d" x="91.337039" y="316.6" style="stroke: #000000; stroke-width: 0.6"/>
      </g>
     </g>
    </g>
    <g id="xtick_8">
     <g id="line2d_12">
      <g>
       <use xlink:href="#mfdb3cc3e6d" x="102.857893" y="316.6" style="stroke: #000000; stroke-width: 0.6"/>
      </g>
     </g>
    </g>
    <g id="xtick_9">
     <g id="line2d_13">
      <g>
       <use xlink:href="#mfdb3cc3e6d" x="112.271116" y="316.6" style="stroke: #000000; stroke-width: 0.6"/>
      </g>
     </g>
    </g>
    <g id="xtick_10">
     <g id="line2d_14">
      <g>
       <use xlink:href="#mfdb3cc3e6d" x="120.229882" y="316.6" style="stroke: #000000; stroke-width: 0.6"/>
      </g>
     </g>
    </g>
    <g id="xtick_11">
     <g id="line2d_15">
      <g>
       <use xlink:href="#mfdb3cc3e6d" x="127.124079" y="316.6" style="stroke: #000000; stroke-width: 0.6"/>
      </g>
     </g>
    </g>
    <g id="xtick_12">
     <g id="line2d_16">
      <g>
       <use xlink:href="#mfdb3cc3e6d" x="133.205192" y="316.6" style="stroke: #000000; stroke-width: 0.6"/>
      </g>
     </g>
    </g>
    <g id="xtick_13">
     <g id="line2d_17">
      <g>
       <use xlink:href="#mfdb3cc3e6d" x="174.431972" y="316.6" style="stroke: #000000; stroke-width: 0.6"/>
      </g>
     </g>
    </g>
    <g id="xtick_14">
     <g id="line2d_18">
      <g>
       <use xlink:href="#mfdb3cc3e6d" x="195.366048" y="316.6" style="stroke: #000000; stroke-width: 0.6"/>
      </g>
     </g>
    </g>
    <g id="xtick_15">
     <g id="line2d_19">
      <g>
       <use xlink:href="#mfdb3cc3e6d" x="210.219011" y="316.6" style="stroke: #000000; stroke-width: 0.6"/>
      </g>
     </g>
    </g>
    <g id="xtick_16">
     <g id="line2d_20">
      <g>
       <use xlink:href="#mfdb3cc3e6d" x="221.739865" y="316.6" style="stroke: #000000; stroke-width: 0.6"/>
      </g>
     </g>
    </g>
    <g id="xtick_17">
     <g id="line2d_21">
      <g>
       <use xlink:href="#mfdb3cc3e6d" x="239.111854" y="316.6" style="stroke: #000000; stroke-width: 0.6"/>
      </g>
     </g>
    </g>
    <g id="xtick_18">
     <g id="line2d_22">
      <g>
       <use xlink:href="#mfdb3cc3e6d" x="246.006051" y="316.6" style="stroke: #000000; stroke-width: 0.6"/>
      </g>
     </g>
    </g>
    <g id="xtick_19">
     <g id="line2d_23">
      <g>
       <use xlink:href="#mfdb3cc3e6d" x="252.087163" y="316.6" style="stroke: #000000; stroke-width: 0.6"/>
      </g>
     </g>
    </g>
    <g id="xtick_20">
     <g id="line2d_24">
      <g>
       <use xlink:href="#mfdb3cc3e6d" x="293.313944" y="316.6" style="stroke: #000000; stroke-width: 0.6"/>
      </g>
     </g>
    </g>
    <g id="xtick_21">
     <g id="line2d_25">
      <g>
       <use xlink:href="#mfdb3cc3e6d" x="314.24802" y="316.6" style="stroke: #000000; stroke-width: 0.6"/>
      </g>
     </g>
    </g>
    <g id="xtick_22">
     <g id="line2d_26">
      <g>
       <use xlink:href="#mfdb3cc3e6d" x="329.100983" y="316.6" style="stroke: #000000; stroke-width: 0.6"/>
      </g>
     </g>
    </g>
    <g id="xtick_23">
     <g id="line2d_27">
      <g>
       <use xlink:href="#mfdb3cc3e6d" x="340.621836" y="316.6" style="stroke: #000000; stroke-width: 0.6"/>
      </g>
     </g>
    </g>
    <g id="xtick_24">
     <g id="line2d_28">
      <g>
       <use xlink:href="#mfdb3cc3e6d" x="350.035059" y="316.6" style="stroke: #000000; stroke-width: 0.6"/>
      </g>
     </g>
    </g>
    <g id="xtick_25">
     <g id="line2d_29">
      <g>
       <use xlink:href="#mfdb3cc3e6d" x="357.993825" y="316.6" style="stroke: #000000; stroke-width: 0.6"/>
      </g>
     </g>
    </g>
    <g id="xtick_26">
     <g id="line2d_30">
      <g>
       <use xlink:href="#mfdb3cc3e6d" x="364.888022" y="316.6" style="stroke: #000000; stroke-width: 0.6"/>
      </g>
     </g>
    </g>
    <g id="xtick_27">
     <g id="line2d_31">
      <g>
       <use xlink:href="#mfdb3cc3e6d" x="370.969135" y="316.6" style="stroke: #000000; stroke-width: 0.6"/>
      </g>
     </g>
    </g>
    <g id="xtick_28">
     <g id="line2d_32">
      <g>
       <use xlink:href="#mfdb3cc3e6d" x="433.129991" y="316.6" style="stroke: #000000; stroke-width: 0.6"/>
      </g>
     </g>
    </g>
    <g id="xtick_29">
     <g id="line2d_33">
      <g>
       <use xlink:href="#mfdb3cc3e6d" x="447.982955" y="316.6" style="stroke: #000000; stroke-width: 0.6"/>
      </g>
     </g>
    </g>
    <g id="xtick_30">
     <g id="line2d_34">
      <g>
       <use xlink:href="#mfdb3cc3e6d" x="459.503808" y="316.6" style="stroke: #000000; stroke-width: 0.6"/>
      </g>
     </g>
    </g>
    <g id="xtick_31">
     <g id="line2d_35">
      <g>
       <use xlink:href="#mfdb3cc3e6d" x="468.917031" y="316.6" style="stroke: #000000; stroke-width: 0.6"/>
      </g>
     </g>
    </g>
    <g id="xtick_32">
     <g id="line2d_36">
      <g>
       <use xlink:href="#mfdb3cc3e6d" x="476.875797" y="316.6" style="stroke: #000000; stroke-width: 0.6"/>
      </g>
     </g>
    </g>
    <g id="xtick_33">
     <g id="line2d_37">
      <g>
       <use xlink:href="#mfdb3cc3e6d" x="483.769994" y="316.6" style="stroke: #000000; stroke-width: 0.6"/>
      </g>
     </g>
    </g>
    <g id="xtick_34">
     <g id="line2d_38">
      <g>
       <use xlink:href="#mfdb3cc3e6d" x="489.851107" y="316.6" style="stroke: #000000; stroke-width: 0.6"/>
      </g>
     </g>
    </g>
    <g id="xtick_35">
     <g id="line2d_39">
      <g>
       <use xlink:href="#mfdb3cc3e6d" x="531.077887" y="316.6" style="stroke: #000000; stroke-width: 0.6"/>
      </g>
     </g>
    </g>
    <g id="xtick_36">
     <g id="line2d_40">
      <g>
       <use xlink:href="#mfdb3cc3e6d" x="552.011963" y="316.6" style="stroke: #000000; stroke-width: 0.6"/>
      </g>
     </g>
    </g>
    <g id="xtick_37">
     <g id="line2d_41">
      <g>
       <use xlink:href="#mfdb3cc3e6d" x="566.864926" y="316.6" style="stroke: #000000; stroke-width: 0.6"/>
      </g>
     </g>
    </g>
    <g id="xtick_38">
     <g id="line2d_42">
      <g>
       <use xlink:href="#mfdb3cc3e6d" x="578.38578" y="316.6" style="stroke: #000000; stroke-width: 0.6"/>
      </g>
     </g>
    </g>
    <g id="xtick_39">
     <g id="line2d_43">
      <g>
       <use xlink:href="#mfdb3cc3e6d" x="587.799003" y="316.6" style="stroke: #000000; stroke-width: 0.6"/>
      </g>
     </g>
    </g>
    <g id="xtick_40">
     <g id="line2d_44">
      <g>
       <use xlink:href="#mfdb3cc3e6d" x="595.757769" y="316.6" style="stroke: #000000; stroke-width: 0.6"/>
      </g>
     </g>
    </g>
    <g id="xtick_41">
     <g id="line2d_45">
      <g>
       <use xlink:href="#mfdb3cc3e6d" x="602.651966" y="316.6" style="stroke: #000000; stroke-width: 0.6"/>
      </g>
     </g>
    </g>
    <g id="xtick_42">
     <g id="line2d_46">
      <g>
       <use xlink:href="#mfdb3cc3e6d" x="608.733079" y="316.6" style="stroke: #000000; stroke-width: 0.6"/>
      </g>
     </g>
    </g>
    <g id="xtick_43">
     <g id="line2d_47">
      <g>
       <use xlink:href="#mfdb3cc3e6d" x="670.893935" y="316.6" style="stroke: #000000; stroke-width: 0.6"/>
      </g>
     </g>
    </g>
    <g id="xtick_44">
     <g id="line2d_48">
      <g>
       <use xlink:href="#mfdb3cc3e6d" x="685.746898" y="316.6" style="stroke: #000000; stroke-width: 0.6"/>
      </g>
     </g>
    </g>
    <g id="xtick_45">
     <g id="line2d_49">
      <g>
       <use xlink:href="#mfdb3cc3e6d" x="697.267752" y="316.6" style="stroke: #000000; stroke-width: 0.6"/>
      </g>
     </g>
    </g>
    <g id="xtick_46">
     <g id="line2d_50">
      <g>
       <use xlink:href="#mfdb3cc3e6d" x="706.680974" y="316.6" style="stroke: #000000; stroke-width: 0.6"/>
      </g>
     </g>
    </g>
    <g id="text_5">
     <!-- grain size [mm] -->
     <g transform="translate(335.135312 348.331875) scale(0.12 -0.12)">
      <defs>
       <path id="DejaVuSans-67" d="M 2906 1791 
Q 2906 2416 2648 2759 
Q 2391 3103 1925 3103 
Q 1463 3103 1205 2759 
Q 947 2416 947 1791 
Q 947 1169 1205 825 
Q 1463 481 1925 481 
Q 2391 481 2648 825 
Q 2906 1169 2906 1791 
z
M 3481 434 
Q 3481 -459 3084 -895 
Q 2688 -1331 1869 -1331 
Q 1566 -1331 1297 -1286 
Q 1028 -1241 775 -1147 
L 775 -588 
Q 1028 -725 1275 -790 
Q 1522 -856 1778 -856 
Q 2344 -856 2625 -561 
Q 2906 -266 2906 331 
L 2906 616 
Q 2728 306 2450 153 
Q 2172 0 1784 0 
Q 1141 0 747 490 
Q 353 981 353 1791 
Q 353 2603 747 3093 
Q 1141 3584 1784 3584 
Q 2172 3584 2450 3431 
Q 2728 3278 2906 2969 
L 2906 3500 
L 3481 3500 
L 3481 434 
z
" transform="scale(0.015625)"/>
       <path id="DejaVuSans-72" d="M 2631 2963 
Q 2534 3019 2420 3045 
Q 2306 3072 2169 3072 
Q 1681 3072 1420 2755 
Q 1159 2438 1159 1844 
L 1159 0 
L 581 0 
L 581 3500 
L 1159 3500 
L 1159 2956 
Q 1341 3275 1631 3429 
Q 1922 3584 2338 3584 
Q 2397 3584 2469 3576 
Q 2541 3569 2628 3553 
L 2631 2963 
z
" transform="scale(0.015625)"/>
       <path id="DejaVuSans-61" d="M 2194 1759 
Q 1497 1759 1228 1600 
Q 959 1441 959 1056 
Q 959 750 1161 570 
Q 1363 391 1709 391 
Q 2188 391 2477 730 
Q 2766 1069 2766 1631 
L 2766 1759 
L 2194 1759 
z
M 3341 1997 
L 3341 0 
L 2766 0 
L 2766 531 
Q 2569 213 2275 61 
Q 1981 -91 1556 -91 
Q 1019 -91 701 211 
Q 384 513 384 1019 
Q 384 1609 779 1909 
Q 1175 2209 1959 2209 
L 2766 2209 
L 2766 2266 
Q 2766 2663 2505 2880 
Q 2244 3097 1772 3097 
Q 1472 3097 1187 3025 
Q 903 2953 641 2809 
L 641 3341 
Q 956 3463 1253 3523 
Q 1550 3584 1831 3584 
Q 2591 3584 2966 3190 
Q 3341 2797 3341 1997 
z
" transform="scale(0.015625)"/>
       <path id="DejaVuSans-69" d="M 603 3500 
L 1178 3500 
L 1178 0 
L 603 0 
L 603 3500 
z
M 603 4863 
L 1178 4863 
L 1178 4134 
L 603 4134 
L 603 4863 
z
" transform="scale(0.015625)"/>
       <path id="DejaVuSans-6e" d="M 3513 2113 
L 3513 0 
L 2938 0 
L 2938 2094 
Q 2938 2591 2744 2837 
Q 2550 3084 2163 3084 
Q 1697 3084 1428 2787 
Q 1159 2491 1159 1978 
L 1159 0 
L 581 0 
L 581 3500 
L 1159 3500 
L 1159 2956 
Q 1366 3272 1645 3428 
Q 1925 3584 2291 3584 
Q 2894 3584 3203 3211 
Q 3513 2838 3513 2113 
z
" transform="scale(0.015625)"/>
       <path id="DejaVuSans-20" transform="scale(0.015625)"/>
       <path id="DejaVuSans-73" d="M 2834 3397 
L 2834 2853 
Q 2591 2978 2328 3040 
Q 2066 3103 1784 3103 
Q 1356 3103 1142 2972 
Q 928 2841 928 2578 
Q 928 2378 1081 2264 
Q 1234 2150 1697 2047 
L 1894 2003 
Q 2506 1872 2764 1633 
Q 3022 1394 3022 966 
Q 3022 478 2636 193 
Q 2250 -91 1575 -91 
Q 1294 -91 989 -36 
Q 684 19 347 128 
L 347 722 
Q 666 556 975 473 
Q 1284 391 1588 391 
Q 1994 391 2212 530 
Q 2431 669 2431 922 
Q 2431 1156 2273 1281 
Q 2116 1406 1581 1522 
L 1381 1569 
Q 847 1681 609 1914 
Q 372 2147 372 2553 
Q 372 3047 722 3315 
Q 1072 3584 1716 3584 
Q 2034 3584 2315 3537 
Q 2597 3491 2834 3397 
z
" transform="scale(0.015625)"/>
       <path id="DejaVuSans-7a" d="M 353 3500 
L 3084 3500 
L 3084 2975 
L 922 459 
L 3084 459 
L 3084 0 
L 275 0 
L 275 525 
L 2438 3041 
L 353 3041 
L 353 3500 
z
" transform="scale(0.015625)"/>
       <path id="DejaVuSans-65" d="M 3597 1894 
L 3597 1613 
L 953 1613 
Q 991 1019 1311 708 
Q 1631 397 2203 397 
Q 2534 397 2845 478 
Q 3156 559 3463 722 
L 3463 178 
Q 3153 47 2828 -22 
Q 2503 -91 2169 -91 
Q 1331 -91 842 396 
Q 353 884 353 1716 
Q 353 2575 817 3079 
Q 1281 3584 2069 3584 
Q 2775 3584 3186 3129 
Q 3597 2675 3597 1894 
z
M 3022 2063 
Q 3016 2534 2758 2815 
Q 2500 3097 2075 3097 
Q 1594 3097 1305 2825 
Q 1016 2553 972 2059 
L 3022 2063 
z
" transform="scale(0.015625)"/>
       <path id="DejaVuSans-5b" d="M 550 4863 
L 1875 4863 
L 1875 4416 
L 1125 4416 
L 1125 -397 
L 1875 -397 
L 1875 -844 
L 550 -844 
L 550 4863 
z
" transform="scale(0.015625)"/>
       <path id="DejaVuSans-6d" d="M 3328 2828 
Q 3544 3216 3844 3400 
Q 4144 3584 4550 3584 
Q 5097 3584 5394 3201 
Q 5691 2819 5691 2113 
L 5691 0 
L 5113 0 
L 5113 2094 
Q 5113 2597 4934 2840 
Q 4756 3084 4391 3084 
Q 3944 3084 3684 2787 
Q 3425 2491 3425 1978 
L 3425 0 
L 2847 0 
L 2847 2094 
Q 2847 2600 2669 2842 
Q 2491 3084 2119 3084 
Q 1678 3084 1418 2786 
Q 1159 2488 1159 1978 
L 1159 0 
L 581 0 
L 581 3500 
L 1159 3500 
L 1159 2956 
Q 1356 3278 1631 3431 
Q 1906 3584 2284 3584 
Q 2666 3584 2933 3390 
Q 3200 3197 3328 2828 
z
" transform="scale(0.015625)"/>
       <path id="DejaVuSans-5d" d="M 1947 4863 
L 1947 -844 
L 622 -844 
L 622 -397 
L 1369 -397 
L 1369 4416 
L 622 4416 
L 622 4863 
L 1947 4863 
z
" transform="scale(0.015625)"/>
      </defs>
      <use xlink:href="#DejaVuSans-67"/>
      <use xlink:href="#DejaVuSans-72" x="63.476562"/>
      <use xlink:href="#DejaVuSans-61" x="104.589844"/>
      <use xlink:href="#DejaVuSans-69" x="165.869141"/>
      <use xlink:href="#DejaVuSans-6e" x="193.652344"/>
      <use xlink:href="#DejaVuSans-20" x="257.03125"/>
      <use xlink:href="#DejaVuSans-73" x="288.818359"/>
      <use xlink:href="#DejaVuSans-69" x="340.917969"/>
      <use xlink:href="#DejaVuSans-7a" x="368.701172"/>
      <use xlink:href="#DejaVuSans-65" x="421.191406"/>
      <use xlink:href="#DejaVuSans-20" x="482.714844"/>
      <use xlink:href="#DejaVuSans-5b" x="514.501953"/>
      <use xlink:href="#DejaVuSans-6d" x="553.515625"/>
      <use xlink:href="#DejaVuSans-6d" x="650.927734"/>
      <use xlink:href="#DejaVuSans-5d" x="748.339844"/>
     </g>
    </g>
   </g>
   <g id="matplotlib.axis_2">
    <g id="ytick_1">
     <g id="line2d_51">
      <path d="M 55.55 316.6 
L 709.2 316.6 
" clip-path="url(#p1b1d751867)" style="fill: none; stroke: #b0b0b0; stroke-opacity: 0.5; stroke-width: 0.8; stroke-linecap: square"/>
     </g>
     <g id="line2d_52">
      <defs>
       <path id="m7801e4ca3b" d="M 0 0 
L -3.5 0 
" style="stroke: #000000; stroke-width: 0.8"/>
      </defs>
      <g>
       <use xlink:href="#m7801e4ca3b" x="55.55" y="316.6" style="stroke: #000000; stroke-width: 0.8"/>
      </g>
     </g>
     <g id="text_6">
      <!-- 0 -->
      <g transform="translate(40.915 321.159063) scale(0.12 -0.12)">
       <use xlink:href="#DejaVuSans-30"/>
      </g>
     </g>
    </g>
    <g id="ytick_2">
     <g id="line2d_53">
      <path d="M 55.55 264.682784 
L 709.2 264.682784 
" clip-path="url(#p1b1d751867)" style="fill: none; stroke: #b0b0b0; stroke-opacity: 0.5; stroke-width: 0.8; stroke-linecap: square"/>
     </g>
     <g id="line2d_54">
      <g>
       <use xlink:href="#m7801e4ca3b" x="55.55" y="264.682784" style="stroke: #000000; stroke-width: 0.8"/>
      </g>
     </g>
     <g id="text_7">
      <!-- 20 -->
      <g transform="translate(33.28 269.241846) scale(0.12 -0.12)">
       <use xlink:href="#DejaVuSans-32"/>
       <use xlink:href="#DejaVuSans-30" x="63.623047"/>
      </g>
     </g>
    </g>
    <g id="ytick_3">
     <g id="line2d_55">
      <path d="M 55.55 212.765567 
L 709.2 212.765567 
" clip-path="url(#p1b1d751867)" style="fill: none; stroke: #b0b0b0; stroke-opacity: 0.5; stroke-width: 0.8; stroke-linecap: square"/>
     </g>
     <g id="line2d_56">
      <g>
       <use xlink:href="#m7801e4ca3b" x="55.55" y="212.765567" style="stroke: #000000; stroke-width: 0.8"/>
      </g>
     </g>
     <g id="text_8">
      <!-- 40 -->
      <g transform="translate(33.28 217.32463) scale(0.12 -0.12)">
       <defs>
        <path id="DejaVuSans-34" d="M 2419 4116 
L 825 1625 
L 2419 1625 
L 2419 4116 
z
M 2253 4666 
L 3047 4666 
L 3047 1625 
L 3713 1625 
L 3713 1100 
L 3047 1100 
L 3047 0 
L 2419 0 
L 2419 1100 
L 313 1100 
L 313 1709 
L 2253 4666 
z
" transform="scale(0.015625)"/>
       </defs>
       <use xlink:href="#DejaVuSans-34"/>
       <use xlink:href="#DejaVuSans-30" x="63.623047"/>
      </g>
     </g>
    </g>
    <g id="ytick_4">
     <g id="line2d_57">
      <path d="M 55.55 160.848351 
L 709.2 160.848351 
" clip-path="url(#p1b1d751867)" style="fill: none; stroke: #b0b0b0; stroke-opacity: 0.5; stroke-width: 0.8; stroke-linecap: square"/>
     </g>
     <g id="line2d_58">
      <g>
       <use xlink:href="#m7801e4ca3b" x="55.55" y="160.848351" style="stroke: #000000; stroke-width: 0.8"/>
      </g>
     </g>
     <g id="text_9">
      <!-- 60 -->
      <g transform="translate(33.28 165.407413) scale(0.12 -0.12)">
       <use xlink:href="#DejaVuSans-36"/>
       <use xlink:href="#DejaVuSans-30" x="63.623047"/>
      </g>
     </g>
    </g>
    <g id="ytick_5">
     <g id="line2d_59">
      <path d="M 55.55 108.931134 
L 709.2 108.931134 
" clip-path="url(#p1b1d751867)" style="fill: none; stroke: #b0b0b0; stroke-opacity: 0.5; stroke-width: 0.8; stroke-linecap: square"/>
     </g>
     <g id="line2d_60">
      <g>
       <use xlink:href="#m7801e4ca3b" x="55.55" y="108.931134" style="stroke: #000000; stroke-width: 0.8"/>
      </g>
     </g>
     <g id="text_10">
      <!-- 80 -->
      <g transform="translate(33.28 113.490197) scale(0.12 -0.12)">
       <defs>
        <path id="DejaVuSans-38" d="M 2034 2216 
Q 1584 2216 1326 1975 
Q 1069 1734 1069 1313 
Q 1069 891 1326 650 
Q 1584 409 2034 409 
Q 2484 409 2743 651 
Q 3003 894 3003 1313 
Q 3003 1734 2745 1975 
Q 2488 2216 2034 2216 
z
M 1403 2484 
Q 997 2584 770 2862 
Q 544 3141 544 3541 
Q 544 4100 942 4425 
Q 1341 4750 2034 4750 
Q 2731 4750 3128 4425 
Q 3525 4100 3525 3541 
Q 3525 3141 3298 2862 
Q 3072 2584 2669 2484 
Q 3125 2378 3379 2068 
Q 3634 1759 3634 1313 
Q 3634 634 3220 271 
Q 2806 -91 2034 -91 
Q 1263 -91 848 271 
Q 434 634 434 1313 
Q 434 1759 690 2068 
Q 947 2378 1403 2484 
z
M 1172 3481 
Q 1172 3119 1398 2916 
Q 1625 2713 2034 2713 
Q 2441 2713 2670 2916 
Q 2900 3119 2900 3481 
Q 2900 3844 2670 4047 
Q 2441 4250 2034 4250 
Q 1625 4250 1398 4047 
Q 1172 3844 1172 3481 
z
" transform="scale(0.015625)"/>
       </defs>
       <use xlink:href="#DejaVuSans-38"/>
       <use xlink:href="#DejaVuSans-30" x="63.623047"/>
      </g>
     </g>
    </g>
    <g id="ytick_6">
     <g id="line2d_61">
      <path d="M 55.55 57.013918 
L 709.2 57.013918 
" clip-path="url(#p1b1d751867)" style="fill: none; stroke: #b0b0b0; stroke-opacity: 0.5; stroke-width: 0.8; stroke-linecap: square"/>
     </g>
     <g id="line2d_62">
      <g>
       <use xlink:href="#m7801e4ca3b" x="55.55" y="57.013918" style="stroke: #000000; stroke-width: 0.8"/>
      </g>
     </g>
     <g id="text_11">
      <!-- 100 -->
      <g transform="translate(25.645 61.57298) scale(0.12 -0.12)">
       <defs>
        <path id="DejaVuSans-31" d="M 794 531 
L 1825 531 
L 1825 4091 
L 703 3866 
L 703 4441 
L 1819 4666 
L 2450 4666 
L 2450 531 
L 3481 531 
L 3481 0 
L 794 0 
L 794 531 
z
" transform="scale(0.015625)"/>
       </defs>
       <use xlink:href="#DejaVuSans-31"/>
       <use xlink:href="#DejaVuSans-30" x="63.623047"/>
       <use xlink:href="#DejaVuSans-30" x="127.246094"/>
      </g>
     </g>
    </g>
    <g id="text_12">
     <!-- mass percentage passing [%] -->
     <g transform="translate(19.149375 274.556529) rotate(-90) scale(0.12 -0.12)">
      <defs>
       <path id="DejaVuSans-70" d="M 1159 525 
L 1159 -1331 
L 581 -1331 
L 581 3500 
L 1159 3500 
L 1159 2969 
Q 1341 3281 1617 3432 
Q 1894 3584 2278 3584 
Q 2916 3584 3314 3078 
Q 3713 2572 3713 1747 
Q 3713 922 3314 415 
Q 2916 -91 2278 -91 
Q 1894 -91 1617 61 
Q 1341 213 1159 525 
z
M 3116 1747 
Q 3116 2381 2855 2742 
Q 2594 3103 2138 3103 
Q 1681 3103 1420 2742 
Q 1159 2381 1159 1747 
Q 1159 1113 1420 752 
Q 1681 391 2138 391 
Q 2594 391 2855 752 
Q 3116 1113 3116 1747 
z
" transform="scale(0.015625)"/>
       <path id="DejaVuSans-63" d="M 3122 3366 
L 3122 2828 
Q 2878 2963 2633 3030 
Q 2388 3097 2138 3097 
Q 1578 3097 1268 2742 
Q 959 2388 959 1747 
Q 959 1106 1268 751 
Q 1578 397 2138 397 
Q 2388 397 2633 464 
Q 2878 531 3122 666 
L 3122 134 
Q 2881 22 2623 -34 
Q 2366 -91 2075 -91 
Q 1284 -91 818 406 
Q 353 903 353 1747 
Q 353 2603 823 3093 
Q 1294 3584 2113 3584 
Q 2378 3584 2631 3529 
Q 2884 3475 3122 3366 
z
" transform="scale(0.015625)"/>
       <path id="DejaVuSans-74" d="M 1172 4494 
L 1172 3500 
L 2356 3500 
L 2356 3053 
L 1172 3053 
L 1172 1153 
Q 1172 725 1289 603 
Q 1406 481 1766 481 
L 2356 481 
L 2356 0 
L 1766 0 
Q 1100 0 847 248 
Q 594 497 594 1153 
L 594 3053 
L 172 3053 
L 172 3500 
L 594 3500 
L 594 4494 
L 1172 4494 
z
" transform="scale(0.015625)"/>
       <path id="DejaVuSans-25" d="M 4653 2053 
Q 4381 2053 4226 1822 
Q 4072 1591 4072 1178 
Q 4072 772 4226 539 
Q 4381 306 4653 306 
Q 4919 306 5073 539 
Q 5228 772 5228 1178 
Q 5228 1588 5073 1820 
Q 4919 2053 4653 2053 
z
M 4653 2450 
Q 5147 2450 5437 2106 
Q 5728 1763 5728 1178 
Q 5728 594 5436 251 
Q 5144 -91 4653 -91 
Q 4153 -91 3862 251 
Q 3572 594 3572 1178 
Q 3572 1766 3864 2108 
Q 4156 2450 4653 2450 
z
M 1428 4353 
Q 1159 4353 1004 4120 
Q 850 3888 850 3481 
Q 850 3069 1003 2837 
Q 1156 2606 1428 2606 
Q 1700 2606 1854 2837 
Q 2009 3069 2009 3481 
Q 2009 3884 1853 4118 
Q 1697 4353 1428 4353 
z
M 4250 4750 
L 4750 4750 
L 1831 -91 
L 1331 -91 
L 4250 4750 
z
M 1428 4750 
Q 1922 4750 2215 4408 
Q 2509 4066 2509 3481 
Q 2509 2891 2217 2550 
Q 1925 2209 1428 2209 
Q 931 2209 642 2551 
Q 353 2894 353 3481 
Q 353 4063 643 4406 
Q 934 4750 1428 4750 
z
" transform="scale(0.015625)"/>
      </defs>
      <use xlink:href="#DejaVuSans-6d"/>
      <use xlink:href="#DejaVuSans-61" x="97.412109"/>
      <use xlink:href="#DejaVuSans-73" x="158.691406"/>
      <use xlink:href="#DejaVuSans-73" x="210.791016"/>
      <use xlink:href="#DejaVuSans-20" x="262.890625"/>
      <use xlink:href="#DejaVuSans-70" x="294.677734"/>
      <use xlink:href="#DejaVuSans-65" x="358.154297"/>
      <use xlink:href="#DejaVuSans-72" x="419.677734"/>
      <use xlink:href="#DejaVuSans-63" x="458.541016"/>
      <use xlink:href="#DejaVuSans-65" x="513.521484"/>
      <use xlink:href="#DejaVuSans-6e" x="575.044922"/>
      <use xlink:href="#DejaVuSans-74" x="638.423828"/>
      <use xlink:href="#DejaVuSans-61" x="677.632812"/>
      <use xlink:href="#DejaVuSans-67" x="738.912109"/>
      <use xlink:href="#DejaVuSans-65" x="802.388672"/>
      <use xlink:href="#DejaVuSans-20" x="863.912109"/>
      <use xlink:href="#DejaVuSans-70" x="895.699219"/>
      <use xlink:href="#DejaVuSans-61" x="959.175781"/>
      <use xlink:href="#DejaVuSans-73" x="1020.455078"/>
      <use xlink:href="#DejaVuSans-73" x="1072.554688"/>
      <use xlink:href="#DejaVuSans-69" x="1124.654297"/>
      <use xlink:href="#DejaVuSans-6e" x="1152.4375"/>
      <use xlink:href="#DejaVuSans-67" x="1215.816406"/>
      <use xlink:href="#DejaVuSans-20" x="1279.292969"/>
      <use xlink:href="#DejaVuSans-5b" x="1311.080078"/>
      <use xlink:href="#DejaVuSans-25" x="1350.09375"/>
      <use xlink:href="#DejaVuSans-5d" x="1445.113281"/>
     </g>
    </g>
   </g>
   <g id="LineCollection_1">
    <path d="M 55.55 316.6 
L 55.55 54.418057 
" clip-path="url(#p1b1d751867)" style="fill: none; stroke: #d3d3d3; stroke-width: 1.5"/>
    <path d="M 231.153087 316.6 
L 231.153087 54.418057 
" clip-path="url(#p1b1d751867)" style="fill: none; stroke: #d3d3d3; stroke-width: 1.5"/>
    <path d="M 412.195915 316.6 
L 412.195915 54.418057 
" clip-path="url(#p1b1d751867)" style="fill: none; stroke: #d3d3d3; stroke-width: 1.5"/>
    <path d="M 590.318028 316.6 
L 590.318028 54.418057 
" clip-path="url(#p1b1d751867)" style="fill: none; stroke: #d3d3d3; stroke-width: 1.5"/>
    <path d="M 649.959859 316.6 
L 649.959859 54.418057 
" clip-path="url(#p1b1d751867)" style="fill: none; stroke: #d3d3d3; stroke-width: 1.5"/>
   </g>
   <g id="LineCollection_2">
    <path d="M 112.271116 316.6 
L 112.271116 54.418057 
" clip-path="url(#p1b1d751867)" style="fill: none; stroke-dasharray: 5.55,2.4; stroke-dashoffset: 0; stroke: #d3d3d3; stroke-width: 1.5"/>
    <path d="M 174.431972 316.6 
L 174.431972 54.418057 
" clip-path="url(#p1b1d751867)" style="fill: none; stroke-dasharray: 5.55,2.4; stroke-dashoffset: 0; stroke: #d3d3d3; stroke-width: 1.5"/>
    <path d="M 293.313944 316.6 
L 293.313944 54.418057 
" clip-path="url(#p1b1d751867)" style="fill: none; stroke-dasharray: 5.55,2.4; stroke-dashoffset: 0; stroke: #d3d3d3; stroke-width: 1.5"/>
    <path d="M 350.035059 316.6 
L 350.035059 54.418057 
" clip-path="url(#p1b1d751867)" style="fill: none; stroke-dasharray: 5.55,2.4; stroke-dashoffset: 0; stroke: #d3d3d3; stroke-width: 1.5"/>
    <path d="M 471.436056 316.6 
L 471.436056 54.418057 
" clip-path="url(#p1b1d751867)" style="fill: none; stroke-dasharray: 5.55,2.4; stroke-dashoffset: 0; stroke: #d3d3d3; stroke-width: 1.5"/>
    <path d="M 531.077887 316.6 
L 531.077887 54.418057 
" clip-path="url(#p1b1d751867)" style="fill: none; stroke-dasharray: 5.55,2.4; stroke-dashoffset: 0; stroke: #d3d3d3; stroke-width: 1.5"/>
   </g>
   <g id="line2d_63">
    <path d="M 55.55 38.68714 
L 709.2 38.68714 
" style="fill: none; stroke: #000000; stroke-width: 1.5; stroke-linecap: square"/>
   </g>
   <g id="line2d_64">
    <path d="M 55.55 22.956224 
L 590.318028 22.956224 
" style="fill: none; stroke: #000000; stroke-width: 1.5; stroke-linecap: square"/>
   </g>
   <g id="line2d_65">
    <path d="M 55.55 7.225307 
L 709.2 7.225307 
" style="fill: none; stroke: #000000; stroke-width: 1.5; stroke-linecap: square"/>
   </g>
   <g id="line2d_66">
    <path d="M 55.55 38.68714 
L 55.55 7.225307 
" style="fill: none; stroke: #000000; stroke-width: 1.5; stroke-linecap: square"/>
   </g>
   <g id="line2d_67">
    <path d="M 233.672113 38.68714 
L 233.672113 7.225307 
" style="fill: none; stroke: #000000; stroke-width: 1.5; stroke-linecap: square"/>
   </g>
   <g id="line2d_68">
    <path d="M 412.195915 38.68714 
L 412.195915 7.225307 
" style="fill: none; stroke: #000000; stroke-width: 1.5; stroke-linecap: square"/>
   </g>
   <g id="line2d_69">
    <path d="M 590.318028 38.68714 
L 590.318028 7.225307 
" style="fill: none; stroke: #000000; stroke-width: 1.5; stroke-linecap: square"/>
   </g>
   <g id="line2d_70">
    <path d="M 649.959859 38.68714 
L 649.959859 7.225307 
" style="fill: none; stroke: #000000; stroke-width: 1.5; stroke-linecap: square"/>
   </g>
   <g id="line2d_71">
    <path d="M 709.2 38.68714 
L 709.2 7.225307 
" style="fill: none; stroke: #000000; stroke-width: 1.5; stroke-linecap: square"/>
   </g>
   <g id="line2d_72">
    <path d="M 114.790141 38.68714 
L 114.790141 25.578043 
" style="fill: none; stroke: #808080; stroke-width: 0.5; stroke-linecap: square"/>
   </g>
   <g id="line2d_73">
    <path d="M 352.554085 38.68714 
L 352.554085 25.578043 
" style="fill: none; stroke: #808080; stroke-width: 0.5; stroke-linecap: square"/>
   </g>
   <g id="line2d_74">
    <path d="M 471.436056 38.68714 
L 471.436056 25.578043 
" style="fill: none; stroke: #808080; stroke-width: 0.5; stroke-linecap: square"/>
   </g>
   <g id="line2d_75">
    <path d="M 174.431972 38.68714 
L 174.431972 25.578043 
" style="fill: none; stroke: #808080; stroke-width: 0.5; stroke-linecap: square"/>
   </g>
   <g id="line2d_76">
    <path d="M 293.313944 38.68714 
L 293.313944 25.578043 
" style="fill: none; stroke: #808080; stroke-width: 0.5; stroke-linecap: square"/>
   </g>
   <g id="line2d_77">
    <path d="M 531.077887 38.68714 
L 531.077887 25.578043 
" style="fill: none; stroke: #808080; stroke-width: 0.5; stroke-linecap: square"/>
   </g>
   <g id="line2d_78">
    <path d="M 376.408876 316.6 
L 381.991549 316.6 
L 387.574222 316.59939 
L 393.156895 316.596242 
L 398.739568 316.126574 
L 404.322241 313.952767 
L 409.904915 308.870911 
L 415.487588 298.496262 
L 421.070261 280.00787 
L 426.652934 252.116253 
L 432.235607 219.073676 
L 437.81828 194.594862 
L 443.400953 193.991782 
L 448.983626 192.963463 
L 454.5663 191.240302 
L 460.148973 188.353531 
L 465.731646 183.633159 
L 471.314319 176.213004 
L 476.896992 164.988007 
L 482.479665 148.853734 
L 488.062338 127.872978 
L 493.645011 103.557922 
L 499.227685 81.874482 
L 504.810358 80.35336 
L 510.393031 80.35336 
L 515.975704 80.35336 
L 521.558377 80.35336 
L 527.14105 80.35336 
L 532.723723 80.35336 
L 538.306396 80.35336 
L 543.88907 57.013918 
L 549.471743 57.013918 
L 555.054416 57.013918 
L 560.637089 57.013918 
L 566.219762 57.013918 
L 571.802435 57.013918 
L 577.385108 57.013918 
L 582.967781 57.013918 
L 588.550454 57.013918 
L 594.133128 57.013918 
L 599.715801 57.013918 
L 605.298474 57.013918 
L 610.881147 57.013918 
L 616.46382 57.013918 
L 622.046493 57.013918 
L 627.629166 57.013918 
L 633.211839 57.013918 
L 638.794513 57.013918 
L 644.377186 57.013918 
L 649.959859 57.013918 
" clip-path="url(#p1b1d751867)" style="fill: none; stroke: #000000; stroke-width: 3; stroke-linecap: square"/>
   </g>
   <g id="line2d_79">
    <path d="M 376.408876 316.6 
L 381.991549 316.6 
L 387.574222 316.599508 
L 393.156895 316.597572 
L 398.739568 316.13999 
L 404.322241 313.983693 
L 409.904915 309.042568 
L 415.487588 298.74374 
L 421.070261 280.508336 
L 426.652934 253.182729 
L 432.235607 220.961609 
L 437.81828 196.86576 
L 443.400953 196.212611 
L 448.983626 195.230925 
L 454.5663 193.509345 
L 460.148973 190.694781 
L 465.731646 186.263338 
L 471.314319 179.198004 
L 476.896992 167.412083 
L 482.479665 150.651599 
L 488.062338 128.928799 
L 493.645011 106.994157 
L 499.227685 87.070465 
L 504.810358 84.931886 
L 510.393031 84.931886 
L 515.975704 84.931886 
L 521.558377 84.931886 
L 527.14105 84.931886 
L 532.723723 84.931886 
L 538.306396 84.931886 
L 543.88907 57.013918 
L 549.471743 57.013918 
L 555.054416 57.013918 
L 560.637089 57.013918 
L 566.219762 57.013918 
L 571.802435 57.013918 
L 577.385108 57.013918 
L 582.967781 57.013918 
L 588.550454 57.013918 
L 594.133128 57.013918 
L 599.715801 57.013918 
L 605.298474 57.013918 
L 610.881147 57.013918 
L 616.46382 57.013918 
L 622.046493 57.013918 
L 627.629166 57.013918 
L 633.211839 57.013918 
L 638.794513 57.013918 
L 644.377186 57.013918 
L 649.959859 57.013918 
" clip-path="url(#p1b1d751867)" style="fill: none; stroke: #1f77b4; stroke-opacity: 0.8; stroke-width: 1.5; stroke-linecap: square"/>
   </g>
   <g id="line2d_80">
    <path d="M 376.408876 316.6 
L 381.991549 316.6 
L 387.574222 316.598873 
L 393.156895 316.595701 
L 398.739568 316.111793 
L 404.322241 313.803526 
L 409.904915 308.401249 
L 415.487588 297.465751 
L 421.070261 277.833093 
L 426.652934 248.34029 
L 432.235607 214.025806 
L 437.81828 188.32047 
L 443.400953 187.689003 
L 448.983626 186.596647 
L 454.5663 184.628894 
L 460.148973 181.590109 
L 465.731646 176.474352 
L 471.314319 168.814001 
L 476.896992 156.905081 
L 482.479665 139.117582 
L 488.062338 116.243845 
L 493.645011 89.99719 
L 499.227685 67.42066 
L 504.810358 65.27171 
L 510.393031 65.27171 
L 515.975704 65.27171 
L 521.558377 65.27171 
L 527.14105 65.27171 
L 532.723723 65.27171 
L 538.306396 65.27171 
L 543.88907 57.013918 
L 549.471743 57.013918 
L 555.054416 57.013918 
L 560.637089 57.013918 
L 566.219762 57.013918 
L 571.802435 57.013918 
L 577.385108 57.013918 
L 582.967781 57.013918 
L 588.550454 57.013918 
L 594.133128 57.013918 
L 599.715801 57.013918 
L 605.298474 57.013918 
L 610.881147 57.013918 
L 616.46382 57.013918 
L 622.046493 57.013918 
L 627.629166 57.013918 
L 633.211839 57.013918 
L 638.794513 57.013918 
L 644.377186 57.013918 
L 649.959859 57.013918 
" clip-path="url(#p1b1d751867)" style="fill: none; stroke: #ff7f0e; stroke-opacity: 0.8; stroke-width: 1.5; stroke-linecap: square"/>
   </g>
   <g id="line2d_81">
    <path d="M 376.408876 316.6 
L 381.991549 316.6 
L 387.574222 316.599367 
L 393.156895 316.595888 
L 398.739568 316.131485 
L 404.322241 313.895825 
L 409.904915 308.679922 
L 415.487588 297.973447 
L 421.070261 279.053791 
L 426.652934 250.381966 
L 432.235607 216.407944 
L 437.81828 190.984701 
L 443.400953 190.415309 
L 448.983626 189.213791 
L 454.5663 187.41666 
L 460.148973 184.24706 
L 465.731646 179.854109 
L 471.314319 172.335044 
L 476.896992 160.133946 
L 482.479665 142.971776 
L 488.062338 122.574642 
L 493.645011 96.914895 
L 499.227685 72.909166 
L 504.810358 70.675287 
L 510.393031 70.675287 
L 515.975704 70.675287 
L 521.558377 70.675287 
L 527.14105 70.675287 
L 532.723723 70.675287 
L 538.306396 70.675287 
L 543.88907 57.013918 
L 549.471743 57.013918 
L 555.054416 57.013918 
L 560.637089 57.013918 
L 566.219762 57.013918 
L 571.802435 57.013918 
L 577.385108 57.013918 
L 582.967781 57.013918 
L 588.550454 57.013918 
L 594.133128 57.013918 
L 599.715801 57.013918 
L 605.298474 57.013918 
L 610.881147 57.013918 
L 616.46382 57.013918 
L 622.046493 57.013918 
L 627.629166 57.013918 
L 633.211839 57.013918 
L 638.794513 57.013918 
L 644.377186 57.013918 
L 649.959859 57.013918 
" clip-path="url(#p1b1d751867)" style="fill: none; stroke: #2ca02c; stroke-opacity: 0.8; stroke-width: 1.5; stroke-linecap: square"/>
   </g>
   <g id="line2d_82">
    <path d="M 376.408876 316.6 
L 381.991549 316.6 
L 387.574222 316.6 
L 393.156895 316.596575 
L 398.739568 316.145752 
L 404.322241 313.997195 
L 409.904915 308.891951 
L 415.487588 298.433274 
L 421.070261 280.350044 
L 426.652934 252.450709 
L 432.235607 219.033291 
L 437.81828 194.948355 
L 443.400953 194.400926 
L 448.983626 193.453624 
L 454.5663 191.772607 
L 460.148973 188.938614 
L 465.731646 184.403863 
L 471.314319 177.871715 
L 476.896992 165.641095 
L 482.479665 149.335509 
L 488.062338 127.372521 
L 493.645011 105.434082 
L 499.227685 88.155382 
L 504.810358 86.703703 
L 510.393031 86.703703 
L 515.975704 86.703703 
L 521.558377 86.703703 
L 527.14105 86.703703 
L 532.723723 86.703703 
L 538.306396 86.703703 
L 543.88907 57.013918 
L 549.471743 57.013918 
L 555.054416 57.013918 
L 560.637089 57.013918 
L 566.219762 57.013918 
L 571.802435 57.013918 
L 577.385108 57.013918 
L 582.967781 57.013918 
L 588.550454 57.013918 
L 594.133128 57.013918 
L 599.715801 57.013918 
L 605.298474 57.013918 
L 610.881147 57.013918 
L 616.46382 57.013918 
L 622.046493 57.013918 
L 627.629166 57.013918 
L 633.211839 57.013918 
L 638.794513 57.013918 
L 644.377186 57.013918 
L 649.959859 57.013918 
" clip-path="url(#p1b1d751867)" style="fill: none; stroke: #d62728; stroke-opacity: 0.8; stroke-width: 1.5; stroke-linecap: square"/>
   </g>
   <g id="line2d_83">
    <path d="M 376.408876 316.6 
L 381.991549 316.6 
L 387.574222 316.6 
L 393.156895 316.597117 
L 398.739568 316.158707 
L 404.322241 313.927415 
L 409.904915 308.852185 
L 415.487588 298.475999 
L 421.070261 280.534208 
L 426.652934 252.346916 
L 432.235607 219.047172 
L 437.81828 195.061526 
L 443.400953 194.31904 
L 448.983626 193.304429 
L 454.5663 191.911361 
L 460.148973 188.678969 
L 465.731646 183.504307 
L 471.314319 178.267595 
L 476.896992 166.508207 
L 482.479665 147.811524 
L 488.062338 129.307368 
L 493.645011 106.95594 
L 499.227685 82.829411 
L 504.810358 81.392364 
L 510.393031 81.392364 
L 515.975704 81.392364 
L 521.558377 81.392364 
L 527.14105 81.392364 
L 532.723723 81.392364 
L 538.306396 81.392364 
L 543.88907 57.013918 
L 549.471743 57.013918 
L 555.054416 57.013918 
L 560.637089 57.013918 
L 566.219762 57.013918 
L 571.802435 57.013918 
L 577.385108 57.013918 
L 582.967781 57.013918 
L 588.550454 57.013918 
L 594.133128 57.013918 
L 599.715801 57.013918 
L 605.298474 57.013918 
L 610.881147 57.013918 
L 616.46382 57.013918 
L 622.046493 57.013918 
L 627.629166 57.013918 
L 633.211839 57.013918 
L 638.794513 57.013918 
L 644.377186 57.013918 
L 649.959859 57.013918 
" clip-path="url(#p1b1d751867)" style="fill: none; stroke: #9467bd; stroke-opacity: 0.8; stroke-width: 1.5; stroke-linecap: square"/>
   </g>
   <g id="line2d_84">
    <path d="M 376.408876 316.6 
L 381.991549 316.6 
L 387.574222 316.6 
L 393.156895 316.590693 
L 398.739568 316.181257 
L 404.322241 314.332281 
L 409.904915 309.43726 
L 415.487588 300.052848 
L 421.070261 283.716878 
L 426.652934 258.540572 
L 432.235607 227.440829 
L 437.81828 206.366348 
L 443.400953 205.604692 
L 448.983626 204.645838 
L 454.5663 202.413406 
L 460.148973 199.594708 
L 465.731646 195.677588 
L 471.314319 190.823484 
L 476.896992 181.719569 
L 482.479665 164.574908 
L 488.062338 148.928642 
L 493.645011 131.296108 
L 499.227685 103.893438 
L 504.810358 103.893438 
L 510.393031 103.893438 
L 515.975704 103.893438 
L 521.558377 103.893438 
L 527.14105 103.893438 
L 532.723723 103.893438 
L 538.306396 103.893438 
L 543.88907 57.013918 
L 549.471743 57.013918 
L 555.054416 57.013918 
L 560.637089 57.013918 
L 566.219762 57.013918 
L 571.802435 57.013918 
L 577.385108 57.013918 
L 582.967781 57.013918 
L 588.550454 57.013918 
L 594.133128 57.013918 
L 599.715801 57.013918 
L 605.298474 57.013918 
L 610.881147 57.013918 
L 616.46382 57.013918 
L 622.046493 57.013918 
L 627.629166 57.013918 
L 633.211839 57.013918 
L 638.794513 57.013918 
L 644.377186 57.013918 
L 649.959859 57.013918 
" clip-path="url(#p1b1d751867)" style="fill: none; stroke: #8c564b; stroke-opacity: 0.8; stroke-width: 1.5; stroke-linecap: square"/>
   </g>
   <g id="line2d_85">
    <path d="M 376.408876 316.6 
L 381.991549 316.6 
L 387.574222 316.6 
L 393.156895 316.6 
L 398.739568 316.12948 
L 404.322241 314.332402 
L 409.904915 310.206663 
L 415.487588 301.32217 
L 421.070261 287.222412 
L 426.652934 265.705746 
L 432.235607 239.845183 
L 437.81828 218.32671 
L 443.400953 218.152116 
L 448.983626 217.451983 
L 454.5663 214.930041 
L 460.148973 210.299536 
L 465.731646 207.441113 
L 471.314319 198.698393 
L 476.896992 188.090511 
L 482.479665 173.388537 
L 488.062338 161.374615 
L 493.645011 140.744105 
L 499.227685 120.350358 
L 504.810358 120.350358 
L 510.393031 120.350358 
L 515.975704 120.350358 
L 521.558377 120.350358 
L 527.14105 120.350358 
L 532.723723 120.350358 
L 538.306396 120.350358 
L 543.88907 57.013918 
L 549.471743 57.013918 
L 555.054416 57.013918 
L 560.637089 57.013918 
L 566.219762 57.013918 
L 571.802435 57.013918 
L 577.385108 57.013918 
L 582.967781 57.013918 
L 588.550454 57.013918 
L 594.133128 57.013918 
L 599.715801 57.013918 
L 605.298474 57.013918 
L 610.881147 57.013918 
L 616.46382 57.013918 
L 622.046493 57.013918 
L 627.629166 57.013918 
L 633.211839 57.013918 
L 638.794513 57.013918 
L 644.377186 57.013918 
L 649.959859 57.013918 
" clip-path="url(#p1b1d751867)" style="fill: none; stroke: #e377c2; stroke-opacity: 0.8; stroke-width: 1.5; stroke-linecap: square"/>
   </g>
   <g id="patch_3">
    <path d="M 55.55 316.6 
L 55.55 54.418057 
" style="fill: none; stroke: #000000; stroke-width: 0.8; stroke-linejoin: miter; stroke-linecap: square"/>
   </g>
   <g id="patch_4">
    <path d="M 709.2 316.6 
L 709.2 54.418057 
" style="fill: none; stroke: #000000; stroke-width: 0.8; stroke-linejoin: miter; stroke-linecap: square"/>
   </g>
   <g id="patch_5">
    <path d="M 55.55 316.6 
L 709.2 316.6 
" style="fill: none; stroke: #000000; stroke-width: 0.8; stroke-linejoin: miter; stroke-linecap: square"/>
   </g>
   <g id="patch_6">
    <path d="M 55.55 54.418057 
L 709.2 54.418057 
" style="fill: none; stroke: #000000; stroke-width: 0.8; stroke-linejoin: miter; stroke-linecap: square"/>
   </g>
   <g id="text_13">
    <!-- SILT -->
    <g transform="translate(133.205192 19.406548) scale(0.12 -0.12)">
     <defs>
      <path id="DejaVuSans-53" d="M 3425 4513 
L 3425 3897 
Q 3066 4069 2747 4153 
Q 2428 4238 2131 4238 
Q 1616 4238 1336 4038 
Q 1056 3838 1056 3469 
Q 1056 3159 1242 3001 
Q 1428 2844 1947 2747 
L 2328 2669 
Q 3034 2534 3370 2195 
Q 3706 1856 3706 1288 
Q 3706 609 3251 259 
Q 2797 -91 1919 -91 
Q 1588 -91 1214 -16 
Q 841 59 441 206 
L 441 856 
Q 825 641 1194 531 
Q 1563 422 1919 422 
Q 2459 422 2753 634 
Q 3047 847 3047 1241 
Q 3047 1584 2836 1778 
Q 2625 1972 2144 2069 
L 1759 2144 
Q 1053 2284 737 2584 
Q 422 2884 422 3419 
Q 422 4038 858 4394 
Q 1294 4750 2059 4750 
Q 2388 4750 2728 4690 
Q 3069 4631 3425 4513 
z
" transform="scale(0.015625)"/>
      <path id="DejaVuSans-49" d="M 628 4666 
L 1259 4666 
L 1259 0 
L 628 0 
L 628 4666 
z
" transform="scale(0.015625)"/>
      <path id="DejaVuSans-4c" d="M 628 4666 
L 1259 4666 
L 1259 531 
L 3531 531 
L 3531 0 
L 628 0 
L 628 4666 
z
" transform="scale(0.015625)"/>
      <path id="DejaVuSans-54" d="M -19 4666 
L 3928 4666 
L 3928 4134 
L 2272 4134 
L 2272 0 
L 1638 0 
L 1638 4134 
L -19 4134 
L -19 4666 
z
" transform="scale(0.015625)"/>
     </defs>
     <use xlink:href="#DejaVuSans-53"/>
     <use xlink:href="#DejaVuSans-49" x="63.476562"/>
     <use xlink:href="#DejaVuSans-4c" x="92.96875"/>
     <use xlink:href="#DejaVuSans-54" x="134.931641"/>
    </g>
   </g>
   <g id="text_14">
    <!-- fine -->
    <g transform="translate(76.484076 34.981713) scale(0.12 -0.12)">
     <defs>
      <path id="DejaVuSans-66" d="M 2375 4863 
L 2375 4384 
L 1825 4384 
Q 1516 4384 1395 4259 
Q 1275 4134 1275 3809 
L 1275 3500 
L 2222 3500 
L 2222 3053 
L 1275 3053 
L 1275 0 
L 697 0 
L 697 3053 
L 147 3053 
L 147 3500 
L 697 3500 
L 697 3744 
Q 697 4328 969 4595 
Q 1241 4863 1831 4863 
L 2375 4863 
z
" transform="scale(0.015625)"/>
     </defs>
     <use xlink:href="#DejaVuSans-66"/>
     <use xlink:href="#DejaVuSans-69" x="35.205078"/>
     <use xlink:href="#DejaVuSans-6e" x="62.988281"/>
     <use xlink:href="#DejaVuSans-65" x="126.367188"/>
    </g>
   </g>
   <g id="text_15">
    <!-- medium -->
    <g transform="translate(120.229882 34.981713) scale(0.12 -0.12)">
     <defs>
      <path id="DejaVuSans-64" d="M 2906 2969 
L 2906 4863 
L 3481 4863 
L 3481 0 
L 2906 0 
L 2906 525 
Q 2725 213 2448 61 
Q 2172 -91 1784 -91 
Q 1150 -91 751 415 
Q 353 922 353 1747 
Q 353 2572 751 3078 
Q 1150 3584 1784 3584 
Q 2172 3584 2448 3432 
Q 2725 3281 2906 2969 
z
M 947 1747 
Q 947 1113 1208 752 
Q 1469 391 1925 391 
Q 2381 391 2643 752 
Q 2906 1113 2906 1747 
Q 2906 2381 2643 2742 
Q 2381 3103 1925 3103 
Q 1469 3103 1208 2742 
Q 947 2381 947 1747 
z
" transform="scale(0.015625)"/>
      <path id="DejaVuSans-75" d="M 544 1381 
L 544 3500 
L 1119 3500 
L 1119 1403 
Q 1119 906 1312 657 
Q 1506 409 1894 409 
Q 2359 409 2629 706 
Q 2900 1003 2900 1516 
L 2900 3500 
L 3475 3500 
L 3475 0 
L 2900 0 
L 2900 538 
Q 2691 219 2414 64 
Q 2138 -91 1772 -91 
Q 1169 -91 856 284 
Q 544 659 544 1381 
z
M 1991 3584 
L 1991 3584 
z
" transform="scale(0.015625)"/>
     </defs>
     <use xlink:href="#DejaVuSans-6d"/>
     <use xlink:href="#DejaVuSans-65" x="97.412109"/>
     <use xlink:href="#DejaVuSans-64" x="158.935547"/>
     <use xlink:href="#DejaVuSans-69" x="222.412109"/>
     <use xlink:href="#DejaVuSans-75" x="250.195312"/>
     <use xlink:href="#DejaVuSans-6d" x="313.574219"/>
    </g>
   </g>
   <g id="text_16">
    <!-- coarse -->
    <g transform="translate(185.952825 34.981713) scale(0.12 -0.12)">
     <defs>
      <path id="DejaVuSans-6f" d="M 1959 3097 
Q 1497 3097 1228 2736 
Q 959 2375 959 1747 
Q 959 1119 1226 758 
Q 1494 397 1959 397 
Q 2419 397 2687 759 
Q 2956 1122 2956 1747 
Q 2956 2369 2687 2733 
Q 2419 3097 1959 3097 
z
M 1959 3584 
Q 2709 3584 3137 3096 
Q 3566 2609 3566 1747 
Q 3566 888 3137 398 
Q 2709 -91 1959 -91 
Q 1206 -91 779 398 
Q 353 888 353 1747 
Q 353 2609 779 3096 
Q 1206 3584 1959 3584 
z
" transform="scale(0.015625)"/>
     </defs>
     <use xlink:href="#DejaVuSans-63"/>
     <use xlink:href="#DejaVuSans-6f" x="54.980469"/>
     <use xlink:href="#DejaVuSans-61" x="116.162109"/>
     <use xlink:href="#DejaVuSans-72" x="177.441406"/>
     <use xlink:href="#DejaVuSans-73" x="218.554688"/>
     <use xlink:href="#DejaVuSans-65" x="270.654297"/>
    </g>
   </g>
   <g id="text_17">
    <!-- SAND -->
    <g transform="translate(304.834797 19.406548) scale(0.12 -0.12)">
     <defs>
      <path id="DejaVuSans-41" d="M 2188 4044 
L 1331 1722 
L 3047 1722 
L 2188 4044 
z
M 1831 4666 
L 2547 4666 
L 4325 0 
L 3669 0 
L 3244 1197 
L 1141 1197 
L 716 0 
L 50 0 
L 1831 4666 
z
" transform="scale(0.015625)"/>
      <path id="DejaVuSans-4e" d="M 628 4666 
L 1478 4666 
L 3547 763 
L 3547 4666 
L 4159 4666 
L 4159 0 
L 3309 0 
L 1241 3903 
L 1241 0 
L 628 0 
L 628 4666 
z
" transform="scale(0.015625)"/>
      <path id="DejaVuSans-44" d="M 1259 4147 
L 1259 519 
L 2022 519 
Q 2988 519 3436 956 
Q 3884 1394 3884 2338 
Q 3884 3275 3436 3711 
Q 2988 4147 2022 4147 
L 1259 4147 
z
M 628 4666 
L 1925 4666 
Q 3281 4666 3915 4102 
Q 4550 3538 4550 2338 
Q 4550 1131 3912 565 
Q 3275 0 1925 0 
L 628 0 
L 628 4666 
z
" transform="scale(0.015625)"/>
     </defs>
     <use xlink:href="#DejaVuSans-53"/>
     <use xlink:href="#DejaVuSans-41" x="65.351562"/>
     <use xlink:href="#DejaVuSans-4e" x="133.759766"/>
     <use xlink:href="#DejaVuSans-44" x="208.564453"/>
    </g>
   </g>
   <g id="text_18">
    <!-- fine -->
    <g transform="translate(257.526904 34.981713) scale(0.12 -0.12)">
     <use xlink:href="#DejaVuSans-66"/>
     <use xlink:href="#DejaVuSans-69" x="35.205078"/>
     <use xlink:href="#DejaVuSans-6e" x="62.988281"/>
     <use xlink:href="#DejaVuSans-65" x="126.367188"/>
    </g>
   </g>
   <g id="text_19">
    <!-- medium -->
    <g transform="translate(298.234788 34.981713) scale(0.12 -0.12)">
     <use xlink:href="#DejaVuSans-6d"/>
     <use xlink:href="#DejaVuSans-65" x="97.412109"/>
     <use xlink:href="#DejaVuSans-64" x="158.935547"/>
     <use xlink:href="#DejaVuSans-69" x="222.412109"/>
     <use xlink:href="#DejaVuSans-75" x="250.195312"/>
     <use xlink:href="#DejaVuSans-6d" x="313.574219"/>
    </g>
   </g>
   <g id="text_20">
    <!-- coarse -->
    <g transform="translate(357.993825 34.981713) scale(0.12 -0.12)">
     <use xlink:href="#DejaVuSans-63"/>
     <use xlink:href="#DejaVuSans-6f" x="54.980469"/>
     <use xlink:href="#DejaVuSans-61" x="116.162109"/>
     <use xlink:href="#DejaVuSans-72" x="177.441406"/>
     <use xlink:href="#DejaVuSans-73" x="218.554688"/>
     <use xlink:href="#DejaVuSans-65" x="270.654297"/>
    </g>
   </g>
   <g id="text_21">
    <!-- GRAVEL -->
    <g transform="translate(476.875797 19.406548) scale(0.12 -0.12)">
     <defs>
      <path id="DejaVuSans-47" d="M 3809 666 
L 3809 1919 
L 2778 1919 
L 2778 2438 
L 4434 2438 
L 4434 434 
Q 4069 175 3628 42 
Q 3188 -91 2688 -91 
Q 1594 -91 976 548 
Q 359 1188 359 2328 
Q 359 3472 976 4111 
Q 1594 4750 2688 4750 
Q 3144 4750 3555 4637 
Q 3966 4525 4313 4306 
L 4313 3634 
Q 3963 3931 3569 4081 
Q 3175 4231 2741 4231 
Q 1884 4231 1454 3753 
Q 1025 3275 1025 2328 
Q 1025 1384 1454 906 
Q 1884 428 2741 428 
Q 3075 428 3337 486 
Q 3600 544 3809 666 
z
" transform="scale(0.015625)"/>
      <path id="DejaVuSans-52" d="M 2841 2188 
Q 3044 2119 3236 1894 
Q 3428 1669 3622 1275 
L 4263 0 
L 3584 0 
L 2988 1197 
Q 2756 1666 2539 1819 
Q 2322 1972 1947 1972 
L 1259 1972 
L 1259 0 
L 628 0 
L 628 4666 
L 2053 4666 
Q 2853 4666 3247 4331 
Q 3641 3997 3641 3322 
Q 3641 2881 3436 2590 
Q 3231 2300 2841 2188 
z
M 1259 4147 
L 1259 2491 
L 2053 2491 
Q 2509 2491 2742 2702 
Q 2975 2913 2975 3322 
Q 2975 3731 2742 3939 
Q 2509 4147 2053 4147 
L 1259 4147 
z
" transform="scale(0.015625)"/>
      <path id="DejaVuSans-56" d="M 1831 0 
L 50 4666 
L 709 4666 
L 2188 738 
L 3669 4666 
L 4325 4666 
L 2547 0 
L 1831 0 
z
" transform="scale(0.015625)"/>
      <path id="DejaVuSans-45" d="M 628 4666 
L 3578 4666 
L 3578 4134 
L 1259 4134 
L 1259 2753 
L 3481 2753 
L 3481 2222 
L 1259 2222 
L 1259 531 
L 3634 531 
L 3634 0 
L 628 0 
L 628 4666 
z
" transform="scale(0.015625)"/>
     </defs>
     <use xlink:href="#DejaVuSans-47"/>
     <use xlink:href="#DejaVuSans-52" x="77.490234"/>
     <use xlink:href="#DejaVuSans-41" x="142.972656"/>
     <use xlink:href="#DejaVuSans-56" x="205.005859"/>
     <use xlink:href="#DejaVuSans-45" x="273.414062"/>
     <use xlink:href="#DejaVuSans-4c" x="336.597656"/>
    </g>
   </g>
   <g id="text_22">
    <!-- fine -->
    <g transform="translate(433.129991 34.981713) scale(0.12 -0.12)">
     <use xlink:href="#DejaVuSans-66"/>
     <use xlink:href="#DejaVuSans-69" x="35.205078"/>
     <use xlink:href="#DejaVuSans-6e" x="62.988281"/>
     <use xlink:href="#DejaVuSans-65" x="126.367188"/>
    </g>
   </g>
   <g id="text_23">
    <!-- medium -->
    <g transform="translate(477.608147 34.981713) scale(0.12 -0.12)">
     <use xlink:href="#DejaVuSans-6d"/>
     <use xlink:href="#DejaVuSans-65" x="97.412109"/>
     <use xlink:href="#DejaVuSans-64" x="158.935547"/>
     <use xlink:href="#DejaVuSans-69" x="222.412109"/>
     <use xlink:href="#DejaVuSans-75" x="250.195312"/>
     <use xlink:href="#DejaVuSans-6d" x="313.574219"/>
    </g>
   </g>
   <g id="text_24">
    <!-- coarse -->
    <g transform="translate(542.59874 34.981713) scale(0.12 -0.12)">
     <use xlink:href="#DejaVuSans-63"/>
     <use xlink:href="#DejaVuSans-6f" x="54.980469"/>
     <use xlink:href="#DejaVuSans-61" x="116.162109"/>
     <use xlink:href="#DejaVuSans-72" x="177.441406"/>
     <use xlink:href="#DejaVuSans-73" x="218.554688"/>
     <use xlink:href="#DejaVuSans-65" x="270.654297"/>
    </g>
   </g>
   <g id="text_25">
    <!-- COBBEL -->
    <g transform="translate(595.757769 27.194131) scale(0.12 -0.12)">
     <defs>
      <path id="DejaVuSans-43" d="M 4122 4306 
L 4122 3641 
Q 3803 3938 3442 4084 
Q 3081 4231 2675 4231 
Q 1875 4231 1450 3742 
Q 1025 3253 1025 2328 
Q 1025 1406 1450 917 
Q 1875 428 2675 428 
Q 3081 428 3442 575 
Q 3803 722 4122 1019 
L 4122 359 
Q 3791 134 3420 21 
Q 3050 -91 2638 -91 
Q 1578 -91 968 557 
Q 359 1206 359 2328 
Q 359 3453 968 4101 
Q 1578 4750 2638 4750 
Q 3056 4750 3426 4639 
Q 3797 4528 4122 4306 
z
" transform="scale(0.015625)"/>
      <path id="DejaVuSans-4f" d="M 2522 4238 
Q 1834 4238 1429 3725 
Q 1025 3213 1025 2328 
Q 1025 1447 1429 934 
Q 1834 422 2522 422 
Q 3209 422 3611 934 
Q 4013 1447 4013 2328 
Q 4013 3213 3611 3725 
Q 3209 4238 2522 4238 
z
M 2522 4750 
Q 3503 4750 4090 4092 
Q 4678 3434 4678 2328 
Q 4678 1225 4090 567 
Q 3503 -91 2522 -91 
Q 1538 -91 948 565 
Q 359 1222 359 2328 
Q 359 3434 948 4092 
Q 1538 4750 2522 4750 
z
" transform="scale(0.015625)"/>
      <path id="DejaVuSans-42" d="M 1259 2228 
L 1259 519 
L 2272 519 
Q 2781 519 3026 730 
Q 3272 941 3272 1375 
Q 3272 1813 3026 2020 
Q 2781 2228 2272 2228 
L 1259 2228 
z
M 1259 4147 
L 1259 2741 
L 2194 2741 
Q 2656 2741 2882 2914 
Q 3109 3088 3109 3444 
Q 3109 3797 2882 3972 
Q 2656 4147 2194 4147 
L 1259 4147 
z
M 628 4666 
L 2241 4666 
Q 2963 4666 3353 4366 
Q 3744 4066 3744 3513 
Q 3744 3084 3544 2831 
Q 3344 2578 2956 2516 
Q 3422 2416 3680 2098 
Q 3938 1781 3938 1306 
Q 3938 681 3513 340 
Q 3088 0 2303 0 
L 628 0 
L 628 4666 
z
" transform="scale(0.015625)"/>
     </defs>
     <use xlink:href="#DejaVuSans-43"/>
     <use xlink:href="#DejaVuSans-4f" x="69.824219"/>
     <use xlink:href="#DejaVuSans-42" x="148.535156"/>
     <use xlink:href="#DejaVuSans-42" x="217.138672"/>
     <use xlink:href="#DejaVuSans-45" x="285.742188"/>
     <use xlink:href="#DejaVuSans-4c" x="348.925781"/>
    </g>
   </g>
   <g id="text_26">
    <!-- BLOCKS -->
    <g transform="translate(654.880703 27.194131) scale(0.12 -0.12)">
     <defs>
      <path id="DejaVuSans-4b" d="M 628 4666 
L 1259 4666 
L 1259 2694 
L 3353 4666 
L 4166 4666 
L 1850 2491 
L 4331 0 
L 3500 0 
L 1259 2247 
L 1259 0 
L 628 0 
L 628 4666 
z
" transform="scale(0.015625)"/>
     </defs>
     <use xlink:href="#DejaVuSans-42"/>
     <use xlink:href="#DejaVuSans-4c" x="68.603516"/>
     <use xlink:href="#DejaVuSans-4f" x="120.691406"/>
     <use xlink:href="#DejaVuSans-43" x="199.402344"/>
     <use xlink:href="#DejaVuSans-4b" x="269.226562"/>
     <use xlink:href="#DejaVuSans-53" x="334.802734"/>
    </g>
   </g>
   <g id="text_27">
    <!-- ISO Standard sieves: -->
    <g transform="translate(102.857893 51.040439) scale(0.1 -0.1)">
     <defs>
      <path id="DejaVuSans-76" d="M 191 3500 
L 800 3500 
L 1894 563 
L 2988 3500 
L 3597 3500 
L 2284 0 
L 1503 0 
L 191 3500 
z
" transform="scale(0.015625)"/>
      <path id="DejaVuSans-3a" d="M 750 794 
L 1409 794 
L 1409 0 
L 750 0 
L 750 794 
z
M 750 3309 
L 1409 3309 
L 1409 2516 
L 750 2516 
L 750 3309 
z
" transform="scale(0.015625)"/>
     </defs>
     <use xlink:href="#DejaVuSans-49"/>
     <use xlink:href="#DejaVuSans-53" x="29.492188"/>
     <use xlink:href="#DejaVuSans-4f" x="92.96875"/>
     <use xlink:href="#DejaVuSans-20" x="171.679688"/>
     <use xlink:href="#DejaVuSans-53" x="203.466797"/>
     <use xlink:href="#DejaVuSans-74" x="266.943359"/>
     <use xlink:href="#DejaVuSans-61" x="306.152344"/>
     <use xlink:href="#DejaVuSans-6e" x="367.431641"/>
     <use xlink:href="#DejaVuSans-64" x="430.810547"/>
     <use xlink:href="#DejaVuSans-61" x="494.287109"/>
     <use xlink:href="#DejaVuSans-72" x="555.566406"/>
     <use xlink:href="#DejaVuSans-64" x="594.929688"/>
     <use xlink:href="#DejaVuSans-20" x="658.40625"/>
     <use xlink:href="#DejaVuSans-73" x="690.193359"/>
     <use xlink:href="#DejaVuSans-69" x="742.292969"/>
     <use xlink:href="#DejaVuSans-65" x="770.076172"/>
     <use xlink:href="#DejaVuSans-76" x="831.599609"/>
     <use xlink:href="#DejaVuSans-65" x="890.779297"/>
     <use xlink:href="#DejaVuSans-73" x="952.302734"/>
     <use xlink:href="#DejaVuSans-3a" x="1004.402344"/>
    </g>
   </g>
   <g id="text_28">
    <!-- .063 -->
    <g transform="translate(222.5393 51.040439) scale(0.1 -0.1)">
     <use xlink:href="#DejaVuSans-2e"/>
     <use xlink:href="#DejaVuSans-30" x="31.787109"/>
     <use xlink:href="#DejaVuSans-36" x="95.410156"/>
     <use xlink:href="#DejaVuSans-33" x="159.033203"/>
    </g>
   </g>
   <g id="text_29">
    <!-- .125 -->
    <g transform="translate(257.914945 51.040439) scale(0.1 -0.1)">
     <defs>
      <path id="DejaVuSans-35" d="M 691 4666 
L 3169 4666 
L 3169 4134 
L 1269 4134 
L 1269 2991 
Q 1406 3038 1543 3061 
Q 1681 3084 1819 3084 
Q 2600 3084 3056 2656 
Q 3513 2228 3513 1497 
Q 3513 744 3044 326 
Q 2575 -91 1722 -91 
Q 1428 -91 1123 -41 
Q 819 9 494 109 
L 494 744 
Q 775 591 1075 516 
Q 1375 441 1709 441 
Q 2250 441 2565 725 
Q 2881 1009 2881 1497 
Q 2881 1984 2565 2268 
Q 2250 2553 1709 2553 
Q 1456 2553 1204 2497 
Q 953 2441 691 2322 
L 691 4666 
z
" transform="scale(0.015625)"/>
     </defs>
     <use xlink:href="#DejaVuSans-2e"/>
     <use xlink:href="#DejaVuSans-31" x="31.787109"/>
     <use xlink:href="#DejaVuSans-32" x="95.410156"/>
     <use xlink:href="#DejaVuSans-35" x="159.033203"/>
    </g>
   </g>
   <g id="text_30">
    <!-- .25 -->
    <g transform="translate(296.883234 51.040439) scale(0.1 -0.1)">
     <use xlink:href="#DejaVuSans-2e"/>
     <use xlink:href="#DejaVuSans-32" x="31.787109"/>
     <use xlink:href="#DejaVuSans-35" x="95.410156"/>
    </g>
   </g>
   <g id="text_31">
    <!-- .5 -->
    <g transform="translate(335.851524 51.040439) scale(0.1 -0.1)">
     <use xlink:href="#DejaVuSans-2e"/>
     <use xlink:href="#DejaVuSans-35" x="31.787109"/>
    </g>
   </g>
   <g id="text_32">
    <!-- 1 -->
    <g transform="translate(373.227626 51.040439) scale(0.1 -0.1)">
     <use xlink:href="#DejaVuSans-31"/>
    </g>
   </g>
   <g id="text_33">
    <!-- 2 -->
    <g transform="translate(409.014665 51.040439) scale(0.1 -0.1)">
     <use xlink:href="#DejaVuSans-32"/>
    </g>
   </g>
   <g id="text_34">
    <!-- 4 -->
    <g transform="translate(444.801705 51.040439) scale(0.1 -0.1)">
     <use xlink:href="#DejaVuSans-34"/>
    </g>
   </g>
   <g id="text_35">
    <!-- 8 -->
    <g transform="translate(480.588744 51.040439) scale(0.1 -0.1)">
     <use xlink:href="#DejaVuSans-38"/>
    </g>
   </g>
   <g id="text_36">
    <!-- 16 -->
    <g transform="translate(513.194534 51.040439) scale(0.1 -0.1)">
     <use xlink:href="#DejaVuSans-31"/>
     <use xlink:href="#DejaVuSans-36" x="63.623047"/>
    </g>
   </g>
   <g id="text_37">
    <!-- 31.5 -->
    <g transform="translate(543.398176 51.040439) scale(0.1 -0.1)">
     <use xlink:href="#DejaVuSans-33"/>
     <use xlink:href="#DejaVuSans-31" x="63.623047"/>
     <use xlink:href="#DejaVuSans-2e" x="127.246094"/>
     <use xlink:href="#DejaVuSans-35" x="159.033203"/>
    </g>
   </g>
   <g id="text_38">
    <!-- 45 -->
    <g transform="translate(566.583539 51.040439) scale(0.1 -0.1)">
     <use xlink:href="#DejaVuSans-34"/>
     <use xlink:href="#DejaVuSans-35" x="63.623047"/>
    </g>
   </g>
   <g id="text_39">
    <!-- 63 -->
    <g transform="translate(583.955528 51.040439) scale(0.1 -0.1)">
     <use xlink:href="#DejaVuSans-36"/>
     <use xlink:href="#DejaVuSans-33" x="63.623047"/>
    </g>
   </g>
   <g id="text_40">
    <!-- 90 -->
    <g transform="translate(602.370579 51.040439) scale(0.1 -0.1)">
     <defs>
      <path id="DejaVuSans-39" d="M 703 97 
L 703 672 
Q 941 559 1184 500 
Q 1428 441 1663 441 
Q 2288 441 2617 861 
Q 2947 1281 2994 2138 
Q 2813 1869 2534 1725 
Q 2256 1581 1919 1581 
Q 1219 1581 811 2004 
Q 403 2428 403 3163 
Q 403 3881 828 4315 
Q 1253 4750 1959 4750 
Q 2769 4750 3195 4129 
Q 3622 3509 3622 2328 
Q 3622 1225 3098 567 
Q 2575 -91 1691 -91 
Q 1453 -91 1209 -44 
Q 966 3 703 97 
z
M 1959 2075 
Q 2384 2075 2632 2365 
Q 2881 2656 2881 3163 
Q 2881 3666 2632 3958 
Q 2384 4250 1959 4250 
Q 1534 4250 1286 3958 
Q 1038 3666 1038 3163 
Q 1038 2656 1286 2365 
Q 1534 2075 1959 2075 
z
" transform="scale(0.015625)"/>
     </defs>
     <use xlink:href="#DejaVuSans-39"/>
     <use xlink:href="#DejaVuSans-30" x="63.623047"/>
    </g>
   </g>
   <g id="legend_1">
    <g id="patch_7">
     <path d="M 63.95 205.111807 
L 260.27 205.111807 
Q 262.67 205.111807 262.67 202.711807 
L 262.67 62.818057 
Q 262.67 60.418057 260.27 60.418057 
L 63.95 60.418057 
Q 61.55 60.418057 61.55 62.818057 
L 61.55 202.711807 
Q 61.55 205.111807 63.95 205.111807 
z
" style="fill: #ffffff; opacity: 0.8; stroke: #cccccc; stroke-linejoin: miter"/>
    </g>
    <g id="line2d_86">
     <path d="M 66.35 70.136182 
L 78.35 70.136182 
L 90.35 70.136182 
" style="fill: none; stroke: #000000; stroke-width: 3; stroke-linecap: square"/>
    </g>
    <g id="text_41">
     <!-- soil -->
     <g transform="translate(99.95 74.336182) scale(0.12 -0.12)">
      <defs>
       <path id="DejaVuSans-6c" d="M 603 4863 
L 1178 4863 
L 1178 0 
L 603 0 
L 603 4863 
z
" transform="scale(0.015625)"/>
      </defs>
      <use xlink:href="#DejaVuSans-73"/>
      <use xlink:href="#DejaVuSans-6f" x="52.099609"/>
      <use xlink:href="#DejaVuSans-69" x="113.28125"/>
      <use xlink:href="#DejaVuSans-6c" x="141.064453"/>
     </g>
    </g>
    <g id="line2d_87">
     <path d="M 66.35 87.751807 
L 78.35 87.751807 
L 90.35 87.751807 
" style="fill: none; stroke: #1f77b4; stroke-opacity: 0.8; stroke-width: 1.5; stroke-linecap: square"/>
    </g>
    <g id="text_42">
     <!-- sample 6.4 kg  $KS$: 2.0 % -->
     <g transform="translate(99.95 91.951807) scale(0.12 -0.12)">
      <defs>
       <path id="DejaVuSans-6b" d="M 581 4863 
L 1159 4863 
L 1159 1991 
L 2875 3500 
L 3609 3500 
L 1753 1863 
L 3688 0 
L 2938 0 
L 1159 1709 
L 1159 0 
L 581 0 
L 581 4863 
z
" transform="scale(0.015625)"/>
       <path id="DejaVuSans-Oblique-4b" d="M 1081 4666 
L 1716 4666 
L 1331 2700 
L 3781 4666 
L 4622 4666 
L 1850 2438 
L 3878 0 
L 3109 0 
L 1247 2272 
L 806 0 
L 172 0 
L 1081 4666 
z
" transform="scale(0.015625)"/>
       <path id="DejaVuSans-Oblique-53" d="M 3859 4513 
L 3738 3897 
Q 3422 4066 3111 4152 
Q 2800 4238 2509 4238 
Q 1944 4238 1609 3991 
Q 1275 3744 1275 3334 
Q 1275 3109 1398 2989 
Q 1522 2869 2034 2731 
L 2413 2638 
Q 3053 2472 3303 2217 
Q 3553 1963 3553 1503 
Q 3553 797 2998 353 
Q 2444 -91 1538 -91 
Q 1166 -91 791 -17 
Q 416 56 38 206 
L 166 856 
Q 513 641 861 531 
Q 1209 422 1556 422 
Q 2147 422 2503 684 
Q 2859 947 2859 1369 
Q 2859 1650 2717 1795 
Q 2575 1941 2106 2059 
L 1728 2156 
Q 1081 2325 845 2545 
Q 609 2766 609 3163 
Q 609 3859 1145 4304 
Q 1681 4750 2541 4750 
Q 2875 4750 3203 4690 
Q 3531 4631 3859 4513 
z
" transform="scale(0.015625)"/>
      </defs>
      <use xlink:href="#DejaVuSans-73" transform="translate(0 0.015625)"/>
      <use xlink:href="#DejaVuSans-61" transform="translate(52.099609 0.015625)"/>
      <use xlink:href="#DejaVuSans-6d" transform="translate(113.378906 0.015625)"/>
      <use xlink:href="#DejaVuSans-70" transform="translate(210.791016 0.015625)"/>
      <use xlink:href="#DejaVuSans-6c" transform="translate(274.267578 0.015625)"/>
      <use xlink:href="#DejaVuSans-65" transform="translate(302.050781 0.015625)"/>
      <use xlink:href="#DejaVuSans-20" transform="translate(363.574219 0.015625)"/>
      <use xlink:href="#DejaVuSans-36" transform="translate(395.361328 0.015625)"/>
      <use xlink:href="#DejaVuSans-2e" transform="translate(458.984375 0.015625)"/>
      <use xlink:href="#DejaVuSans-34" transform="translate(490.771484 0.015625)"/>
      <use xlink:href="#DejaVuSans-20" transform="translate(554.394531 0.015625)"/>
      <use xlink:href="#DejaVuSans-6b" transform="translate(586.181641 0.015625)"/>
      <use xlink:href="#DejaVuSans-67" transform="translate(644.091797 0.015625)"/>
      <use xlink:href="#DejaVuSans-20" transform="translate(707.568359 0.015625)"/>
      <use xlink:href="#DejaVuSans-20" transform="translate(739.355469 0.015625)"/>
      <use xlink:href="#DejaVuSans-Oblique-4b" transform="translate(771.142578 0.015625)"/>
      <use xlink:href="#DejaVuSans-Oblique-53" transform="translate(836.71875 0.015625)"/>
      <use xlink:href="#DejaVuSans-3a" transform="translate(900.195312 0.015625)"/>
      <use xlink:href="#DejaVuSans-20" transform="translate(933.886719 0.015625)"/>
      <use xlink:href="#DejaVuSans-32" transform="translate(965.673828 0.015625)"/>
      <use xlink:href="#DejaVuSans-2e" transform="translate(1029.296875 0.015625)"/>
      <use xlink:href="#DejaVuSans-30" transform="translate(1061.083984 0.015625)"/>
      <use xlink:href="#DejaVuSans-20" transform="translate(1124.707031 0.015625)"/>
      <use xlink:href="#DejaVuSans-25" transform="translate(1156.494141 0.015625)"/>
     </g>
    </g>
    <g id="line2d_88">
     <path d="M 66.35 105.391807 
L 78.35 105.391807 
L 90.35 105.391807 
" style="fill: none; stroke: #ff7f0e; stroke-opacity: 0.8; stroke-width: 1.5; stroke-linecap: square"/>
    </g>
    <g id="text_43">
     <!-- sample 4.8 kg  $KS$: 5.8 % -->
     <g transform="translate(99.95 109.591807) scale(0.12 -0.12)">
      <use xlink:href="#DejaVuSans-73" transform="translate(0 0.015625)"/>
      <use xlink:href="#DejaVuSans-61" transform="translate(52.099609 0.015625)"/>
      <use xlink:href="#DejaVuSans-6d" transform="translate(113.378906 0.015625)"/>
      <use xlink:href="#DejaVuSans-70" transform="translate(210.791016 0.015625)"/>
      <use xlink:href="#DejaVuSans-6c" transform="translate(274.267578 0.015625)"/>
      <use xlink:href="#DejaVuSans-65" transform="translate(302.050781 0.015625)"/>
      <use xlink:href="#DejaVuSans-20" transform="translate(363.574219 0.015625)"/>
      <use xlink:href="#DejaVuSans-34" transform="translate(395.361328 0.015625)"/>
      <use xlink:href="#DejaVuSans-2e" transform="translate(458.984375 0.015625)"/>
      <use xlink:href="#DejaVuSans-38" transform="translate(488.146484 0.015625)"/>
      <use xlink:href="#DejaVuSans-20" transform="translate(551.769531 0.015625)"/>
      <use xlink:href="#DejaVuSans-6b" transform="translate(583.556641 0.015625)"/>
      <use xlink:href="#DejaVuSans-67" transform="translate(641.466797 0.015625)"/>
      <use xlink:href="#DejaVuSans-20" transform="translate(704.943359 0.015625)"/>
      <use xlink:href="#DejaVuSans-20" transform="translate(736.730469 0.015625)"/>
      <use xlink:href="#DejaVuSans-Oblique-4b" transform="translate(768.517578 0.015625)"/>
      <use xlink:href="#DejaVuSans-Oblique-53" transform="translate(834.09375 0.015625)"/>
      <use xlink:href="#DejaVuSans-3a" transform="translate(897.570312 0.015625)"/>
      <use xlink:href="#DejaVuSans-20" transform="translate(931.261719 0.015625)"/>
      <use xlink:href="#DejaVuSans-35" transform="translate(963.048828 0.015625)"/>
      <use xlink:href="#DejaVuSans-2e" transform="translate(1026.671875 0.015625)"/>
      <use xlink:href="#DejaVuSans-38" transform="translate(1055.833984 0.015625)"/>
      <use xlink:href="#DejaVuSans-20" transform="translate(1119.457031 0.015625)"/>
      <use xlink:href="#DejaVuSans-25" transform="translate(1151.244141 0.015625)"/>
     </g>
    </g>
    <g id="line2d_89">
     <path d="M 66.35 123.031807 
L 78.35 123.031807 
L 90.35 123.031807 
" style="fill: none; stroke: #2ca02c; stroke-opacity: 0.8; stroke-width: 1.5; stroke-linecap: square"/>
    </g>
    <g id="text_44">
     <!-- sample 3.2 kg  $KS$: 3.7 % -->
     <g transform="translate(99.95 127.231807) scale(0.12 -0.12)">
      <defs>
       <path id="DejaVuSans-37" d="M 525 4666 
L 3525 4666 
L 3525 4397 
L 1831 0 
L 1172 0 
L 2766 4134 
L 525 4134 
L 525 4666 
z
" transform="scale(0.015625)"/>
      </defs>
      <use xlink:href="#DejaVuSans-73" transform="translate(0 0.015625)"/>
      <use xlink:href="#DejaVuSans-61" transform="translate(52.099609 0.015625)"/>
      <use xlink:href="#DejaVuSans-6d" transform="translate(113.378906 0.015625)"/>
      <use xlink:href="#DejaVuSans-70" transform="translate(210.791016 0.015625)"/>
      <use xlink:href="#DejaVuSans-6c" transform="translate(274.267578 0.015625)"/>
      <use xlink:href="#DejaVuSans-65" transform="translate(302.050781 0.015625)"/>
      <use xlink:href="#DejaVuSans-20" transform="translate(363.574219 0.015625)"/>
      <use xlink:href="#DejaVuSans-33" transform="translate(395.361328 0.015625)"/>
      <use xlink:href="#DejaVuSans-2e" transform="translate(458.984375 0.015625)"/>
      <use xlink:href="#DejaVuSans-32" transform="translate(485.271484 0.015625)"/>
      <use xlink:href="#DejaVuSans-20" transform="translate(548.894531 0.015625)"/>
      <use xlink:href="#DejaVuSans-6b" transform="translate(580.681641 0.015625)"/>
      <use xlink:href="#DejaVuSans-67" transform="translate(638.591797 0.015625)"/>
      <use xlink:href="#DejaVuSans-20" transform="translate(702.068359 0.015625)"/>
      <use xlink:href="#DejaVuSans-20" transform="translate(733.855469 0.015625)"/>
      <use xlink:href="#DejaVuSans-Oblique-4b" transform="translate(765.642578 0.015625)"/>
      <use xlink:href="#DejaVuSans-Oblique-53" transform="translate(831.21875 0.015625)"/>
      <use xlink:href="#DejaVuSans-3a" transform="translate(894.695312 0.015625)"/>
      <use xlink:href="#DejaVuSans-20" transform="translate(928.386719 0.015625)"/>
      <use xlink:href="#DejaVuSans-33" transform="translate(960.173828 0.015625)"/>
      <use xlink:href="#DejaVuSans-2e" transform="translate(1023.796875 0.015625)"/>
      <use xlink:href="#DejaVuSans-37" transform="translate(1047.833984 0.015625)"/>
      <use xlink:href="#DejaVuSans-20" transform="translate(1111.457031 0.015625)"/>
      <use xlink:href="#DejaVuSans-25" transform="translate(1143.244141 0.015625)"/>
     </g>
    </g>
    <g id="line2d_90">
     <path d="M 66.35 140.671807 
L 78.35 140.671807 
L 90.35 140.671807 
" style="fill: none; stroke: #d62728; stroke-opacity: 0.8; stroke-width: 1.5; stroke-linecap: square"/>
    </g>
    <g id="text_45">
     <!-- sample 1.6 kg  $KS$: 2.4 % -->
     <g transform="translate(99.95 144.871807) scale(0.12 -0.12)">
      <use xlink:href="#DejaVuSans-73" transform="translate(0 0.015625)"/>
      <use xlink:href="#DejaVuSans-61" transform="translate(52.099609 0.015625)"/>
      <use xlink:href="#DejaVuSans-6d" transform="translate(113.378906 0.015625)"/>
      <use xlink:href="#DejaVuSans-70" transform="translate(210.791016 0.015625)"/>
      <use xlink:href="#DejaVuSans-6c" transform="translate(274.267578 0.015625)"/>
      <use xlink:href="#DejaVuSans-65" transform="translate(302.050781 0.015625)"/>
      <use xlink:href="#DejaVuSans-20" transform="translate(363.574219 0.015625)"/>
      <use xlink:href="#DejaVuSans-31" transform="translate(395.361328 0.015625)"/>
      <use xlink:href="#DejaVuSans-2e" transform="translate(458.984375 0.015625)"/>
      <use xlink:href="#DejaVuSans-36" transform="translate(490.771484 0.015625)"/>
      <use xlink:href="#DejaVuSans-20" transform="translate(554.394531 0.015625)"/>
      <use xlink:href="#DejaVuSans-6b" transform="translate(586.181641 0.015625)"/>
      <use xlink:href="#DejaVuSans-67" transform="translate(644.091797 0.015625)"/>
      <use xlink:href="#DejaVuSans-20" transform="translate(707.568359 0.015625)"/>
      <use xlink:href="#DejaVuSans-20" transform="translate(739.355469 0.015625)"/>
      <use xlink:href="#DejaVuSans-Oblique-4b" transform="translate(771.142578 0.015625)"/>
      <use xlink:href="#DejaVuSans-Oblique-53" transform="translate(836.71875 0.015625)"/>
      <use xlink:href="#DejaVuSans-3a" transform="translate(900.195312 0.015625)"/>
      <use xlink:href="#DejaVuSans-20" transform="translate(933.886719 0.015625)"/>
      <use xlink:href="#DejaVuSans-32" transform="translate(965.673828 0.015625)"/>
      <use xlink:href="#DejaVuSans-2e" transform="translate(1029.296875 0.015625)"/>
      <use xlink:href="#DejaVuSans-34" transform="translate(1061.083984 0.015625)"/>
      <use xlink:href="#DejaVuSans-20" transform="translate(1124.707031 0.015625)"/>
      <use xlink:href="#DejaVuSans-25" transform="translate(1156.494141 0.015625)"/>
     </g>
    </g>
    <g id="line2d_91">
     <path d="M 66.35 158.311807 
L 78.35 158.311807 
L 90.35 158.311807 
" style="fill: none; stroke: #9467bd; stroke-opacity: 0.8; stroke-width: 1.5; stroke-linecap: square"/>
    </g>
    <g id="text_46">
     <!-- sample 0.6 kg  $KS$: 1.3 % -->
     <g transform="translate(99.95 162.511807) scale(0.12 -0.12)">
      <use xlink:href="#DejaVuSans-73" transform="translate(0 0.015625)"/>
      <use xlink:href="#DejaVuSans-61" transform="translate(52.099609 0.015625)"/>
      <use xlink:href="#DejaVuSans-6d" transform="translate(113.378906 0.015625)"/>
      <use xlink:href="#DejaVuSans-70" transform="translate(210.791016 0.015625)"/>
      <use xlink:href="#DejaVuSans-6c" transform="translate(274.267578 0.015625)"/>
      <use xlink:href="#DejaVuSans-65" transform="translate(302.050781 0.015625)"/>
      <use xlink:href="#DejaVuSans-20" transform="translate(363.574219 0.015625)"/>
      <use xlink:href="#DejaVuSans-30" transform="translate(395.361328 0.015625)"/>
      <use xlink:href="#DejaVuSans-2e" transform="translate(458.984375 0.015625)"/>
      <use xlink:href="#DejaVuSans-36" transform="translate(490.771484 0.015625)"/>
      <use xlink:href="#DejaVuSans-20" transform="translate(554.394531 0.015625)"/>
      <use xlink:href="#DejaVuSans-6b" transform="translate(586.181641 0.015625)"/>
      <use xlink:href="#DejaVuSans-67" transform="translate(644.091797 0.015625)"/>
      <use xlink:href="#DejaVuSans-20" transform="translate(707.568359 0.015625)"/>
      <use xlink:href="#DejaVuSans-20" transform="translate(739.355469 0.015625)"/>
      <use xlink:href="#DejaVuSans-Oblique-4b" transform="translate(771.142578 0.015625)"/>
      <use xlink:href="#DejaVuSans-Oblique-53" transform="translate(836.71875 0.015625)"/>
      <use xlink:href="#DejaVuSans-3a" transform="translate(900.195312 0.015625)"/>
      <use xlink:href="#DejaVuSans-20" transform="translate(933.886719 0.015625)"/>
      <use xlink:href="#DejaVuSans-31" transform="translate(965.673828 0.015625)"/>
      <use xlink:href="#DejaVuSans-2e" transform="translate(1029.296875 0.015625)"/>
      <use xlink:href="#DejaVuSans-33" transform="translate(1061.083984 0.015625)"/>
      <use xlink:href="#DejaVuSans-20" transform="translate(1124.707031 0.015625)"/>
      <use xlink:href="#DejaVuSans-25" transform="translate(1156.494141 0.015625)"/>
     </g>
    </g>
    <g id="line2d_92">
     <path d="M 66.35 175.951807 
L 78.35 175.951807 
L 90.35 175.951807 
" style="fill: none; stroke: #8c564b; stroke-opacity: 0.8; stroke-width: 1.5; stroke-linecap: square"/>
    </g>
    <g id="text_47">
     <!-- sample 0.3 kg  $KS$: 10.7 % -->
     <g transform="translate(99.95 180.151807) scale(0.12 -0.12)">
      <use xlink:href="#DejaVuSans-73" transform="translate(0 0.015625)"/>
      <use xlink:href="#DejaVuSans-61" transform="translate(52.099609 0.015625)"/>
      <use xlink:href="#DejaVuSans-6d" transform="translate(113.378906 0.015625)"/>
      <use xlink:href="#DejaVuSans-70" transform="translate(210.791016 0.015625)"/>
      <use xlink:href="#DejaVuSans-6c" transform="translate(274.267578 0.015625)"/>
      <use xlink:href="#DejaVuSans-65" transform="translate(302.050781 0.015625)"/>
      <use xlink:href="#DejaVuSans-20" transform="translate(363.574219 0.015625)"/>
      <use xlink:href="#DejaVuSans-30" transform="translate(395.361328 0.015625)"/>
      <use xlink:href="#DejaVuSans-2e" transform="translate(458.984375 0.015625)"/>
      <use xlink:href="#DejaVuSans-33" transform="translate(490.771484 0.015625)"/>
      <use xlink:href="#DejaVuSans-20" transform="translate(554.394531 0.015625)"/>
      <use xlink:href="#DejaVuSans-6b" transform="translate(586.181641 0.015625)"/>
      <use xlink:href="#DejaVuSans-67" transform="translate(644.091797 0.015625)"/>
      <use xlink:href="#DejaVuSans-20" transform="translate(707.568359 0.015625)"/>
      <use xlink:href="#DejaVuSans-20" transform="translate(739.355469 0.015625)"/>
      <use xlink:href="#DejaVuSans-Oblique-4b" transform="translate(771.142578 0.015625)"/>
      <use xlink:href="#DejaVuSans-Oblique-53" transform="translate(836.71875 0.015625)"/>
      <use xlink:href="#DejaVuSans-3a" transform="translate(900.195312 0.015625)"/>
      <use xlink:href="#DejaVuSans-20" transform="translate(933.886719 0.015625)"/>
      <use xlink:href="#DejaVuSans-31" transform="translate(965.673828 0.015625)"/>
      <use xlink:href="#DejaVuSans-30" transform="translate(1029.296875 0.015625)"/>
      <use xlink:href="#DejaVuSans-2e" transform="translate(1092.919922 0.015625)"/>
      <use xlink:href="#DejaVuSans-37" transform="translate(1116.957031 0.015625)"/>
      <use xlink:href="#DejaVuSans-20" transform="translate(1180.580078 0.015625)"/>
      <use xlink:href="#DejaVuSans-25" transform="translate(1212.367188 0.015625)"/>
     </g>
    </g>
    <g id="line2d_93">
     <path d="M 66.35 193.591807 
L 78.35 193.591807 
L 90.35 193.591807 
" style="fill: none; stroke: #e377c2; stroke-opacity: 0.8; stroke-width: 1.5; stroke-linecap: square"/>
    </g>
    <g id="text_48">
     <!-- sample 0.1 kg  $KS$: 15.4 % -->
     <g transform="translate(99.95 197.791807) scale(0.12 -0.12)">
      <use xlink:href="#DejaVuSans-73" transform="translate(0 0.015625)"/>
      <use xlink:href="#DejaVuSans-61" transform="translate(52.099609 0.015625)"/>
      <use xlink:href="#DejaVuSans-6d" transform="translate(113.378906 0.015625)"/>
      <use xlink:href="#DejaVuSans-70" transform="translate(210.791016 0.015625)"/>
      <use xlink:href="#DejaVuSans-6c" transform="translate(274.267578 0.015625)"/>
      <use xlink:href="#DejaVuSans-65" transform="translate(302.050781 0.015625)"/>
      <use xlink:href="#DejaVuSans-20" transform="translate(363.574219 0.015625)"/>
      <use xlink:href="#DejaVuSans-30" transform="translate(395.361328 0.015625)"/>
      <use xlink:href="#DejaVuSans-2e" transform="translate(458.984375 0.015625)"/>
      <use xlink:href="#DejaVuSans-31" transform="translate(490.771484 0.015625)"/>
      <use xlink:href="#DejaVuSans-20" transform="translate(554.394531 0.015625)"/>
      <use xlink:href="#DejaVuSans-6b" transform="translate(586.181641 0.015625)"/>
      <use xlink:href="#DejaVuSans-67" transform="translate(644.091797 0.015625)"/>
      <use xlink:href="#DejaVuSans-20" transform="translate(707.568359 0.015625)"/>
      <use xlink:href="#DejaVuSans-20" transform="translate(739.355469 0.015625)"/>
      <use xlink:href="#DejaVuSans-Oblique-4b" transform="translate(771.142578 0.015625)"/>
      <use xlink:href="#DejaVuSans-Oblique-53" transform="translate(836.71875 0.015625)"/>
      <use xlink:href="#DejaVuSans-3a" transform="translate(900.195312 0.015625)"/>
      <use xlink:href="#DejaVuSans-20" transform="translate(933.886719 0.015625)"/>
      <use xlink:href="#DejaVuSans-31" transform="translate(965.673828 0.015625)"/>
      <use xlink:href="#DejaVuSans-35" transform="translate(1029.296875 0.015625)"/>
      <use xlink:href="#DejaVuSans-2e" transform="translate(1092.919922 0.015625)"/>
      <use xlink:href="#DejaVuSans-34" transform="translate(1124.707031 0.015625)"/>
      <use xlink:href="#DejaVuSans-20" transform="translate(1188.330078 0.015625)"/>
      <use xlink:href="#DejaVuSans-25" transform="translate(1220.117188 0.015625)"/>
     </g>
    </g>
   </g>
  </g>
 </g>
 <defs>
  <clipPath id="p1b1d751867">
   <rect x="55.55" y="54.418057" width="653.65" height="262.181943"/>
  </clipPath>
 </defs>
</svg>
