<?xml version="1.0" encoding="utf-8" standalone="no"?>
<!DOCTYPE svg PUBLIC "-//W3C//DTD SVG 1.1//EN"
  "http://www.w3.org/Graphics/SVG/1.1/DTD/svg11.dtd">
<svg xmlns:xlink="http://www.w3.org/1999/xlink" width="255.11832pt" height="216pt" viewBox="0 0 255.11832 216" xmlns="http://www.w3.org/2000/svg" version="1.1">
 <metadata>
  <rdf:RDF xmlns:dc="http://purl.org/dc/elements/1.1/" xmlns:cc="http://creativecommons.org/ns#" xmlns:rdf="http://www.w3.org/1999/02/22-rdf-syntax-ns#">
   <cc:Work>
    <dc:type rdf:resource="http://purl.org/dc/dcmitype/StillImage"/>
    <dc:date>2024-12-09T15:32:16.607700</dc:date>
    <dc:format>image/svg+xml</dc:format>
    <dc:creator>
     <cc:Agent>
      <dc:title>Matplotlib v3.9.2, https://matplotlib.org/</dc:title>
     </cc:Agent>
    </dc:creator>
   </cc:Work>
  </rdf:RDF>
 </metadata>
 <defs>
  <style type="text/css">*{stroke-linejoin: round; stroke-linecap: butt}</style>
 </defs>
 <g id="figure_1">
  <g id="patch_1">
   <path d="M 0 216 
L 255.11832 216 
L 255.11832 0 
L 0 0 
z
" style="fill: #ffffff"/>
  </g>
  <g id="axes_1">
   <g id="patch_2">
    <path d="M 39.26 191 
L 244.31832 191 
L 244.31832 10.8 
L 39.26 10.8 
z
" style="fill: #ffffff"/>
   </g>
   <g id="PolyCollection_1">
    <defs>
     <path id="m59dedbfb37" d="M 91.387057 -193.9375 
L 82.534408 -193.9375 
L 80.993449 -192.336328 
L 79.173173 -190.735156 
L 77.099717 -189.133984 
L 74.818125 -187.532812 
L 72.388404 -185.931641 
L 69.879289 -184.330469 
L 67.360288 -182.729297 
L 64.89287 -181.128125 
L 62.522476 -179.526953 
L 60.274271 -177.925781 
L 58.15575 -176.324609 
L 56.167313 -174.723437 
L 54.317616 -173.122265 
L 52.636426 -171.521094 
L 51.17699 -169.919922 
L 50.004351 -168.31875 
L 49.173393 -166.717578 
L 48.706419 -165.116406 
L 48.580833 -163.515234 
L 48.732744 -161.914062 
L 49.075148 -160.31289 
L 49.523457 -158.711718 
L 50.018998 -157.110547 
L 50.542464 -155.509375 
L 51.113224 -153.908203 
L 51.77547 -152.307031 
L 52.577041 -150.705859 
L 53.549537 -149.104687 
L 54.697356 -147.503515 
L 55.998693 -145.902343 
L 57.415678 -144.301171 
L 58.907032 -142.7 
L 60.436809 -141.098828 
L 61.976435 -139.497656 
L 63.501613 -137.896484 
L 64.988371 -136.295312 
L 66.412312 -134.69414 
L 67.752503 -133.092968 
L 68.997997 -131.491796 
L 70.152615 -129.890625 
L 71.233906 -128.289453 
L 72.265262 -126.688281 
L 73.264398 -125.087109 
L 74.234168 -123.485937 
L 75.161019 -121.884765 
L 76.022315 -120.283593 
L 76.798725 -118.682421 
L 77.484863 -117.081249 
L 78.092393 -115.480078 
L 78.64414 -113.878906 
L 79.162794 -112.277734 
L 79.660484 -110.676562 
L 80.13459 -109.07539 
L 80.57153 -107.474218 
L 80.956227 -105.873046 
L 81.282468 -104.271874 
L 81.559272 -102.670702 
L 81.810363 -101.069531 
L 82.066867 -99.468359 
L 82.356292 -97.867187 
L 82.692454 -96.266015 
L 83.070549 -94.664843 
L 83.469193 -93.063671 
L 83.858144 -91.462499 
L 84.208253 -89.861327 
L 84.499791 -88.260155 
L 84.726651 -86.658984 
L 84.895876 -85.057812 
L 85.023612 -83.45664 
L 85.129343 -81.855468 
L 85.230356 -80.254296 
L 85.337983 -78.653124 
L 85.456446 -77.051952 
L 85.584176 -75.45078 
L 85.716617 -73.849608 
L 85.849058 -72.248437 
L 85.978285 -70.647265 
L 86.102622 -69.046093 
L 86.220826 -67.444921 
L 86.330835 -65.843749 
L 86.429291 -64.242577 
L 86.512168 -62.641405 
L 86.576182 -61.040233 
L 86.6202 -59.439061 
L 86.645845 -57.83789 
L 86.657006 -56.236718 
L 86.658476 -54.635546 
L 86.654456 -53.034374 
L 86.647659 -51.433202 
L 86.639389 -49.83203 
L 86.63038 -48.230858 
L 86.621793 -46.629686 
L 86.615698 -45.028514 
L 86.614783 -43.427343 
L 86.621512 -41.826171 
L 86.637271 -40.224999 
L 86.661954 -38.623827 
L 86.6941 -37.022655 
L 86.731364 -35.421483 
L 87.1901 -35.421483 
L 87.1901 -35.421483 
L 87.227365 -37.022655 
L 87.259511 -38.623827 
L 87.284194 -40.224999 
L 87.299952 -41.826171 
L 87.306681 -43.427343 
L 87.305767 -45.028514 
L 87.299672 -46.629686 
L 87.291084 -48.230858 
L 87.282075 -49.83203 
L 87.273805 -51.433202 
L 87.267009 -53.034374 
L 87.262988 -54.635546 
L 87.264458 -56.236718 
L 87.275619 -57.83789 
L 87.301265 -59.439061 
L 87.345282 -61.040233 
L 87.409297 -62.641405 
L 87.492173 -64.242577 
L 87.590629 -65.843749 
L 87.700639 -67.444921 
L 87.818842 -69.046093 
L 87.943179 -70.647265 
L 88.072407 -72.248437 
L 88.204848 -73.849608 
L 88.337288 -75.45078 
L 88.465018 -77.051952 
L 88.583481 -78.653124 
L 88.691108 -80.254296 
L 88.792121 -81.855468 
L 88.897852 -83.45664 
L 89.025589 -85.057812 
L 89.194813 -86.658984 
L 89.421673 -88.260155 
L 89.713212 -89.861327 
L 90.06332 -91.462499 
L 90.452271 -93.063671 
L 90.850915 -94.664843 
L 91.229011 -96.266015 
L 91.565172 -97.867187 
L 91.854597 -99.468359 
L 92.111102 -101.069531 
L 92.362193 -102.670702 
L 92.638997 -104.271874 
L 92.965237 -105.873046 
L 93.349934 -107.474218 
L 93.786874 -109.07539 
L 94.26098 -110.676562 
L 94.758671 -112.277734 
L 95.277325 -113.878906 
L 95.829072 -115.480078 
L 96.436602 -117.081249 
L 97.12274 -118.682421 
L 97.899149 -120.283593 
L 98.760445 -121.884765 
L 99.687296 -123.485937 
L 100.657066 -125.087109 
L 101.656202 -126.688281 
L 102.687559 -128.289453 
L 103.76885 -129.890625 
L 104.923467 -131.491796 
L 106.168961 -133.092968 
L 107.509152 -134.69414 
L 108.933093 -136.295312 
L 110.419852 -137.896484 
L 111.94503 -139.497656 
L 113.484655 -141.098828 
L 115.014433 -142.7 
L 116.505786 -144.301171 
L 117.922772 -145.902343 
L 119.224108 -147.503515 
L 120.371927 -149.104687 
L 121.344423 -150.705859 
L 122.145994 -152.307031 
L 122.80824 -153.908203 
L 123.379001 -155.509375 
L 123.902467 -157.110547 
L 124.398007 -158.711718 
L 124.846316 -160.31289 
L 125.18872 -161.914062 
L 125.340632 -163.515234 
L 125.215045 -165.116406 
L 124.748072 -166.717578 
L 123.917113 -168.31875 
L 122.744474 -169.919922 
L 121.285038 -171.521094 
L 119.603848 -173.122265 
L 117.754152 -174.723437 
L 115.765714 -176.324609 
L 113.647193 -177.925781 
L 111.398988 -179.526953 
L 109.028595 -181.128125 
L 106.561176 -182.729297 
L 104.042175 -184.330469 
L 101.53306 -185.931641 
L 99.10334 -187.532812 
L 96.821748 -189.133984 
L 94.748291 -190.735156 
L 92.928015 -192.336328 
L 91.387057 -193.9375 
z
" style="stroke: #000000"/>
    </defs>
    <g clip-path="url(#pc4b2a4182a)">
     <use xlink:href="#m59dedbfb37" x="0" y="216" style="fill: #808080; stroke: #000000"/>
    </g>
   </g>
   <g id="PolyCollection_2">
    <defs>
     <path id="m86a7d39d6f" d="M 199.010843 -193.9375 
L 194.224332 -193.9375 
L 193.427594 -192.821916 
L 192.438803 -191.706332 
L 191.220709 -190.590747 
L 189.731339 -189.475163 
L 187.927617 -188.359579 
L 185.773147 -187.243995 
L 183.251094 -186.12841 
L 180.380476 -185.012826 
L 177.230544 -183.897242 
L 173.925682 -182.781658 
L 170.634739 -181.666073 
L 167.544251 -180.550489 
L 164.822297 -179.434905 
L 162.584853 -178.319321 
L 160.876488 -177.203736 
L 159.671722 -176.088152 
L 158.895101 -174.972568 
L 158.451103 -173.856984 
L 158.25241 -172.7414 
L 158.237688 -171.625815 
L 158.375723 -170.510231 
L 158.658561 -169.394647 
L 159.089433 -168.279063 
L 159.670953 -167.163478 
L 160.396753 -166.047894 
L 161.24737 -164.93231 
L 162.190259 -163.816726 
L 163.183897 -162.701141 
L 164.185801 -161.585557 
L 165.162948 -160.469973 
L 166.101236 -159.354389 
L 167.009838 -158.238804 
L 167.917866 -157.12322 
L 168.864124 -156.007636 
L 169.883904 -154.892052 
L 170.997852 -153.776468 
L 172.206425 -152.660883 
L 173.490635 -151.545299 
L 174.817467 -150.429715 
L 176.147559 -149.314131 
L 177.44313 -148.198546 
L 178.674749 -147.082962 
L 179.825837 -145.967378 
L 180.894014 -144.851794 
L 181.88899 -143.736209 
L 182.827838 -142.620625 
L 183.72935 -141.505041 
L 184.609292 -140.389457 
L 185.477581 -139.273872 
L 186.33741 -138.158288 
L 187.185843 -137.042704 
L 188.015323 -135.92712 
L 188.815601 -134.811536 
L 189.575447 -133.695951 
L 190.283477 -132.580367 
L 190.927821 -131.464783 
L 191.495257 -130.349199 
L 191.971235 -129.233614 
L 192.342121 -128.11803 
L 192.599963 -127.002446 
L 192.748333 -125.886862 
L 192.80652 -124.771277 
L 192.80929 -123.655693 
L 192.801003 -122.540109 
L 192.825477 -121.424525 
L 192.915256 -120.308941 
L 193.084529 -119.193356 
L 193.328284 -118.077772 
L 193.627351 -116.962188 
L 193.956396 -115.846604 
L 194.291199 -114.731019 
L 194.612812 -113.615435 
L 194.908368 -112.499851 
L 195.169947 -111.384267 
L 195.393253 -110.268682 
L 195.576983 -109.153098 
L 195.722759 -108.037514 
L 195.834914 -106.92193 
L 195.919634 -105.806345 
L 195.983587 -104.690761 
L 196.032597 -103.575177 
L 196.070885 -102.459593 
L 196.101052 -101.344009 
L 196.124522 -100.228424 
L 196.142101 -99.11284 
L 196.154426 -97.997256 
L 196.16228 -96.881672 
L 196.166785 -95.766087 
L 196.169447 -94.650503 
L 196.172012 -93.534919 
L 196.176161 -92.419335 
L 196.183228 -91.30375 
L 196.194088 -90.188166 
L 196.209286 -89.072582 
L 196.229245 -87.956998 
L 196.254397 -86.841413 
L 196.285068 -85.725829 
L 196.321167 -84.610245 
L 196.361842 -83.494661 
L 196.873334 -83.494661 
L 196.873334 -83.494661 
L 196.914009 -84.610245 
L 196.950108 -85.725829 
L 196.980779 -86.841413 
L 197.005931 -87.956998 
L 197.02589 -89.072582 
L 197.041087 -90.188166 
L 197.051948 -91.30375 
L 197.059014 -92.419335 
L 197.063164 -93.534919 
L 197.065728 -94.650503 
L 197.068391 -95.766087 
L 197.072895 -96.881672 
L 197.080749 -97.997256 
L 197.093074 -99.11284 
L 197.110653 -100.228424 
L 197.134123 -101.344009 
L 197.164291 -102.459593 
L 197.202579 -103.575177 
L 197.251588 -104.690761 
L 197.315542 -105.806345 
L 197.400262 -106.92193 
L 197.512416 -108.037514 
L 197.658193 -109.153098 
L 197.841923 -110.268682 
L 198.065228 -111.384267 
L 198.326808 -112.499851 
L 198.622363 -113.615435 
L 198.943977 -114.731019 
L 199.27878 -115.846604 
L 199.607825 -116.962188 
L 199.906892 -118.077772 
L 200.150647 -119.193356 
L 200.31992 -120.308941 
L 200.409699 -121.424525 
L 200.434172 -122.540109 
L 200.425885 -123.655693 
L 200.428656 -124.771277 
L 200.486843 -125.886862 
L 200.635213 -127.002446 
L 200.893055 -128.11803 
L 201.263941 -129.233614 
L 201.739918 -130.349199 
L 202.307355 -131.464783 
L 202.951698 -132.580367 
L 203.659729 -133.695951 
L 204.419575 -134.811536 
L 205.219852 -135.92712 
L 206.049333 -137.042704 
L 206.897765 -138.158288 
L 207.757595 -139.273872 
L 208.625884 -140.389457 
L 209.505826 -141.505041 
L 210.407337 -142.620625 
L 211.346185 -143.736209 
L 212.341162 -144.851794 
L 213.409338 -145.967378 
L 214.560427 -147.082962 
L 215.792046 -148.198546 
L 217.087617 -149.314131 
L 218.417709 -150.429715 
L 219.74454 -151.545299 
L 221.02875 -152.660883 
L 222.237324 -153.776468 
L 223.351271 -154.892052 
L 224.371051 -156.007636 
L 225.31731 -157.12322 
L 226.225338 -158.238804 
L 227.133939 -159.354389 
L 228.072227 -160.469973 
L 229.049375 -161.585557 
L 230.051278 -162.701141 
L 231.044917 -163.816726 
L 231.987806 -164.93231 
L 232.838423 -166.047894 
L 233.564222 -167.163478 
L 234.145742 -168.279063 
L 234.576614 -169.394647 
L 234.859453 -170.510231 
L 234.997487 -171.625815 
L 234.982766 -172.7414 
L 234.784073 -173.856984 
L 234.340074 -174.972568 
L 233.563454 -176.088152 
L 232.358688 -177.203736 
L 230.650323 -178.319321 
L 228.412878 -179.434905 
L 225.690924 -180.550489 
L 222.600437 -181.666073 
L 219.309493 -182.781658 
L 216.004631 -183.897242 
L 212.8547 -185.012826 
L 209.984082 -186.12841 
L 207.462028 -187.243995 
L 205.307558 -188.359579 
L 203.503837 -189.475163 
L 202.014466 -190.590747 
L 200.796373 -191.706332 
L 199.807582 -192.821916 
L 199.010843 -193.9375 
z
" style="stroke: #000000"/>
    </defs>
    <g clip-path="url(#pc4b2a4182a)">
     <use xlink:href="#m86a7d39d6f" x="0" y="216" style="fill: #808080; stroke: #000000"/>
    </g>
   </g>
   <g id="matplotlib.axis_1">
    <g id="xtick_1">
     <g id="line2d_1">
      <path d="M 86.960732 191 
L 86.960732 10.8 
" clip-path="url(#pc4b2a4182a)" style="fill: none; stroke: #b0b0b0; stroke-opacity: 0.3; stroke-width: 0.8; stroke-linecap: square"/>
     </g>
     <g id="line2d_2">
      <defs>
       <path id="md85a5272ca" d="M 0 0 
L 0 3.5 
" style="stroke: #000000; stroke-width: 0.8"/>
      </defs>
      <g>
       <use xlink:href="#md85a5272ca" x="86.960732" y="191" style="stroke: #000000; stroke-width: 0.8"/>
      </g>
     </g>
     <g id="text_1">
      <!-- ISO 17892-4 -->
      <g transform="translate(62.108232 204.07875) scale(0.08 -0.08)">
       <defs>
        <path id="DejaVuSans-49" d="M 628 4666 
L 1259 4666 
L 1259 0 
L 628 0 
L 628 4666 
z
" transform="scale(0.015625)"/>
        <path id="DejaVuSans-53" d="M 3425 4513 
L 3425 3897 
Q 3066 4069 2747 4153 
Q 2428 4238 2131 4238 
Q 1616 4238 1336 4038 
Q 1056 3838 1056 3469 
Q 1056 3159 1242 3001 
Q 1428 2844 1947 2747 
L 2328 2669 
Q 3034 2534 3370 2195 
Q 3706 1856 3706 1288 
Q 3706 609 3251 259 
Q 2797 -91 1919 -91 
Q 1588 -91 1214 -16 
Q 841 59 441 206 
L 441 856 
Q 825 641 1194 531 
Q 1563 422 1919 422 
Q 2459 422 2753 634 
Q 3047 847 3047 1241 
Q 3047 1584 2836 1778 
Q 2625 1972 2144 2069 
L 1759 2144 
Q 1053 2284 737 2584 
Q 422 2884 422 3419 
Q 422 4038 858 4394 
Q 1294 4750 2059 4750 
Q 2388 4750 2728 4690 
Q 3069 4631 3425 4513 
z
" transform="scale(0.015625)"/>
        <path id="DejaVuSans-4f" d="M 2522 4238 
Q 1834 4238 1429 3725 
Q 1025 3213 1025 2328 
Q 1025 1447 1429 934 
Q 1834 422 2522 422 
Q 3209 422 3611 934 
Q 4013 1447 4013 2328 
Q 4013 3213 3611 3725 
Q 3209 4238 2522 4238 
z
M 2522 4750 
Q 3503 4750 4090 4092 
Q 4678 3434 4678 2328 
Q 4678 1225 4090 567 
Q 3503 -91 2522 -91 
Q 1538 -91 948 565 
Q 359 1222 359 2328 
Q 359 3434 948 4092 
Q 1538 4750 2522 4750 
z
" transform="scale(0.015625)"/>
        <path id="DejaVuSans-20" transform="scale(0.015625)"/>
        <path id="DejaVuSans-31" d="M 794 531 
L 1825 531 
L 1825 4091 
L 703 3866 
L 703 4441 
L 1819 4666 
L 2450 4666 
L 2450 531 
L 3481 531 
L 3481 0 
L 794 0 
L 794 531 
z
" transform="scale(0.015625)"/>
        <path id="DejaVuSans-37" d="M 525 4666 
L 3525 4666 
L 3525 4397 
L 1831 0 
L 1172 0 
L 2766 4134 
L 525 4134 
L 525 4666 
z
" transform="scale(0.015625)"/>
        <path id="DejaVuSans-38" d="M 2034 2216 
Q 1584 2216 1326 1975 
Q 1069 1734 1069 1313 
Q 1069 891 1326 650 
Q 1584 409 2034 409 
Q 2484 409 2743 651 
Q 3003 894 3003 1313 
Q 3003 1734 2745 1975 
Q 2488 2216 2034 2216 
z
M 1403 2484 
Q 997 2584 770 2862 
Q 544 3141 544 3541 
Q 544 4100 942 4425 
Q 1341 4750 2034 4750 
Q 2731 4750 3128 4425 
Q 3525 4100 3525 3541 
Q 3525 3141 3298 2862 
Q 3072 2584 2669 2484 
Q 3125 2378 3379 2068 
Q 3634 1759 3634 1313 
Q 3634 634 3220 271 
Q 2806 -91 2034 -91 
Q 1263 -91 848 271 
Q 434 634 434 1313 
Q 434 1759 690 2068 
Q 947 2378 1403 2484 
z
M 1172 3481 
Q 1172 3119 1398 2916 
Q 1625 2713 2034 2713 
Q 2441 2713 2670 2916 
Q 2900 3119 2900 3481 
Q 2900 3844 2670 4047 
Q 2441 4250 2034 4250 
Q 1625 4250 1398 4047 
Q 1172 3844 1172 3481 
z
" transform="scale(0.015625)"/>
        <path id="DejaVuSans-39" d="M 703 97 
L 703 672 
Q 941 559 1184 500 
Q 1428 441 1663 441 
Q 2288 441 2617 861 
Q 2947 1281 2994 2138 
Q 2813 1869 2534 1725 
Q 2256 1581 1919 1581 
Q 1219 1581 811 2004 
Q 403 2428 403 3163 
Q 403 3881 828 4315 
Q 1253 4750 1959 4750 
Q 2769 4750 3195 4129 
Q 3622 3509 3622 2328 
Q 3622 1225 3098 567 
Q 2575 -91 1691 -91 
Q 1453 -91 1209 -44 
Q 966 3 703 97 
z
M 1959 2075 
Q 2384 2075 2632 2365 
Q 2881 2656 2881 3163 
Q 2881 3666 2632 3958 
Q 2384 4250 1959 4250 
Q 1534 4250 1286 3958 
Q 1038 3666 1038 3163 
Q 1038 2656 1286 2365 
Q 1534 2075 1959 2075 
z
" transform="scale(0.015625)"/>
        <path id="DejaVuSans-32" d="M 1228 531 
L 3431 531 
L 3431 0 
L 469 0 
L 469 531 
Q 828 903 1448 1529 
Q 2069 2156 2228 2338 
Q 2531 2678 2651 2914 
Q 2772 3150 2772 3378 
Q 2772 3750 2511 3984 
Q 2250 4219 1831 4219 
Q 1534 4219 1204 4116 
Q 875 4013 500 3803 
L 500 4441 
Q 881 4594 1212 4672 
Q 1544 4750 1819 4750 
Q 2544 4750 2975 4387 
Q 3406 4025 3406 3419 
Q 3406 3131 3298 2873 
Q 3191 2616 2906 2266 
Q 2828 2175 2409 1742 
Q 1991 1309 1228 531 
z
" transform="scale(0.015625)"/>
        <path id="DejaVuSans-2d" d="M 313 2009 
L 1997 2009 
L 1997 1497 
L 313 1497 
L 313 2009 
z
" transform="scale(0.015625)"/>
        <path id="DejaVuSans-34" d="M 2419 4116 
L 825 1625 
L 2419 1625 
L 2419 4116 
z
M 2253 4666 
L 3047 4666 
L 3047 1625 
L 3713 1625 
L 3713 1100 
L 3047 1100 
L 3047 0 
L 2419 0 
L 2419 1100 
L 313 1100 
L 313 1709 
L 2253 4666 
z
" transform="scale(0.015625)"/>
       </defs>
       <use xlink:href="#DejaVuSans-49"/>
       <use xlink:href="#DejaVuSans-53" x="29.492188"/>
       <use xlink:href="#DejaVuSans-4f" x="92.96875"/>
       <use xlink:href="#DejaVuSans-20" x="171.679688"/>
       <use xlink:href="#DejaVuSans-31" x="203.466797"/>
       <use xlink:href="#DejaVuSans-37" x="267.089844"/>
       <use xlink:href="#DejaVuSans-38" x="330.712891"/>
       <use xlink:href="#DejaVuSans-39" x="394.335938"/>
       <use xlink:href="#DejaVuSans-32" x="457.958984"/>
       <use xlink:href="#DejaVuSans-2d" x="521.582031"/>
       <use xlink:href="#DejaVuSans-34" x="557.666016"/>
      </g>
     </g>
    </g>
    <g id="xtick_2">
     <g id="line2d_3">
      <path d="M 196.617588 191 
L 196.617588 10.8 
" clip-path="url(#pc4b2a4182a)" style="fill: none; stroke: #b0b0b0; stroke-opacity: 0.3; stroke-width: 0.8; stroke-linecap: square"/>
     </g>
     <g id="line2d_4">
      <g>
       <use xlink:href="#md85a5272ca" x="196.617588" y="191" style="stroke: #000000; stroke-width: 0.8"/>
      </g>
     </g>
     <g id="text_2">
      <!-- ASTM D6913/D6913M -->
      <g transform="translate(152.857588 204.07875) scale(0.08 -0.08)">
       <defs>
        <path id="DejaVuSans-41" d="M 2188 4044 
L 1331 1722 
L 3047 1722 
L 2188 4044 
z
M 1831 4666 
L 2547 4666 
L 4325 0 
L 3669 0 
L 3244 1197 
L 1141 1197 
L 716 0 
L 50 0 
L 1831 4666 
z
" transform="scale(0.015625)"/>
        <path id="DejaVuSans-54" d="M -19 4666 
L 3928 4666 
L 3928 4134 
L 2272 4134 
L 2272 0 
L 1638 0 
L 1638 4134 
L -19 4134 
L -19 4666 
z
" transform="scale(0.015625)"/>
        <path id="DejaVuSans-4d" d="M 628 4666 
L 1569 4666 
L 2759 1491 
L 3956 4666 
L 4897 4666 
L 4897 0 
L 4281 0 
L 4281 4097 
L 3078 897 
L 2444 897 
L 1241 4097 
L 1241 0 
L 628 0 
L 628 4666 
z
" transform="scale(0.015625)"/>
        <path id="DejaVuSans-44" d="M 1259 4147 
L 1259 519 
L 2022 519 
Q 2988 519 3436 956 
Q 3884 1394 3884 2338 
Q 3884 3275 3436 3711 
Q 2988 4147 2022 4147 
L 1259 4147 
z
M 628 4666 
L 1925 4666 
Q 3281 4666 3915 4102 
Q 4550 3538 4550 2338 
Q 4550 1131 3912 565 
Q 3275 0 1925 0 
L 628 0 
L 628 4666 
z
" transform="scale(0.015625)"/>
        <path id="DejaVuSans-36" d="M 2113 2584 
Q 1688 2584 1439 2293 
Q 1191 2003 1191 1497 
Q 1191 994 1439 701 
Q 1688 409 2113 409 
Q 2538 409 2786 701 
Q 3034 994 3034 1497 
Q 3034 2003 2786 2293 
Q 2538 2584 2113 2584 
z
M 3366 4563 
L 3366 3988 
Q 3128 4100 2886 4159 
Q 2644 4219 2406 4219 
Q 1781 4219 1451 3797 
Q 1122 3375 1075 2522 
Q 1259 2794 1537 2939 
Q 1816 3084 2150 3084 
Q 2853 3084 3261 2657 
Q 3669 2231 3669 1497 
Q 3669 778 3244 343 
Q 2819 -91 2113 -91 
Q 1303 -91 875 529 
Q 447 1150 447 2328 
Q 447 3434 972 4092 
Q 1497 4750 2381 4750 
Q 2619 4750 2861 4703 
Q 3103 4656 3366 4563 
z
" transform="scale(0.015625)"/>
        <path id="DejaVuSans-33" d="M 2597 2516 
Q 3050 2419 3304 2112 
Q 3559 1806 3559 1356 
Q 3559 666 3084 287 
Q 2609 -91 1734 -91 
Q 1441 -91 1130 -33 
Q 819 25 488 141 
L 488 750 
Q 750 597 1062 519 
Q 1375 441 1716 441 
Q 2309 441 2620 675 
Q 2931 909 2931 1356 
Q 2931 1769 2642 2001 
Q 2353 2234 1838 2234 
L 1294 2234 
L 1294 2753 
L 1863 2753 
Q 2328 2753 2575 2939 
Q 2822 3125 2822 3475 
Q 2822 3834 2567 4026 
Q 2313 4219 1838 4219 
Q 1578 4219 1281 4162 
Q 984 4106 628 3988 
L 628 4550 
Q 988 4650 1302 4700 
Q 1616 4750 1894 4750 
Q 2613 4750 3031 4423 
Q 3450 4097 3450 3541 
Q 3450 3153 3228 2886 
Q 3006 2619 2597 2516 
z
" transform="scale(0.015625)"/>
        <path id="DejaVuSans-2f" d="M 1625 4666 
L 2156 4666 
L 531 -594 
L 0 -594 
L 1625 4666 
z
" transform="scale(0.015625)"/>
       </defs>
       <use xlink:href="#DejaVuSans-41"/>
       <use xlink:href="#DejaVuSans-53" x="68.408203"/>
       <use xlink:href="#DejaVuSans-54" x="131.884766"/>
       <use xlink:href="#DejaVuSans-4d" x="192.96875"/>
       <use xlink:href="#DejaVuSans-20" x="279.248047"/>
       <use xlink:href="#DejaVuSans-44" x="311.035156"/>
       <use xlink:href="#DejaVuSans-36" x="388.037109"/>
       <use xlink:href="#DejaVuSans-39" x="451.660156"/>
       <use xlink:href="#DejaVuSans-31" x="515.283203"/>
       <use xlink:href="#DejaVuSans-33" x="578.90625"/>
       <use xlink:href="#DejaVuSans-2f" x="642.529297"/>
       <use xlink:href="#DejaVuSans-44" x="676.220703"/>
       <use xlink:href="#DejaVuSans-36" x="753.222656"/>
       <use xlink:href="#DejaVuSans-39" x="816.845703"/>
       <use xlink:href="#DejaVuSans-31" x="880.46875"/>
       <use xlink:href="#DejaVuSans-33" x="944.091797"/>
       <use xlink:href="#DejaVuSans-4d" x="1007.714844"/>
      </g>
     </g>
    </g>
   </g>
   <g id="matplotlib.axis_2">
    <g id="ytick_1">
     <g id="line2d_5">
      <path d="M 39.26 22.0625 
L 244.31832 22.0625 
" clip-path="url(#pc4b2a4182a)" style="fill: none; stroke: #b0b0b0; stroke-opacity: 0.3; stroke-width: 0.8; stroke-linecap: square"/>
     </g>
     <g id="line2d_6">
      <defs>
       <path id="mf906a786e1" d="M 0 0 
L -3.5 0 
" style="stroke: #000000; stroke-width: 0.8"/>
      </defs>
      <g>
       <use xlink:href="#mf906a786e1" x="39.26" y="22.0625" style="stroke: #000000; stroke-width: 0.8"/>
      </g>
     </g>
     <g id="text_3">
      <!-- 0 -->
      <g transform="translate(27.17 25.101875) scale(0.08 -0.08)">
       <defs>
        <path id="DejaVuSans-30" d="M 2034 4250 
Q 1547 4250 1301 3770 
Q 1056 3291 1056 2328 
Q 1056 1369 1301 889 
Q 1547 409 2034 409 
Q 2525 409 2770 889 
Q 3016 1369 3016 2328 
Q 3016 3291 2770 3770 
Q 2525 4250 2034 4250 
z
M 2034 4750 
Q 2819 4750 3233 4129 
Q 3647 3509 3647 2328 
Q 3647 1150 3233 529 
Q 2819 -91 2034 -91 
Q 1250 -91 836 529 
Q 422 1150 422 2328 
Q 422 3509 836 4129 
Q 1250 4750 2034 4750 
z
" transform="scale(0.015625)"/>
       </defs>
       <use xlink:href="#DejaVuSans-30"/>
      </g>
     </g>
    </g>
    <g id="ytick_2">
     <g id="line2d_7">
      <path d="M 39.26 44.5875 
L 244.31832 44.5875 
" clip-path="url(#pc4b2a4182a)" style="fill: none; stroke: #b0b0b0; stroke-opacity: 0.3; stroke-width: 0.8; stroke-linecap: square"/>
     </g>
     <g id="line2d_8">
      <g>
       <use xlink:href="#mf906a786e1" x="39.26" y="44.5875" style="stroke: #000000; stroke-width: 0.8"/>
      </g>
     </g>
     <g id="text_4">
      <!-- 2 -->
      <g transform="translate(27.17 47.626875) scale(0.08 -0.08)">
       <use xlink:href="#DejaVuSans-32"/>
      </g>
     </g>
    </g>
    <g id="ytick_3">
     <g id="line2d_9">
      <path d="M 39.26 67.1125 
L 244.31832 67.1125 
" clip-path="url(#pc4b2a4182a)" style="fill: none; stroke: #b0b0b0; stroke-opacity: 0.3; stroke-width: 0.8; stroke-linecap: square"/>
     </g>
     <g id="line2d_10">
      <g>
       <use xlink:href="#mf906a786e1" x="39.26" y="67.1125" style="stroke: #000000; stroke-width: 0.8"/>
      </g>
     </g>
     <g id="text_5">
      <!-- 4 -->
      <g transform="translate(27.17 70.151875) scale(0.08 -0.08)">
       <use xlink:href="#DejaVuSans-34"/>
      </g>
     </g>
    </g>
    <g id="ytick_4">
     <g id="line2d_11">
      <path d="M 39.26 89.6375 
L 244.31832 89.6375 
" clip-path="url(#pc4b2a4182a)" style="fill: none; stroke: #b0b0b0; stroke-opacity: 0.3; stroke-width: 0.8; stroke-linecap: square"/>
     </g>
     <g id="line2d_12">
      <g>
       <use xlink:href="#mf906a786e1" x="39.26" y="89.6375" style="stroke: #000000; stroke-width: 0.8"/>
      </g>
     </g>
     <g id="text_6">
      <!-- 6 -->
      <g transform="translate(27.17 92.676875) scale(0.08 -0.08)">
       <use xlink:href="#DejaVuSans-36"/>
      </g>
     </g>
    </g>
    <g id="ytick_5">
     <g id="line2d_13">
      <path d="M 39.26 112.1625 
L 244.31832 112.1625 
" clip-path="url(#pc4b2a4182a)" style="fill: none; stroke: #b0b0b0; stroke-opacity: 0.3; stroke-width: 0.8; stroke-linecap: square"/>
     </g>
     <g id="line2d_14">
      <g>
       <use xlink:href="#mf906a786e1" x="39.26" y="112.1625" style="stroke: #000000; stroke-width: 0.8"/>
      </g>
     </g>
     <g id="text_7">
      <!-- 8 -->
      <g transform="translate(27.17 115.201875) scale(0.08 -0.08)">
       <use xlink:href="#DejaVuSans-38"/>
      </g>
     </g>
    </g>
    <g id="ytick_6">
     <g id="line2d_15">
      <path d="M 39.26 134.6875 
L 244.31832 134.6875 
" clip-path="url(#pc4b2a4182a)" style="fill: none; stroke: #b0b0b0; stroke-opacity: 0.3; stroke-width: 0.8; stroke-linecap: square"/>
     </g>
     <g id="line2d_16">
      <g>
       <use xlink:href="#mf906a786e1" x="39.26" y="134.6875" style="stroke: #000000; stroke-width: 0.8"/>
      </g>
     </g>
     <g id="text_8">
      <!-- 10 -->
      <g transform="translate(22.08 137.726875) scale(0.08 -0.08)">
       <use xlink:href="#DejaVuSans-31"/>
       <use xlink:href="#DejaVuSans-30" x="63.623047"/>
      </g>
     </g>
    </g>
    <g id="ytick_7">
     <g id="line2d_17">
      <path d="M 39.26 157.2125 
L 244.31832 157.2125 
" clip-path="url(#pc4b2a4182a)" style="fill: none; stroke: #b0b0b0; stroke-opacity: 0.3; stroke-width: 0.8; stroke-linecap: square"/>
     </g>
     <g id="line2d_18">
      <g>
       <use xlink:href="#mf906a786e1" x="39.26" y="157.2125" style="stroke: #000000; stroke-width: 0.8"/>
      </g>
     </g>
     <g id="text_9">
      <!-- 12 -->
      <g transform="translate(22.08 160.251875) scale(0.08 -0.08)">
       <use xlink:href="#DejaVuSans-31"/>
       <use xlink:href="#DejaVuSans-32" x="63.623047"/>
      </g>
     </g>
    </g>
    <g id="ytick_8">
     <g id="line2d_19">
      <path d="M 39.26 179.7375 
L 244.31832 179.7375 
" clip-path="url(#pc4b2a4182a)" style="fill: none; stroke: #b0b0b0; stroke-opacity: 0.3; stroke-width: 0.8; stroke-linecap: square"/>
     </g>
     <g id="line2d_20">
      <g>
       <use xlink:href="#mf906a786e1" x="39.26" y="179.7375" style="stroke: #000000; stroke-width: 0.8"/>
      </g>
     </g>
     <g id="text_10">
      <!-- 14 -->
      <g transform="translate(22.08 182.776875) scale(0.08 -0.08)">
       <use xlink:href="#DejaVuSans-31"/>
       <use xlink:href="#DejaVuSans-34" x="63.623047"/>
      </g>
     </g>
    </g>
    <g id="text_11">
     <!-- Kolmogorov-Smirnov statisic [mass %] -->
     <g transform="translate(16.41625 177.81875) rotate(-90) scale(0.08 -0.08)">
      <defs>
       <path id="DejaVuSans-4b" d="M 628 4666 
L 1259 4666 
L 1259 2694 
L 3353 4666 
L 4166 4666 
L 1850 2491 
L 4331 0 
L 3500 0 
L 1259 2247 
L 1259 0 
L 628 0 
L 628 4666 
z
" transform="scale(0.015625)"/>
       <path id="DejaVuSans-6f" d="M 1959 3097 
Q 1497 3097 1228 2736 
Q 959 2375 959 1747 
Q 959 1119 1226 758 
Q 1494 397 1959 397 
Q 2419 397 2687 759 
Q 2956 1122 2956 1747 
Q 2956 2369 2687 2733 
Q 2419 3097 1959 3097 
z
M 1959 3584 
Q 2709 3584 3137 3096 
Q 3566 2609 3566 1747 
Q 3566 888 3137 398 
Q 2709 -91 1959 -91 
Q 1206 -91 779 398 
Q 353 888 353 1747 
Q 353 2609 779 3096 
Q 1206 3584 1959 3584 
z
" transform="scale(0.015625)"/>
       <path id="DejaVuSans-6c" d="M 603 4863 
L 1178 4863 
L 1178 0 
L 603 0 
L 603 4863 
z
" transform="scale(0.015625)"/>
       <path id="DejaVuSans-6d" d="M 3328 2828 
Q 3544 3216 3844 3400 
Q 4144 3584 4550 3584 
Q 5097 3584 5394 3201 
Q 5691 2819 5691 2113 
L 5691 0 
L 5113 0 
L 5113 2094 
Q 5113 2597 4934 2840 
Q 4756 3084 4391 3084 
Q 3944 3084 3684 2787 
Q 3425 2491 3425 1978 
L 3425 0 
L 2847 0 
L 2847 2094 
Q 2847 2600 2669 2842 
Q 2491 3084 2119 3084 
Q 1678 3084 1418 2786 
Q 1159 2488 1159 1978 
L 1159 0 
L 581 0 
L 581 3500 
L 1159 3500 
L 1159 2956 
Q 1356 3278 1631 3431 
Q 1906 3584 2284 3584 
Q 2666 3584 2933 3390 
Q 3200 3197 3328 2828 
z
" transform="scale(0.015625)"/>
       <path id="DejaVuSans-67" d="M 2906 1791 
Q 2906 2416 2648 2759 
Q 2391 3103 1925 3103 
Q 1463 3103 1205 2759 
Q 947 2416 947 1791 
Q 947 1169 1205 825 
Q 1463 481 1925 481 
Q 2391 481 2648 825 
Q 2906 1169 2906 1791 
z
M 3481 434 
Q 3481 -459 3084 -895 
Q 2688 -1331 1869 -1331 
Q 1566 -1331 1297 -1286 
Q 1028 -1241 775 -1147 
L 775 -588 
Q 1028 -725 1275 -790 
Q 1522 -856 1778 -856 
Q 2344 -856 2625 -561 
Q 2906 -266 2906 331 
L 2906 616 
Q 2728 306 2450 153 
Q 2172 0 1784 0 
Q 1141 0 747 490 
Q 353 981 353 1791 
Q 353 2603 747 3093 
Q 1141 3584 1784 3584 
Q 2172 3584 2450 3431 
Q 2728 3278 2906 2969 
L 2906 3500 
L 3481 3500 
L 3481 434 
z
" transform="scale(0.015625)"/>
       <path id="DejaVuSans-72" d="M 2631 2963 
Q 2534 3019 2420 3045 
Q 2306 3072 2169 3072 
Q 1681 3072 1420 2755 
Q 1159 2438 1159 1844 
L 1159 0 
L 581 0 
L 581 3500 
L 1159 3500 
L 1159 2956 
Q 1341 3275 1631 3429 
Q 1922 3584 2338 3584 
Q 2397 3584 2469 3576 
Q 2541 3569 2628 3553 
L 2631 2963 
z
" transform="scale(0.015625)"/>
       <path id="DejaVuSans-76" d="M 191 3500 
L 800 3500 
L 1894 563 
L 2988 3500 
L 3597 3500 
L 2284 0 
L 1503 0 
L 191 3500 
z
" transform="scale(0.015625)"/>
       <path id="DejaVuSans-69" d="M 603 3500 
L 1178 3500 
L 1178 0 
L 603 0 
L 603 3500 
z
M 603 4863 
L 1178 4863 
L 1178 4134 
L 603 4134 
L 603 4863 
z
" transform="scale(0.015625)"/>
       <path id="DejaVuSans-6e" d="M 3513 2113 
L 3513 0 
L 2938 0 
L 2938 2094 
Q 2938 2591 2744 2837 
Q 2550 3084 2163 3084 
Q 1697 3084 1428 2787 
Q 1159 2491 1159 1978 
L 1159 0 
L 581 0 
L 581 3500 
L 1159 3500 
L 1159 2956 
Q 1366 3272 1645 3428 
Q 1925 3584 2291 3584 
Q 2894 3584 3203 3211 
Q 3513 2838 3513 2113 
z
" transform="scale(0.015625)"/>
       <path id="DejaVuSans-73" d="M 2834 3397 
L 2834 2853 
Q 2591 2978 2328 3040 
Q 2066 3103 1784 3103 
Q 1356 3103 1142 2972 
Q 928 2841 928 2578 
Q 928 2378 1081 2264 
Q 1234 2150 1697 2047 
L 1894 2003 
Q 2506 1872 2764 1633 
Q 3022 1394 3022 966 
Q 3022 478 2636 193 
Q 2250 -91 1575 -91 
Q 1294 -91 989 -36 
Q 684 19 347 128 
L 347 722 
Q 666 556 975 473 
Q 1284 391 1588 391 
Q 1994 391 2212 530 
Q 2431 669 2431 922 
Q 2431 1156 2273 1281 
Q 2116 1406 1581 1522 
L 1381 1569 
Q 847 1681 609 1914 
Q 372 2147 372 2553 
Q 372 3047 722 3315 
Q 1072 3584 1716 3584 
Q 2034 3584 2315 3537 
Q 2597 3491 2834 3397 
z
" transform="scale(0.015625)"/>
       <path id="DejaVuSans-74" d="M 1172 4494 
L 1172 3500 
L 2356 3500 
L 2356 3053 
L 1172 3053 
L 1172 1153 
Q 1172 725 1289 603 
Q 1406 481 1766 481 
L 2356 481 
L 2356 0 
L 1766 0 
Q 1100 0 847 248 
Q 594 497 594 1153 
L 594 3053 
L 172 3053 
L 172 3500 
L 594 3500 
L 594 4494 
L 1172 4494 
z
" transform="scale(0.015625)"/>
       <path id="DejaVuSans-61" d="M 2194 1759 
Q 1497 1759 1228 1600 
Q 959 1441 959 1056 
Q 959 750 1161 570 
Q 1363 391 1709 391 
Q 2188 391 2477 730 
Q 2766 1069 2766 1631 
L 2766 1759 
L 2194 1759 
z
M 3341 1997 
L 3341 0 
L 2766 0 
L 2766 531 
Q 2569 213 2275 61 
Q 1981 -91 1556 -91 
Q 1019 -91 701 211 
Q 384 513 384 1019 
Q 384 1609 779 1909 
Q 1175 2209 1959 2209 
L 2766 2209 
L 2766 2266 
Q 2766 2663 2505 2880 
Q 2244 3097 1772 3097 
Q 1472 3097 1187 3025 
Q 903 2953 641 2809 
L 641 3341 
Q 956 3463 1253 3523 
Q 1550 3584 1831 3584 
Q 2591 3584 2966 3190 
Q 3341 2797 3341 1997 
z
" transform="scale(0.015625)"/>
       <path id="DejaVuSans-63" d="M 3122 3366 
L 3122 2828 
Q 2878 2963 2633 3030 
Q 2388 3097 2138 3097 
Q 1578 3097 1268 2742 
Q 959 2388 959 1747 
Q 959 1106 1268 751 
Q 1578 397 2138 397 
Q 2388 397 2633 464 
Q 2878 531 3122 666 
L 3122 134 
Q 2881 22 2623 -34 
Q 2366 -91 2075 -91 
Q 1284 -91 818 406 
Q 353 903 353 1747 
Q 353 2603 823 3093 
Q 1294 3584 2113 3584 
Q 2378 3584 2631 3529 
Q 2884 3475 3122 3366 
z
" transform="scale(0.015625)"/>
       <path id="DejaVuSans-5b" d="M 550 4863 
L 1875 4863 
L 1875 4416 
L 1125 4416 
L 1125 -397 
L 1875 -397 
L 1875 -844 
L 550 -844 
L 550 4863 
z
" transform="scale(0.015625)"/>
       <path id="DejaVuSans-25" d="M 4653 2053 
Q 4381 2053 4226 1822 
Q 4072 1591 4072 1178 
Q 4072 772 4226 539 
Q 4381 306 4653 306 
Q 4919 306 5073 539 
Q 5228 772 5228 1178 
Q 5228 1588 5073 1820 
Q 4919 2053 4653 2053 
z
M 4653 2450 
Q 5147 2450 5437 2106 
Q 5728 1763 5728 1178 
Q 5728 594 5436 251 
Q 5144 -91 4653 -91 
Q 4153 -91 3862 251 
Q 3572 594 3572 1178 
Q 3572 1766 3864 2108 
Q 4156 2450 4653 2450 
z
M 1428 4353 
Q 1159 4353 1004 4120 
Q 850 3888 850 3481 
Q 850 3069 1003 2837 
Q 1156 2606 1428 2606 
Q 1700 2606 1854 2837 
Q 2009 3069 2009 3481 
Q 2009 3884 1853 4118 
Q 1697 4353 1428 4353 
z
M 4250 4750 
L 4750 4750 
L 1831 -91 
L 1331 -91 
L 4250 4750 
z
M 1428 4750 
Q 1922 4750 2215 4408 
Q 2509 4066 2509 3481 
Q 2509 2891 2217 2550 
Q 1925 2209 1428 2209 
Q 931 2209 642 2551 
Q 353 2894 353 3481 
Q 353 4063 643 4406 
Q 934 4750 1428 4750 
z
" transform="scale(0.015625)"/>
       <path id="DejaVuSans-5d" d="M 1947 4863 
L 1947 -844 
L 622 -844 
L 622 -397 
L 1369 -397 
L 1369 4416 
L 622 4416 
L 622 4863 
L 1947 4863 
z
" transform="scale(0.015625)"/>
      </defs>
      <use xlink:href="#DejaVuSans-4b"/>
      <use xlink:href="#DejaVuSans-6f" x="60.576172"/>
      <use xlink:href="#DejaVuSans-6c" x="121.757812"/>
      <use xlink:href="#DejaVuSans-6d" x="149.541016"/>
      <use xlink:href="#DejaVuSans-6f" x="246.953125"/>
      <use xlink:href="#DejaVuSans-67" x="308.134766"/>
      <use xlink:href="#DejaVuSans-6f" x="371.611328"/>
      <use xlink:href="#DejaVuSans-72" x="432.792969"/>
      <use xlink:href="#DejaVuSans-6f" x="471.65625"/>
      <use xlink:href="#DejaVuSans-76" x="532.837891"/>
      <use xlink:href="#DejaVuSans-2d" x="589.392578"/>
      <use xlink:href="#DejaVuSans-53" x="625.476562"/>
      <use xlink:href="#DejaVuSans-6d" x="688.953125"/>
      <use xlink:href="#DejaVuSans-69" x="786.365234"/>
      <use xlink:href="#DejaVuSans-72" x="814.148438"/>
      <use xlink:href="#DejaVuSans-6e" x="853.511719"/>
      <use xlink:href="#DejaVuSans-6f" x="916.890625"/>
      <use xlink:href="#DejaVuSans-76" x="978.072266"/>
      <use xlink:href="#DejaVuSans-20" x="1037.251953"/>
      <use xlink:href="#DejaVuSans-73" x="1069.039062"/>
      <use xlink:href="#DejaVuSans-74" x="1121.138672"/>
      <use xlink:href="#DejaVuSans-61" x="1160.347656"/>
      <use xlink:href="#DejaVuSans-74" x="1221.626953"/>
      <use xlink:href="#DejaVuSans-69" x="1260.835938"/>
      <use xlink:href="#DejaVuSans-73" x="1288.619141"/>
      <use xlink:href="#DejaVuSans-69" x="1340.71875"/>
      <use xlink:href="#DejaVuSans-63" x="1368.501953"/>
      <use xlink:href="#DejaVuSans-20" x="1423.482422"/>
      <use xlink:href="#DejaVuSans-5b" x="1455.269531"/>
      <use xlink:href="#DejaVuSans-6d" x="1494.283203"/>
      <use xlink:href="#DejaVuSans-61" x="1591.695312"/>
      <use xlink:href="#DejaVuSans-73" x="1652.974609"/>
      <use xlink:href="#DejaVuSans-73" x="1705.074219"/>
      <use xlink:href="#DejaVuSans-20" x="1757.173828"/>
      <use xlink:href="#DejaVuSans-25" x="1788.960938"/>
      <use xlink:href="#DejaVuSans-5d" x="1883.980469"/>
     </g>
    </g>
   </g>
   <g id="line2d_21">
    <path d="M 86.960732 32.959866 
L 86.960732 111.766012 
" clip-path="url(#pc4b2a4182a)" style="fill: none; stroke: #000000; stroke-width: 1.5; stroke-linecap: square"/>
   </g>
   <g id="line2d_22">
    <path d="M 196.617588 32.788846 
L 196.617588 85.866357 
" clip-path="url(#pc4b2a4182a)" style="fill: none; stroke: #000000; stroke-width: 1.5; stroke-linecap: square"/>
   </g>
   <g id="patch_3">
    <path d="M 39.26 191 
L 39.26 10.8 
" style="fill: none; stroke: #000000; stroke-width: 0.8; stroke-linejoin: miter; stroke-linecap: square"/>
   </g>
   <g id="patch_4">
    <path d="M 244.31832 191 
L 244.31832 10.8 
" style="fill: none; stroke: #000000; stroke-width: 0.8; stroke-linejoin: miter; stroke-linecap: square"/>
   </g>
   <g id="patch_5">
    <path d="M 39.26 191 
L 244.31832 191 
" style="fill: none; stroke: #000000; stroke-width: 0.8; stroke-linejoin: miter; stroke-linecap: square"/>
   </g>
   <g id="patch_6">
    <path d="M 39.26 10.8 
L 244.31832 10.8 
" style="fill: none; stroke: #000000; stroke-width: 0.8; stroke-linejoin: miter; stroke-linecap: square"/>
   </g>
   <g id="text_12">
    <!-- $KS_{med}$ -->
    <g transform="translate(94.636712 52.523) scale(0.08 -0.08)">
     <defs>
      <path id="DejaVuSans-Oblique-4b" d="M 1081 4666 
L 1716 4666 
L 1331 2700 
L 3781 4666 
L 4622 4666 
L 1850 2438 
L 3878 0 
L 3109 0 
L 1247 2272 
L 806 0 
L 172 0 
L 1081 4666 
z
" transform="scale(0.015625)"/>
      <path id="DejaVuSans-Oblique-53" d="M 3859 4513 
L 3738 3897 
Q 3422 4066 3111 4152 
Q 2800 4238 2509 4238 
Q 1944 4238 1609 3991 
Q 1275 3744 1275 3334 
Q 1275 3109 1398 2989 
Q 1522 2869 2034 2731 
L 2413 2638 
Q 3053 2472 3303 2217 
Q 3553 1963 3553 1503 
Q 3553 797 2998 353 
Q 2444 -91 1538 -91 
Q 1166 -91 791 -17 
Q 416 56 38 206 
L 166 856 
Q 513 641 861 531 
Q 1209 422 1556 422 
Q 2147 422 2503 684 
Q 2859 947 2859 1369 
Q 2859 1650 2717 1795 
Q 2575 1941 2106 2059 
L 1728 2156 
Q 1081 2325 845 2545 
Q 609 2766 609 3163 
Q 609 3859 1145 4304 
Q 1681 4750 2541 4750 
Q 2875 4750 3203 4690 
Q 3531 4631 3859 4513 
z
" transform="scale(0.015625)"/>
      <path id="DejaVuSans-Oblique-6d" d="M 5747 2113 
L 5338 0 
L 4763 0 
L 5166 2094 
Q 5191 2228 5203 2325 
Q 5216 2422 5216 2491 
Q 5216 2772 5059 2928 
Q 4903 3084 4622 3084 
Q 4203 3084 3875 2770 
Q 3547 2456 3450 1953 
L 3066 0 
L 2491 0 
L 2900 2094 
Q 2925 2209 2937 2307 
Q 2950 2406 2950 2484 
Q 2950 2769 2794 2926 
Q 2638 3084 2363 3084 
Q 1938 3084 1609 2770 
Q 1281 2456 1184 1953 
L 800 0 
L 225 0 
L 909 3500 
L 1484 3500 
L 1375 2956 
Q 1609 3263 1923 3423 
Q 2238 3584 2597 3584 
Q 2978 3584 3223 3384 
Q 3469 3184 3519 2828 
Q 3781 3197 4126 3390 
Q 4472 3584 4856 3584 
Q 5306 3584 5551 3325 
Q 5797 3066 5797 2591 
Q 5797 2488 5784 2364 
Q 5772 2241 5747 2113 
z
" transform="scale(0.015625)"/>
      <path id="DejaVuSans-Oblique-65" d="M 3078 2063 
Q 3088 2113 3092 2166 
Q 3097 2219 3097 2272 
Q 3097 2653 2873 2875 
Q 2650 3097 2266 3097 
Q 1838 3097 1509 2826 
Q 1181 2556 1013 2059 
L 3078 2063 
z
M 3578 1613 
L 903 1613 
Q 884 1494 878 1425 
Q 872 1356 872 1306 
Q 872 872 1139 634 
Q 1406 397 1894 397 
Q 2269 397 2603 481 
Q 2938 566 3225 728 
L 3116 159 
Q 2806 34 2476 -28 
Q 2147 -91 1806 -91 
Q 1078 -91 686 257 
Q 294 606 294 1247 
Q 294 1794 489 2264 
Q 684 2734 1063 3103 
Q 1306 3334 1642 3459 
Q 1978 3584 2356 3584 
Q 2950 3584 3301 3228 
Q 3653 2872 3653 2272 
Q 3653 2128 3634 1964 
Q 3616 1800 3578 1613 
z
" transform="scale(0.015625)"/>
      <path id="DejaVuSans-Oblique-64" d="M 2675 525 
Q 2444 222 2128 65 
Q 1813 -91 1428 -91 
Q 903 -91 598 267 
Q 294 625 294 1247 
Q 294 1766 478 2236 
Q 663 2706 1013 3078 
Q 1244 3325 1534 3454 
Q 1825 3584 2144 3584 
Q 2481 3584 2739 3421 
Q 2997 3259 3138 2956 
L 3513 4863 
L 4091 4863 
L 3144 0 
L 2566 0 
L 2675 525 
z
M 891 1350 
Q 891 897 1095 644 
Q 1300 391 1663 391 
Q 1931 391 2161 520 
Q 2391 650 2566 903 
Q 2750 1166 2856 1509 
Q 2963 1853 2963 2188 
Q 2963 2622 2758 2865 
Q 2553 3109 2194 3109 
Q 1922 3109 1687 2981 
Q 1453 2853 1288 2613 
Q 1106 2353 998 2009 
Q 891 1666 891 1350 
z
" transform="scale(0.015625)"/>
     </defs>
     <use xlink:href="#DejaVuSans-Oblique-4b" transform="translate(0 0.78125)"/>
     <use xlink:href="#DejaVuSans-Oblique-53" transform="translate(65.576172 0.78125)"/>
     <use xlink:href="#DejaVuSans-Oblique-6d" transform="translate(129.052734 -15.625) scale(0.7)"/>
     <use xlink:href="#DejaVuSans-Oblique-65" transform="translate(197.241211 -15.625) scale(0.7)"/>
     <use xlink:href="#DejaVuSans-Oblique-64" transform="translate(240.307617 -15.625) scale(0.7)"/>
    </g>
    <!-- 3.5% -->
    <g transform="translate(94.636712 61.48125) scale(0.08 -0.08)">
     <defs>
      <path id="DejaVuSans-2e" d="M 684 794 
L 1344 794 
L 1344 0 
L 684 0 
L 684 794 
z
" transform="scale(0.015625)"/>
      <path id="DejaVuSans-35" d="M 691 4666 
L 3169 4666 
L 3169 4134 
L 1269 4134 
L 1269 2991 
Q 1406 3038 1543 3061 
Q 1681 3084 1819 3084 
Q 2600 3084 3056 2656 
Q 3513 2228 3513 1497 
Q 3513 744 3044 326 
Q 2575 -91 1722 -91 
Q 1428 -91 1123 -41 
Q 819 9 494 109 
L 494 744 
Q 775 591 1075 516 
Q 1375 441 1709 441 
Q 2250 441 2565 725 
Q 2881 1009 2881 1497 
Q 2881 1984 2565 2268 
Q 2250 2553 1709 2553 
Q 1456 2553 1204 2497 
Q 953 2441 691 2322 
L 691 4666 
z
" transform="scale(0.015625)"/>
     </defs>
     <use xlink:href="#DejaVuSans-33"/>
     <use xlink:href="#DejaVuSans-2e" x="63.623047"/>
     <use xlink:href="#DejaVuSans-35" x="95.410156"/>
     <use xlink:href="#DejaVuSans-25" x="159.033203"/>
    </g>
   </g>
   <g id="text_13">
    <!-- $KS_{p95}$ -->
    <g transform="translate(94.636712 118.1625) scale(0.08 -0.08)">
     <defs>
      <path id="DejaVuSans-Oblique-70" d="M 3175 2156 
Q 3175 2616 2975 2859 
Q 2775 3103 2400 3103 
Q 2144 3103 1911 2972 
Q 1678 2841 1497 2591 
Q 1319 2344 1212 1994 
Q 1106 1644 1106 1300 
Q 1106 863 1306 627 
Q 1506 391 1875 391 
Q 2147 391 2380 519 
Q 2613 647 2778 891 
Q 2956 1147 3065 1494 
Q 3175 1841 3175 2156 
z
M 1394 2969 
Q 1625 3272 1939 3428 
Q 2253 3584 2638 3584 
Q 3175 3584 3472 3232 
Q 3769 2881 3769 2247 
Q 3769 1728 3584 1258 
Q 3400 788 3053 416 
Q 2822 169 2531 39 
Q 2241 -91 1919 -91 
Q 1547 -91 1294 64 
Q 1041 219 916 525 
L 556 -1331 
L -19 -1331 
L 922 3500 
L 1497 3500 
L 1394 2969 
z
" transform="scale(0.015625)"/>
     </defs>
     <use xlink:href="#DejaVuSans-Oblique-4b" transform="translate(0 0.78125)"/>
     <use xlink:href="#DejaVuSans-Oblique-53" transform="translate(65.576172 0.78125)"/>
     <use xlink:href="#DejaVuSans-Oblique-70" transform="translate(129.052734 -15.625) scale(0.7)"/>
     <use xlink:href="#DejaVuSans-39" transform="translate(173.486328 -15.625) scale(0.7)"/>
     <use xlink:href="#DejaVuSans-35" transform="translate(218.022461 -15.625) scale(0.7)"/>
    </g>
    <!-- 8.0% -->
    <g transform="translate(94.636712 127.937) scale(0.08 -0.08)">
     <use xlink:href="#DejaVuSans-38"/>
     <use xlink:href="#DejaVuSans-2e" x="63.623047"/>
     <use xlink:href="#DejaVuSans-30" x="95.410156"/>
     <use xlink:href="#DejaVuSans-25" x="159.033203"/>
    </g>
   </g>
   <g id="text_14">
    <!-- $KS_{med}$ -->
    <g transform="translate(204.293568 42.38675) scale(0.08 -0.08)">
     <use xlink:href="#DejaVuSans-Oblique-4b" transform="translate(0 0.78125)"/>
     <use xlink:href="#DejaVuSans-Oblique-53" transform="translate(65.576172 0.78125)"/>
     <use xlink:href="#DejaVuSans-Oblique-6d" transform="translate(129.052734 -15.625) scale(0.7)"/>
     <use xlink:href="#DejaVuSans-Oblique-65" transform="translate(197.241211 -15.625) scale(0.7)"/>
     <use xlink:href="#DejaVuSans-Oblique-64" transform="translate(240.307617 -15.625) scale(0.7)"/>
    </g>
    <!-- 2.6% -->
    <g transform="translate(204.293568 51.345) scale(0.08 -0.08)">
     <use xlink:href="#DejaVuSans-32"/>
     <use xlink:href="#DejaVuSans-2e" x="63.623047"/>
     <use xlink:href="#DejaVuSans-36" x="95.410156"/>
     <use xlink:href="#DejaVuSans-25" x="159.033203"/>
    </g>
   </g>
   <g id="text_15">
    <!-- $KS_{p95}$ -->
    <g transform="translate(204.293568 92.25875) scale(0.08 -0.08)">
     <use xlink:href="#DejaVuSans-Oblique-4b" transform="translate(0 0.78125)"/>
     <use xlink:href="#DejaVuSans-Oblique-53" transform="translate(65.576172 0.78125)"/>
     <use xlink:href="#DejaVuSans-Oblique-70" transform="translate(129.052734 -15.625) scale(0.7)"/>
     <use xlink:href="#DejaVuSans-39" transform="translate(173.486328 -15.625) scale(0.7)"/>
     <use xlink:href="#DejaVuSans-35" transform="translate(218.022461 -15.625) scale(0.7)"/>
    </g>
    <!-- 5.7% -->
    <g transform="translate(204.293568 102.03325) scale(0.08 -0.08)">
     <use xlink:href="#DejaVuSans-35"/>
     <use xlink:href="#DejaVuSans-2e" x="63.623047"/>
     <use xlink:href="#DejaVuSans-37" x="95.410156"/>
     <use xlink:href="#DejaVuSans-25" x="159.033203"/>
    </g>
   </g>
   <g id="PathCollection_1">
    <defs>
     <path id="m74664d9e13" d="M 0 5 
C 1.326016 5 2.597899 4.473168 3.535534 3.535534 
C 4.473168 2.597899 5 1.326016 5 0 
C 5 -1.326016 4.473168 -2.597899 3.535534 -3.535534 
C 2.597899 -4.473168 1.326016 -5 0 -5 
C -1.326016 -5 -2.597899 -4.473168 -3.535534 -3.535534 
C -4.473168 -2.597899 -5 -1.326016 -5 0 
C -5 1.326016 -4.473168 2.597899 -3.535534 3.535534 
C -2.597899 4.473168 -1.326016 5 0 5 
z
" style="stroke: #000000"/>
    </defs>
    <g clip-path="url(#pc4b2a4182a)">
     <use xlink:href="#m74664d9e13" x="86.960732" y="61.48125" style="fill: #ffffff; stroke: #000000"/>
     <use xlink:href="#m74664d9e13" x="196.617588" y="51.345" style="fill: #ffffff; stroke: #000000"/>
    </g>
   </g>
   <g id="PathCollection_2">
    <defs>
     <path id="m62a0763235" d="M 0 3.535534 
C 0.937635 3.535534 1.836992 3.163008 2.5 2.5 
C 3.163008 1.836992 3.535534 0.937635 3.535534 0 
C 3.535534 -0.937635 3.163008 -1.836992 2.5 -2.5 
C 1.836992 -3.163008 0.937635 -3.535534 0 -3.535534 
C -0.937635 -3.535534 -1.836992 -3.163008 -2.5 -2.5 
C -3.163008 -1.836992 -3.535534 -0.937635 -3.535534 0 
C -3.535534 0.937635 -3.163008 1.836992 -2.5 2.5 
C -1.836992 3.163008 -0.937635 3.535534 0 3.535534 
z
" style="stroke: #000000"/>
    </defs>
    <g clip-path="url(#pc4b2a4182a)">
     <use xlink:href="#m62a0763235" x="86.960732" y="112.1625" style="stroke: #000000"/>
     <use xlink:href="#m62a0763235" x="196.617588" y="86.25875" style="stroke: #000000"/>
    </g>
   </g>
  </g>
 </g>
 <defs>
  <clipPath id="pc4b2a4182a">
   <rect x="39.26" y="10.8" width="205.05832" height="180.2"/>
  </clipPath>
 </defs>
</svg>
