<?xml version="1.0" encoding="utf-8" standalone="no"?>
<!DOCTYPE svg PUBLIC "-//W3C//DTD SVG 1.1//EN"
  "http://www.w3.org/Graphics/SVG/1.1/DTD/svg11.dtd">
<svg xmlns:xlink="http://www.w3.org/1999/xlink" width="255.11832pt" height="216pt" viewBox="0 0 255.11832 216" xmlns="http://www.w3.org/2000/svg" version="1.1">
 <metadata>
  <rdf:RDF xmlns:dc="http://purl.org/dc/elements/1.1/" xmlns:cc="http://creativecommons.org/ns#" xmlns:rdf="http://www.w3.org/1999/02/22-rdf-syntax-ns#">
   <cc:Work>
    <dc:type rdf:resource="http://purl.org/dc/dcmitype/StillImage"/>
    <dc:date>2024-11-27T14:32:42.695624</dc:date>
    <dc:format>image/svg+xml</dc:format>
    <dc:creator>
     <cc:Agent>
      <dc:title>Matplotlib v3.9.2, https://matplotlib.org/</dc:title>
     </cc:Agent>
    </dc:creator>
   </cc:Work>
  </rdf:RDF>
 </metadata>
 <defs>
  <style type="text/css">*{stroke-linejoin: round; stroke-linecap: butt}</style>
 </defs>
 <g id="figure_1">
  <g id="patch_1">
   <path d="M 0 216 
L 255.11832 216 
L 255.11832 0 
L 0 0 
z
" style="fill: #ffffff"/>
  </g>
  <g id="axes_1">
   <g id="patch_2">
    <path d="M 39.26 191 
L 236.761242 191 
L 236.761242 10.8 
L 39.26 10.8 
z
" style="fill: #ffffff"/>
   </g>
   <g id="PolyCollection_1">
    <defs>
     <path id="m302fa6f2a1" d="M 89.466002 -193.9375 
L 80.939602 -193.9375 
L 79.455433 -192.336328 
L 77.702241 -190.735156 
L 75.705198 -189.133984 
L 73.50769 -187.532812 
L 71.167513 -185.931641 
L 68.750867 -184.330469 
L 66.3247 -182.729297 
L 63.948213 -181.128125 
L 61.665177 -179.526953 
L 59.499826 -177.925781 
L 57.459379 -176.324609 
L 55.544222 -174.723437 
L 53.762693 -173.122265 
L 52.14346 -171.521094 
L 50.73781 -169.919922 
L 49.608386 -168.31875 
L 48.808051 -166.717578 
L 48.358287 -165.116406 
L 48.237329 -163.515234 
L 48.383642 -161.914062 
L 48.713427 -160.31289 
L 49.145215 -158.711718 
L 49.622493 -157.110547 
L 50.126667 -155.509375 
L 50.676394 -153.908203 
L 51.314234 -152.307031 
L 52.086264 -150.705859 
L 53.022921 -149.104687 
L 54.128439 -147.503515 
L 55.381816 -145.902343 
L 56.746581 -144.301171 
L 58.182974 -142.7 
L 59.656373 -141.098828 
L 61.139259 -139.497656 
L 62.608229 -137.896484 
L 64.040195 -136.295312 
L 65.41166 -134.69414 
L 66.70246 -133.092968 
L 67.902053 -131.491796 
L 69.01412 -129.890625 
L 70.055561 -128.289453 
L 71.048909 -126.688281 
L 72.011223 -125.087109 
L 72.945254 -123.485937 
L 73.837948 -121.884765 
L 74.667502 -120.283593 
L 75.415298 -118.682421 
L 76.07615 -117.081249 
L 76.66129 -115.480078 
L 77.192704 -113.878906 
L 77.692244 -112.277734 
L 78.171593 -110.676562 
L 78.628226 -109.07539 
L 79.049063 -107.474218 
L 79.419583 -105.873046 
L 79.733801 -104.271874 
L 80.000403 -102.670702 
L 80.242241 -101.069531 
L 80.489292 -99.468359 
L 80.768051 -97.867187 
L 81.091824 -96.266015 
L 81.455986 -94.664843 
L 81.839938 -93.063671 
L 82.214555 -91.462499 
L 82.551761 -89.861327 
L 82.832555 -88.260155 
L 83.051054 -86.658984 
L 83.214043 -85.057812 
L 83.337071 -83.45664 
L 83.438906 -81.855468 
L 83.536196 -80.254296 
L 83.639857 -78.653124 
L 83.753954 -77.051952 
L 83.876977 -75.45078 
L 84.004536 -73.849608 
L 84.132097 -72.248437 
L 84.256562 -70.647265 
L 84.376317 -69.046093 
L 84.490164 -67.444921 
L 84.596119 -65.843749 
L 84.690947 -64.242577 
L 84.770769 -62.641405 
L 84.832424 -61.040233 
L 84.874819 -59.439061 
L 84.89952 -57.83789 
L 84.91027 -56.236718 
L 84.911685 -54.635546 
L 84.907813 -53.034374 
L 84.901267 -51.433202 
L 84.893302 -49.83203 
L 84.884625 -48.230858 
L 84.876354 -46.629686 
L 84.870483 -45.028514 
L 84.869602 -43.427343 
L 84.876084 -41.826171 
L 84.891261 -40.224999 
L 84.915035 -38.623827 
L 84.945996 -37.022655 
L 84.981887 -35.421483 
L 85.423717 -35.421483 
L 85.423717 -35.421483 
L 85.459608 -37.022655 
L 85.49057 -38.623827 
L 85.514343 -40.224999 
L 85.529521 -41.826171 
L 85.536002 -43.427343 
L 85.535121 -45.028514 
L 85.529251 -46.629686 
L 85.52098 -48.230858 
L 85.512303 -49.83203 
L 85.504337 -51.433202 
L 85.497792 -53.034374 
L 85.493919 -54.635546 
L 85.495335 -56.236718 
L 85.506084 -57.83789 
L 85.530785 -59.439061 
L 85.57318 -61.040233 
L 85.634836 -62.641405 
L 85.714658 -64.242577 
L 85.809485 -65.843749 
L 85.915441 -67.444921 
L 86.029288 -69.046093 
L 86.149043 -70.647265 
L 86.273508 -72.248437 
L 86.401068 -73.849608 
L 86.528628 -75.45078 
L 86.65165 -77.051952 
L 86.765747 -78.653124 
L 86.869408 -80.254296 
L 86.966698 -81.855468 
L 87.068533 -83.45664 
L 87.191562 -85.057812 
L 87.35455 -86.658984 
L 87.573049 -88.260155 
L 87.853844 -89.861327 
L 88.19105 -91.462499 
L 88.565666 -93.063671 
L 88.949619 -94.664843 
L 89.313781 -96.266015 
L 89.637554 -97.867187 
L 89.916312 -99.468359 
L 90.163363 -101.069531 
L 90.405201 -102.670702 
L 90.671804 -104.271874 
L 90.986021 -105.873046 
L 91.356541 -107.474218 
L 91.777378 -109.07539 
L 92.234012 -110.676562 
L 92.713361 -112.277734 
L 93.212901 -113.878906 
L 93.744314 -115.480078 
L 94.329454 -117.081249 
L 94.990306 -118.682421 
L 95.738102 -120.283593 
L 96.567657 -121.884765 
L 97.46035 -123.485937 
L 98.394381 -125.087109 
L 99.356695 -126.688281 
L 100.350043 -128.289453 
L 101.391485 -129.890625 
L 102.503551 -131.491796 
L 103.703144 -133.092968 
L 104.993945 -134.69414 
L 106.365409 -136.295312 
L 107.797376 -137.896484 
L 109.266346 -139.497656 
L 110.749231 -141.098828 
L 112.222631 -142.7 
L 113.659023 -144.301171 
L 115.023788 -145.902343 
L 116.277166 -147.503515 
L 117.382684 -149.104687 
L 118.31934 -150.705859 
L 119.091371 -152.307031 
L 119.729211 -153.908203 
L 120.278937 -155.509375 
L 120.783111 -157.110547 
L 121.260389 -158.711718 
L 121.692177 -160.31289 
L 122.021962 -161.914062 
L 122.168275 -163.515234 
L 122.047317 -165.116406 
L 121.597553 -166.717578 
L 120.797218 -168.31875 
L 119.667795 -169.919922 
L 118.262144 -171.521094 
L 116.642911 -173.122265 
L 114.861382 -174.723437 
L 112.946225 -176.324609 
L 110.905779 -177.925781 
L 108.740428 -179.526953 
L 106.457391 -181.128125 
L 104.080905 -182.729297 
L 101.654738 -184.330469 
L 99.238091 -185.931641 
L 96.897914 -187.532812 
L 94.700407 -189.133984 
L 92.703364 -190.735156 
L 90.950171 -192.336328 
L 89.466002 -193.9375 
z
" style="stroke: #000000"/>
    </defs>
    <g clip-path="url(#pcccc31c27d)">
     <use xlink:href="#m302fa6f2a1" x="0" y="216" style="fill: #808080; stroke: #000000"/>
    </g>
   </g>
   <g id="PolyCollection_2">
    <defs>
     <path id="m8d272bea9c" d="M 193.123496 -193.9375 
L 188.513383 -193.9375 
L 187.746007 -192.821916 
L 186.793657 -191.706332 
L 185.620454 -190.590747 
L 184.185972 -189.475163 
L 182.448723 -188.359579 
L 180.373653 -187.243995 
L 177.944545 -186.12841 
L 175.179719 -185.012826 
L 172.145873 -183.897242 
L 168.962806 -182.781658 
L 165.793145 -181.666073 
L 162.816552 -180.550489 
L 160.194911 -179.434905 
L 158.039924 -178.319321 
L 156.394518 -177.203736 
L 155.234151 -176.088152 
L 154.486152 -174.972568 
L 154.058516 -173.856984 
L 153.867145 -172.7414 
L 153.852966 -171.625815 
L 153.985914 -170.510231 
L 154.258329 -169.394647 
L 154.673322 -168.279063 
L 155.233411 -167.163478 
L 155.932462 -166.047894 
L 156.751731 -164.93231 
L 157.659872 -163.816726 
L 158.616891 -162.701141 
L 159.581871 -161.585557 
L 160.523008 -160.469973 
L 161.426717 -159.354389 
L 162.301833 -158.238804 
L 163.176398 -157.12322 
L 164.087783 -156.007636 
L 165.069981 -154.892052 
L 166.142876 -153.776468 
L 167.306909 -152.660883 
L 168.543792 -151.545299 
L 169.821725 -150.429715 
L 171.102799 -149.314131 
L 172.350624 -148.198546 
L 173.536853 -147.082962 
L 174.645521 -145.967378 
L 175.674331 -144.851794 
L 176.63264 -143.736209 
L 177.536888 -142.620625 
L 178.405176 -141.505041 
L 179.252689 -140.389457 
L 180.088979 -139.273872 
L 180.91712 -138.158288 
L 181.734286 -137.042704 
L 182.533197 -135.92712 
L 183.303981 -134.811536 
L 184.035825 -133.695951 
L 184.717762 -132.580367 
L 185.338359 -131.464783 
L 185.884884 -130.349199 
L 186.34332 -129.233614 
L 186.700538 -128.11803 
L 186.948877 -127.002446 
L 187.091779 -125.886862 
L 187.147822 -124.771277 
L 187.15049 -123.655693 
L 187.142509 -122.540109 
L 187.16608 -121.424525 
L 187.252551 -120.308941 
L 187.415585 -119.193356 
L 187.650357 -118.077772 
L 187.938403 -116.962188 
L 188.255321 -115.846604 
L 188.577785 -114.731019 
L 188.887547 -113.615435 
L 189.17221 -112.499851 
L 189.424149 -111.384267 
L 189.639225 -110.268682 
L 189.816184 -109.153098 
L 189.956588 -108.037514 
L 190.06461 -106.92193 
L 190.146207 -105.806345 
L 190.207804 -104.690761 
L 190.255007 -103.575177 
L 190.291884 -102.459593 
L 190.32094 -101.344009 
L 190.343545 -100.228424 
L 190.360476 -99.11284 
L 190.372347 -97.997256 
L 190.379912 -96.881672 
L 190.38425 -95.766087 
L 190.386814 -94.650503 
L 190.389285 -93.534919 
L 190.393281 -92.419335 
L 190.400087 -91.30375 
L 190.410547 -90.188166 
L 190.425185 -89.072582 
L 190.444408 -87.956998 
L 190.468633 -86.841413 
L 190.498174 -85.725829 
L 190.532942 -84.610245 
L 190.572118 -83.494661 
L 191.064761 -83.494661 
L 191.064761 -83.494661 
L 191.103937 -84.610245 
L 191.138705 -85.725829 
L 191.168246 -86.841413 
L 191.192471 -87.956998 
L 191.211695 -89.072582 
L 191.226332 -90.188166 
L 191.236792 -91.30375 
L 191.243598 -92.419335 
L 191.247594 -93.534919 
L 191.250065 -94.650503 
L 191.252629 -95.766087 
L 191.256967 -96.881672 
L 191.264532 -97.997256 
L 191.276403 -99.11284 
L 191.293334 -100.228424 
L 191.315939 -101.344009 
L 191.344995 -102.459593 
L 191.381872 -103.575177 
L 191.429075 -104.690761 
L 191.490672 -105.806345 
L 191.572269 -106.92193 
L 191.680291 -108.037514 
L 191.820695 -109.153098 
L 191.997654 -110.268682 
L 192.21273 -111.384267 
L 192.464669 -112.499851 
L 192.749332 -113.615435 
L 193.059094 -114.731019 
L 193.381558 -115.846604 
L 193.698476 -116.962188 
L 193.986522 -118.077772 
L 194.221294 -119.193356 
L 194.384328 -120.308941 
L 194.470799 -121.424525 
L 194.49437 -122.540109 
L 194.486389 -123.655693 
L 194.489057 -124.771277 
L 194.5451 -125.886862 
L 194.688002 -127.002446 
L 194.936341 -128.11803 
L 195.293559 -129.233614 
L 195.751995 -130.349199 
L 196.29852 -131.464783 
L 196.919117 -132.580367 
L 197.601054 -133.695951 
L 198.332898 -134.811536 
L 199.103682 -135.92712 
L 199.902593 -137.042704 
L 200.719759 -138.158288 
L 201.5479 -139.273872 
L 202.38419 -140.389457 
L 203.231703 -141.505041 
L 204.099991 -142.620625 
L 205.004239 -143.736209 
L 205.962548 -144.851794 
L 206.991358 -145.967378 
L 208.100026 -147.082962 
L 209.286255 -148.198546 
L 210.53408 -149.314131 
L 211.815154 -150.429715 
L 213.093087 -151.545299 
L 214.32997 -152.660883 
L 215.494003 -153.776468 
L 216.566898 -154.892052 
L 217.549096 -156.007636 
L 218.460481 -157.12322 
L 219.335046 -158.238804 
L 220.210162 -159.354389 
L 221.113872 -160.469973 
L 222.055008 -161.585557 
L 223.019988 -162.701141 
L 223.977007 -163.816726 
L 224.885148 -164.93231 
L 225.704417 -166.047894 
L 226.403468 -167.163478 
L 226.963557 -168.279063 
L 227.37855 -169.394647 
L 227.650965 -170.510231 
L 227.783913 -171.625815 
L 227.769734 -172.7414 
L 227.578363 -173.856984 
L 227.150727 -174.972568 
L 226.402728 -176.088152 
L 225.242361 -177.203736 
L 223.596955 -178.319321 
L 221.441968 -179.434905 
L 218.820327 -180.550489 
L 215.843734 -181.666073 
L 212.674073 -182.781658 
L 209.491006 -183.897242 
L 206.45716 -185.012826 
L 203.692334 -186.12841 
L 201.263226 -187.243995 
L 199.188156 -188.359579 
L 197.450907 -189.475163 
L 196.016425 -190.590747 
L 194.843222 -191.706332 
L 193.890872 -192.821916 
L 193.123496 -193.9375 
z
" style="stroke: #000000"/>
    </defs>
    <g clip-path="url(#pcccc31c27d)">
     <use xlink:href="#m8d272bea9c" x="0" y="216" style="fill: #808080; stroke: #000000"/>
    </g>
   </g>
   <g id="matplotlib.axis_1">
    <g id="xtick_1">
     <g id="line2d_1">
      <path d="M 85.202802 191 
L 85.202802 10.8 
" clip-path="url(#pcccc31c27d)" style="fill: none; stroke: #b0b0b0; stroke-opacity: 0.3; stroke-width: 0.8; stroke-linecap: square"/>
     </g>
     <g id="line2d_2">
      <defs>
       <path id="m4ac0951157" d="M 0 0 
L 0 3.5 
" style="stroke: #000000; stroke-width: 0.8"/>
      </defs>
      <g>
       <use xlink:href="#m4ac0951157" x="85.202802" y="191" style="stroke: #000000; stroke-width: 0.8"/>
      </g>
     </g>
     <g id="text_1">
      <!-- ISO 17892-4 -->
      <g transform="translate(60.350302 204.07875) scale(0.08 -0.08)">
       <defs>
        <path id="DejaVuSans-49" d="M 628 4666 
L 1259 4666 
L 1259 0 
L 628 0 
L 628 4666 
z
" transform="scale(0.015625)"/>
        <path id="DejaVuSans-53" d="M 3425 4513 
L 3425 3897 
Q 3066 4069 2747 4153 
Q 2428 4238 2131 4238 
Q 1616 4238 1336 4038 
Q 1056 3838 1056 3469 
Q 1056 3159 1242 3001 
Q 1428 2844 1947 2747 
L 2328 2669 
Q 3034 2534 3370 2195 
Q 3706 1856 3706 1288 
Q 3706 609 3251 259 
Q 2797 -91 1919 -91 
Q 1588 -91 1214 -16 
Q 841 59 441 206 
L 441 856 
Q 825 641 1194 531 
Q 1563 422 1919 422 
Q 2459 422 2753 634 
Q 3047 847 3047 1241 
Q 3047 1584 2836 1778 
Q 2625 1972 2144 2069 
L 1759 2144 
Q 1053 2284 737 2584 
Q 422 2884 422 3419 
Q 422 4038 858 4394 
Q 1294 4750 2059 4750 
Q 2388 4750 2728 4690 
Q 3069 4631 3425 4513 
z
" transform="scale(0.015625)"/>
        <path id="DejaVuSans-4f" d="M 2522 4238 
Q 1834 4238 1429 3725 
Q 1025 3213 1025 2328 
Q 1025 1447 1429 934 
Q 1834 422 2522 422 
Q 3209 422 3611 934 
Q 4013 1447 4013 2328 
Q 4013 3213 3611 3725 
Q 3209 4238 2522 4238 
z
M 2522 4750 
Q 3503 4750 4090 4092 
Q 4678 3434 4678 2328 
Q 4678 1225 4090 567 
Q 3503 -91 2522 -91 
Q 1538 -91 948 565 
Q 359 1222 359 2328 
Q 359 3434 948 4092 
Q 1538 4750 2522 4750 
z
" transform="scale(0.015625)"/>
        <path id="DejaVuSans-20" transform="scale(0.015625)"/>
        <path id="DejaVuSans-31" d="M 794 531 
L 1825 531 
L 1825 4091 
L 703 3866 
L 703 4441 
L 1819 4666 
L 2450 4666 
L 2450 531 
L 3481 531 
L 3481 0 
L 794 0 
L 794 531 
z
" transform="scale(0.015625)"/>
        <path id="DejaVuSans-37" d="M 525 4666 
L 3525 4666 
L 3525 4397 
L 1831 0 
L 1172 0 
L 2766 4134 
L 525 4134 
L 525 4666 
z
" transform="scale(0.015625)"/>
        <path id="DejaVuSans-38" d="M 2034 2216 
Q 1584 2216 1326 1975 
Q 1069 1734 1069 1313 
Q 1069 891 1326 650 
Q 1584 409 2034 409 
Q 2484 409 2743 651 
Q 3003 894 3003 1313 
Q 3003 1734 2745 1975 
Q 2488 2216 2034 2216 
z
M 1403 2484 
Q 997 2584 770 2862 
Q 544 3141 544 3541 
Q 544 4100 942 4425 
Q 1341 4750 2034 4750 
Q 2731 4750 3128 4425 
Q 3525 4100 3525 3541 
Q 3525 3141 3298 2862 
Q 3072 2584 2669 2484 
Q 3125 2378 3379 2068 
Q 3634 1759 3634 1313 
Q 3634 634 3220 271 
Q 2806 -91 2034 -91 
Q 1263 -91 848 271 
Q 434 634 434 1313 
Q 434 1759 690 2068 
Q 947 2378 1403 2484 
z
M 1172 3481 
Q 1172 3119 1398 2916 
Q 1625 2713 2034 2713 
Q 2441 2713 2670 2916 
Q 2900 3119 2900 3481 
Q 2900 3844 2670 4047 
Q 2441 4250 2034 4250 
Q 1625 4250 1398 4047 
Q 1172 3844 1172 3481 
z
" transform="scale(0.015625)"/>
        <path id="DejaVuSans-39" d="M 703 97 
L 703 672 
Q 941 559 1184 500 
Q 1428 441 1663 441 
Q 2288 441 2617 861 
Q 2947 1281 2994 2138 
Q 2813 1869 2534 1725 
Q 2256 1581 1919 1581 
Q 1219 1581 811 2004 
Q 403 2428 403 3163 
Q 403 3881 828 4315 
Q 1253 4750 1959 4750 
Q 2769 4750 3195 4129 
Q 3622 3509 3622 2328 
Q 3622 1225 3098 567 
Q 2575 -91 1691 -91 
Q 1453 -91 1209 -44 
Q 966 3 703 97 
z
M 1959 2075 
Q 2384 2075 2632 2365 
Q 2881 2656 2881 3163 
Q 2881 3666 2632 3958 
Q 2384 4250 1959 4250 
Q 1534 4250 1286 3958 
Q 1038 3666 1038 3163 
Q 1038 2656 1286 2365 
Q 1534 2075 1959 2075 
z
" transform="scale(0.015625)"/>
        <path id="DejaVuSans-32" d="M 1228 531 
L 3431 531 
L 3431 0 
L 469 0 
L 469 531 
Q 828 903 1448 1529 
Q 2069 2156 2228 2338 
Q 2531 2678 2651 2914 
Q 2772 3150 2772 3378 
Q 2772 3750 2511 3984 
Q 2250 4219 1831 4219 
Q 1534 4219 1204 4116 
Q 875 4013 500 3803 
L 500 4441 
Q 881 4594 1212 4672 
Q 1544 4750 1819 4750 
Q 2544 4750 2975 4387 
Q 3406 4025 3406 3419 
Q 3406 3131 3298 2873 
Q 3191 2616 2906 2266 
Q 2828 2175 2409 1742 
Q 1991 1309 1228 531 
z
" transform="scale(0.015625)"/>
        <path id="DejaVuSans-2d" d="M 313 2009 
L 1997 2009 
L 1997 1497 
L 313 1497 
L 313 2009 
z
" transform="scale(0.015625)"/>
        <path id="DejaVuSans-34" d="M 2419 4116 
L 825 1625 
L 2419 1625 
L 2419 4116 
z
M 2253 4666 
L 3047 4666 
L 3047 1625 
L 3713 1625 
L 3713 1100 
L 3047 1100 
L 3047 0 
L 2419 0 
L 2419 1100 
L 313 1100 
L 313 1709 
L 2253 4666 
z
" transform="scale(0.015625)"/>
       </defs>
       <use xlink:href="#DejaVuSans-49"/>
       <use xlink:href="#DejaVuSans-53" x="29.492188"/>
       <use xlink:href="#DejaVuSans-4f" x="92.96875"/>
       <use xlink:href="#DejaVuSans-20" x="171.679688"/>
       <use xlink:href="#DejaVuSans-31" x="203.466797"/>
       <use xlink:href="#DejaVuSans-37" x="267.089844"/>
       <use xlink:href="#DejaVuSans-38" x="330.712891"/>
       <use xlink:href="#DejaVuSans-39" x="394.335938"/>
       <use xlink:href="#DejaVuSans-32" x="457.958984"/>
       <use xlink:href="#DejaVuSans-2d" x="521.582031"/>
       <use xlink:href="#DejaVuSans-34" x="557.666016"/>
      </g>
     </g>
    </g>
    <g id="xtick_2">
     <g id="line2d_3">
      <path d="M 190.81844 191 
L 190.81844 10.8 
" clip-path="url(#pcccc31c27d)" style="fill: none; stroke: #b0b0b0; stroke-opacity: 0.3; stroke-width: 0.8; stroke-linecap: square"/>
     </g>
     <g id="line2d_4">
      <g>
       <use xlink:href="#m4ac0951157" x="190.81844" y="191" style="stroke: #000000; stroke-width: 0.8"/>
      </g>
     </g>
     <g id="text_2">
      <!-- ASTM D6913/D6913M – 17 -->
      <g transform="translate(137.42594 204.07875) scale(0.08 -0.08)">
       <defs>
        <path id="DejaVuSans-41" d="M 2188 4044 
L 1331 1722 
L 3047 1722 
L 2188 4044 
z
M 1831 4666 
L 2547 4666 
L 4325 0 
L 3669 0 
L 3244 1197 
L 1141 1197 
L 716 0 
L 50 0 
L 1831 4666 
z
" transform="scale(0.015625)"/>
        <path id="DejaVuSans-54" d="M -19 4666 
L 3928 4666 
L 3928 4134 
L 2272 4134 
L 2272 0 
L 1638 0 
L 1638 4134 
L -19 4134 
L -19 4666 
z
" transform="scale(0.015625)"/>
        <path id="DejaVuSans-4d" d="M 628 4666 
L 1569 4666 
L 2759 1491 
L 3956 4666 
L 4897 4666 
L 4897 0 
L 4281 0 
L 4281 4097 
L 3078 897 
L 2444 897 
L 1241 4097 
L 1241 0 
L 628 0 
L 628 4666 
z
" transform="scale(0.015625)"/>
        <path id="DejaVuSans-44" d="M 1259 4147 
L 1259 519 
L 2022 519 
Q 2988 519 3436 956 
Q 3884 1394 3884 2338 
Q 3884 3275 3436 3711 
Q 2988 4147 2022 4147 
L 1259 4147 
z
M 628 4666 
L 1925 4666 
Q 3281 4666 3915 4102 
Q 4550 3538 4550 2338 
Q 4550 1131 3912 565 
Q 3275 0 1925 0 
L 628 0 
L 628 4666 
z
" transform="scale(0.015625)"/>
        <path id="DejaVuSans-36" d="M 2113 2584 
Q 1688 2584 1439 2293 
Q 1191 2003 1191 1497 
Q 1191 994 1439 701 
Q 1688 409 2113 409 
Q 2538 409 2786 701 
Q 3034 994 3034 1497 
Q 3034 2003 2786 2293 
Q 2538 2584 2113 2584 
z
M 3366 4563 
L 3366 3988 
Q 3128 4100 2886 4159 
Q 2644 4219 2406 4219 
Q 1781 4219 1451 3797 
Q 1122 3375 1075 2522 
Q 1259 2794 1537 2939 
Q 1816 3084 2150 3084 
Q 2853 3084 3261 2657 
Q 3669 2231 3669 1497 
Q 3669 778 3244 343 
Q 2819 -91 2113 -91 
Q 1303 -91 875 529 
Q 447 1150 447 2328 
Q 447 3434 972 4092 
Q 1497 4750 2381 4750 
Q 2619 4750 2861 4703 
Q 3103 4656 3366 4563 
z
" transform="scale(0.015625)"/>
        <path id="DejaVuSans-33" d="M 2597 2516 
Q 3050 2419 3304 2112 
Q 3559 1806 3559 1356 
Q 3559 666 3084 287 
Q 2609 -91 1734 -91 
Q 1441 -91 1130 -33 
Q 819 25 488 141 
L 488 750 
Q 750 597 1062 519 
Q 1375 441 1716 441 
Q 2309 441 2620 675 
Q 2931 909 2931 1356 
Q 2931 1769 2642 2001 
Q 2353 2234 1838 2234 
L 1294 2234 
L 1294 2753 
L 1863 2753 
Q 2328 2753 2575 2939 
Q 2822 3125 2822 3475 
Q 2822 3834 2567 4026 
Q 2313 4219 1838 4219 
Q 1578 4219 1281 4162 
Q 984 4106 628 3988 
L 628 4550 
Q 988 4650 1302 4700 
Q 1616 4750 1894 4750 
Q 2613 4750 3031 4423 
Q 3450 4097 3450 3541 
Q 3450 3153 3228 2886 
Q 3006 2619 2597 2516 
z
" transform="scale(0.015625)"/>
        <path id="DejaVuSans-2f" d="M 1625 4666 
L 2156 4666 
L 531 -594 
L 0 -594 
L 1625 4666 
z
" transform="scale(0.015625)"/>
        <path id="DejaVuSans-2013" d="M 313 1978 
L 2888 1978 
L 2888 1528 
L 313 1528 
L 313 1978 
z
" transform="scale(0.015625)"/>
       </defs>
       <use xlink:href="#DejaVuSans-41"/>
       <use xlink:href="#DejaVuSans-53" x="68.408203"/>
       <use xlink:href="#DejaVuSans-54" x="131.884766"/>
       <use xlink:href="#DejaVuSans-4d" x="192.96875"/>
       <use xlink:href="#DejaVuSans-20" x="279.248047"/>
       <use xlink:href="#DejaVuSans-44" x="311.035156"/>
       <use xlink:href="#DejaVuSans-36" x="388.037109"/>
       <use xlink:href="#DejaVuSans-39" x="451.660156"/>
       <use xlink:href="#DejaVuSans-31" x="515.283203"/>
       <use xlink:href="#DejaVuSans-33" x="578.90625"/>
       <use xlink:href="#DejaVuSans-2f" x="642.529297"/>
       <use xlink:href="#DejaVuSans-44" x="676.220703"/>
       <use xlink:href="#DejaVuSans-36" x="753.222656"/>
       <use xlink:href="#DejaVuSans-39" x="816.845703"/>
       <use xlink:href="#DejaVuSans-31" x="880.46875"/>
       <use xlink:href="#DejaVuSans-33" x="944.091797"/>
       <use xlink:href="#DejaVuSans-4d" x="1007.714844"/>
       <use xlink:href="#DejaVuSans-20" x="1093.994141"/>
       <use xlink:href="#DejaVuSans-2013" x="1125.78125"/>
       <use xlink:href="#DejaVuSans-20" x="1175.78125"/>
       <use xlink:href="#DejaVuSans-31" x="1207.568359"/>
       <use xlink:href="#DejaVuSans-37" x="1271.191406"/>
      </g>
     </g>
    </g>
   </g>
   <g id="matplotlib.axis_2">
    <g id="ytick_1">
     <g id="line2d_5">
      <path d="M 39.26 22.0625 
L 236.761242 22.0625 
" clip-path="url(#pcccc31c27d)" style="fill: none; stroke: #b0b0b0; stroke-opacity: 0.3; stroke-width: 0.8; stroke-linecap: square"/>
     </g>
     <g id="line2d_6">
      <defs>
       <path id="md9854399f8" d="M 0 0 
L -3.5 0 
" style="stroke: #000000; stroke-width: 0.8"/>
      </defs>
      <g>
       <use xlink:href="#md9854399f8" x="39.26" y="22.0625" style="stroke: #000000; stroke-width: 0.8"/>
      </g>
     </g>
     <g id="text_3">
      <!-- 0 -->
      <g transform="translate(27.17 25.101875) scale(0.08 -0.08)">
       <defs>
        <path id="DejaVuSans-30" d="M 2034 4250 
Q 1547 4250 1301 3770 
Q 1056 3291 1056 2328 
Q 1056 1369 1301 889 
Q 1547 409 2034 409 
Q 2525 409 2770 889 
Q 3016 1369 3016 2328 
Q 3016 3291 2770 3770 
Q 2525 4250 2034 4250 
z
M 2034 4750 
Q 2819 4750 3233 4129 
Q 3647 3509 3647 2328 
Q 3647 1150 3233 529 
Q 2819 -91 2034 -91 
Q 1250 -91 836 529 
Q 422 1150 422 2328 
Q 422 3509 836 4129 
Q 1250 4750 2034 4750 
z
" transform="scale(0.015625)"/>
       </defs>
       <use xlink:href="#DejaVuSans-30"/>
      </g>
     </g>
    </g>
    <g id="ytick_2">
     <g id="line2d_7">
      <path d="M 39.26 44.5875 
L 236.761242 44.5875 
" clip-path="url(#pcccc31c27d)" style="fill: none; stroke: #b0b0b0; stroke-opacity: 0.3; stroke-width: 0.8; stroke-linecap: square"/>
     </g>
     <g id="line2d_8">
      <g>
       <use xlink:href="#md9854399f8" x="39.26" y="44.5875" style="stroke: #000000; stroke-width: 0.8"/>
      </g>
     </g>
     <g id="text_4">
      <!-- 2 -->
      <g transform="translate(27.17 47.626875) scale(0.08 -0.08)">
       <use xlink:href="#DejaVuSans-32"/>
      </g>
     </g>
    </g>
    <g id="ytick_3">
     <g id="line2d_9">
      <path d="M 39.26 67.1125 
L 236.761242 67.1125 
" clip-path="url(#pcccc31c27d)" style="fill: none; stroke: #b0b0b0; stroke-opacity: 0.3; stroke-width: 0.8; stroke-linecap: square"/>
     </g>
     <g id="line2d_10">
      <g>
       <use xlink:href="#md9854399f8" x="39.26" y="67.1125" style="stroke: #000000; stroke-width: 0.8"/>
      </g>
     </g>
     <g id="text_5">
      <!-- 4 -->
      <g transform="translate(27.17 70.151875) scale(0.08 -0.08)">
       <use xlink:href="#DejaVuSans-34"/>
      </g>
     </g>
    </g>
    <g id="ytick_4">
     <g id="line2d_11">
      <path d="M 39.26 89.6375 
L 236.761242 89.6375 
" clip-path="url(#pcccc31c27d)" style="fill: none; stroke: #b0b0b0; stroke-opacity: 0.3; stroke-width: 0.8; stroke-linecap: square"/>
     </g>
     <g id="line2d_12">
      <g>
       <use xlink:href="#md9854399f8" x="39.26" y="89.6375" style="stroke: #000000; stroke-width: 0.8"/>
      </g>
     </g>
     <g id="text_6">
      <!-- 6 -->
      <g transform="translate(27.17 92.676875) scale(0.08 -0.08)">
       <use xlink:href="#DejaVuSans-36"/>
      </g>
     </g>
    </g>
    <g id="ytick_5">
     <g id="line2d_13">
      <path d="M 39.26 112.1625 
L 236.761242 112.1625 
" clip-path="url(#pcccc31c27d)" style="fill: none; stroke: #b0b0b0; stroke-opacity: 0.3; stroke-width: 0.8; stroke-linecap: square"/>
     </g>
     <g id="line2d_14">
      <g>
       <use xlink:href="#md9854399f8" x="39.26" y="112.1625" style="stroke: #000000; stroke-width: 0.8"/>
      </g>
     </g>
     <g id="text_7">
      <!-- 8 -->
      <g transform="translate(27.17 115.201875) scale(0.08 -0.08)">
       <use xlink:href="#DejaVuSans-38"/>
      </g>
     </g>
    </g>
    <g id="ytick_6">
     <g id="line2d_15">
      <path d="M 39.26 134.6875 
L 236.761242 134.6875 
" clip-path="url(#pcccc31c27d)" style="fill: none; stroke: #b0b0b0; stroke-opacity: 0.3; stroke-width: 0.8; stroke-linecap: square"/>
     </g>
     <g id="line2d_16">
      <g>
       <use xlink:href="#md9854399f8" x="39.26" y="134.6875" style="stroke: #000000; stroke-width: 0.8"/>
      </g>
     </g>
     <g id="text_8">
      <!-- 10 -->
      <g transform="translate(22.08 137.726875) scale(0.08 -0.08)">
       <use xlink:href="#DejaVuSans-31"/>
       <use xlink:href="#DejaVuSans-30" x="63.623047"/>
      </g>
     </g>
    </g>
    <g id="ytick_7">
     <g id="line2d_17">
      <path d="M 39.26 157.2125 
L 236.761242 157.2125 
" clip-path="url(#pcccc31c27d)" style="fill: none; stroke: #b0b0b0; stroke-opacity: 0.3; stroke-width: 0.8; stroke-linecap: square"/>
     </g>
     <g id="line2d_18">
      <g>
       <use xlink:href="#md9854399f8" x="39.26" y="157.2125" style="stroke: #000000; stroke-width: 0.8"/>
      </g>
     </g>
     <g id="text_9">
      <!-- 12 -->
      <g transform="translate(22.08 160.251875) scale(0.08 -0.08)">
       <use xlink:href="#DejaVuSans-31"/>
       <use xlink:href="#DejaVuSans-32" x="63.623047"/>
      </g>
     </g>
    </g>
    <g id="ytick_8">
     <g id="line2d_19">
      <path d="M 39.26 179.7375 
L 236.761242 179.7375 
" clip-path="url(#pcccc31c27d)" style="fill: none; stroke: #b0b0b0; stroke-opacity: 0.3; stroke-width: 0.8; stroke-linecap: square"/>
     </g>
     <g id="line2d_20">
      <g>
       <use xlink:href="#md9854399f8" x="39.26" y="179.7375" style="stroke: #000000; stroke-width: 0.8"/>
      </g>
     </g>
     <g id="text_10">
      <!-- 14 -->
      <g transform="translate(22.08 182.776875) scale(0.08 -0.08)">
       <use xlink:href="#DejaVuSans-31"/>
       <use xlink:href="#DejaVuSans-34" x="63.623047"/>
      </g>
     </g>
    </g>
    <g id="text_11">
     <!-- Kolmogorov-Smirnov statisic [mass %] -->
     <g transform="translate(16.41625 177.81875) rotate(-90) scale(0.08 -0.08)">
      <defs>
       <path id="DejaVuSans-4b" d="M 628 4666 
L 1259 4666 
L 1259 2694 
L 3353 4666 
L 4166 4666 
L 1850 2491 
L 4331 0 
L 3500 0 
L 1259 2247 
L 1259 0 
L 628 0 
L 628 4666 
z
" transform="scale(0.015625)"/>
       <path id="DejaVuSans-6f" d="M 1959 3097 
Q 1497 3097 1228 2736 
Q 959 2375 959 1747 
Q 959 1119 1226 758 
Q 1494 397 1959 397 
Q 2419 397 2687 759 
Q 2956 1122 2956 1747 
Q 2956 2369 2687 2733 
Q 2419 3097 1959 3097 
z
M 1959 3584 
Q 2709 3584 3137 3096 
Q 3566 2609 3566 1747 
Q 3566 888 3137 398 
Q 2709 -91 1959 -91 
Q 1206 -91 779 398 
Q 353 888 353 1747 
Q 353 2609 779 3096 
Q 1206 3584 1959 3584 
z
" transform="scale(0.015625)"/>
       <path id="DejaVuSans-6c" d="M 603 4863 
L 1178 4863 
L 1178 0 
L 603 0 
L 603 4863 
z
" transform="scale(0.015625)"/>
       <path id="DejaVuSans-6d" d="M 3328 2828 
Q 3544 3216 3844 3400 
Q 4144 3584 4550 3584 
Q 5097 3584 5394 3201 
Q 5691 2819 5691 2113 
L 5691 0 
L 5113 0 
L 5113 2094 
Q 5113 2597 4934 2840 
Q 4756 3084 4391 3084 
Q 3944 3084 3684 2787 
Q 3425 2491 3425 1978 
L 3425 0 
L 2847 0 
L 2847 2094 
Q 2847 2600 2669 2842 
Q 2491 3084 2119 3084 
Q 1678 3084 1418 2786 
Q 1159 2488 1159 1978 
L 1159 0 
L 581 0 
L 581 3500 
L 1159 3500 
L 1159 2956 
Q 1356 3278 1631 3431 
Q 1906 3584 2284 3584 
Q 2666 3584 2933 3390 
Q 3200 3197 3328 2828 
z
" transform="scale(0.015625)"/>
       <path id="DejaVuSans-67" d="M 2906 1791 
Q 2906 2416 2648 2759 
Q 2391 3103 1925 3103 
Q 1463 3103 1205 2759 
Q 947 2416 947 1791 
Q 947 1169 1205 825 
Q 1463 481 1925 481 
Q 2391 481 2648 825 
Q 2906 1169 2906 1791 
z
M 3481 434 
Q 3481 -459 3084 -895 
Q 2688 -1331 1869 -1331 
Q 1566 -1331 1297 -1286 
Q 1028 -1241 775 -1147 
L 775 -588 
Q 1028 -725 1275 -790 
Q 1522 -856 1778 -856 
Q 2344 -856 2625 -561 
Q 2906 -266 2906 331 
L 2906 616 
Q 2728 306 2450 153 
Q 2172 0 1784 0 
Q 1141 0 747 490 
Q 353 981 353 1791 
Q 353 2603 747 3093 
Q 1141 3584 1784 3584 
Q 2172 3584 2450 3431 
Q 2728 3278 2906 2969 
L 2906 3500 
L 3481 3500 
L 3481 434 
z
" transform="scale(0.015625)"/>
       <path id="DejaVuSans-72" d="M 2631 2963 
Q 2534 3019 2420 3045 
Q 2306 3072 2169 3072 
Q 1681 3072 1420 2755 
Q 1159 2438 1159 1844 
L 1159 0 
L 581 0 
L 581 3500 
L 1159 3500 
L 1159 2956 
Q 1341 3275 1631 3429 
Q 1922 3584 2338 3584 
Q 2397 3584 2469 3576 
Q 2541 3569 2628 3553 
L 2631 2963 
z
" transform="scale(0.015625)"/>
       <path id="DejaVuSans-76" d="M 191 3500 
L 800 3500 
L 1894 563 
L 2988 3500 
L 3597 3500 
L 2284 0 
L 1503 0 
L 191 3500 
z
" transform="scale(0.015625)"/>
       <path id="DejaVuSans-69" d="M 603 3500 
L 1178 3500 
L 1178 0 
L 603 0 
L 603 3500 
z
M 603 4863 
L 1178 4863 
L 1178 4134 
L 603 4134 
L 603 4863 
z
" transform="scale(0.015625)"/>
       <path id="DejaVuSans-6e" d="M 3513 2113 
L 3513 0 
L 2938 0 
L 2938 2094 
Q 2938 2591 2744 2837 
Q 2550 3084 2163 3084 
Q 1697 3084 1428 2787 
Q 1159 2491 1159 1978 
L 1159 0 
L 581 0 
L 581 3500 
L 1159 3500 
L 1159 2956 
Q 1366 3272 1645 3428 
Q 1925 3584 2291 3584 
Q 2894 3584 3203 3211 
Q 3513 2838 3513 2113 
z
" transform="scale(0.015625)"/>
       <path id="DejaVuSans-73" d="M 2834 3397 
L 2834 2853 
Q 2591 2978 2328 3040 
Q 2066 3103 1784 3103 
Q 1356 3103 1142 2972 
Q 928 2841 928 2578 
Q 928 2378 1081 2264 
Q 1234 2150 1697 2047 
L 1894 2003 
Q 2506 1872 2764 1633 
Q 3022 1394 3022 966 
Q 3022 478 2636 193 
Q 2250 -91 1575 -91 
Q 1294 -91 989 -36 
Q 684 19 347 128 
L 347 722 
Q 666 556 975 473 
Q 1284 391 1588 391 
Q 1994 391 2212 530 
Q 2431 669 2431 922 
Q 2431 1156 2273 1281 
Q 2116 1406 1581 1522 
L 1381 1569 
Q 847 1681 609 1914 
Q 372 2147 372 2553 
Q 372 3047 722 3315 
Q 1072 3584 1716 3584 
Q 2034 3584 2315 3537 
Q 2597 3491 2834 3397 
z
" transform="scale(0.015625)"/>
       <path id="DejaVuSans-74" d="M 1172 4494 
L 1172 3500 
L 2356 3500 
L 2356 3053 
L 1172 3053 
L 1172 1153 
Q 1172 725 1289 603 
Q 1406 481 1766 481 
L 2356 481 
L 2356 0 
L 1766 0 
Q 1100 0 847 248 
Q 594 497 594 1153 
L 594 3053 
L 172 3053 
L 172 3500 
L 594 3500 
L 594 4494 
L 1172 4494 
z
" transform="scale(0.015625)"/>
       <path id="DejaVuSans-61" d="M 2194 1759 
Q 1497 1759 1228 1600 
Q 959 1441 959 1056 
Q 959 750 1161 570 
Q 1363 391 1709 391 
Q 2188 391 2477 730 
Q 2766 1069 2766 1631 
L 2766 1759 
L 2194 1759 
z
M 3341 1997 
L 3341 0 
L 2766 0 
L 2766 531 
Q 2569 213 2275 61 
Q 1981 -91 1556 -91 
Q 1019 -91 701 211 
Q 384 513 384 1019 
Q 384 1609 779 1909 
Q 1175 2209 1959 2209 
L 2766 2209 
L 2766 2266 
Q 2766 2663 2505 2880 
Q 2244 3097 1772 3097 
Q 1472 3097 1187 3025 
Q 903 2953 641 2809 
L 641 3341 
Q 956 3463 1253 3523 
Q 1550 3584 1831 3584 
Q 2591 3584 2966 3190 
Q 3341 2797 3341 1997 
z
" transform="scale(0.015625)"/>
       <path id="DejaVuSans-63" d="M 3122 3366 
L 3122 2828 
Q 2878 2963 2633 3030 
Q 2388 3097 2138 3097 
Q 1578 3097 1268 2742 
Q 959 2388 959 1747 
Q 959 1106 1268 751 
Q 1578 397 2138 397 
Q 2388 397 2633 464 
Q 2878 531 3122 666 
L 3122 134 
Q 2881 22 2623 -34 
Q 2366 -91 2075 -91 
Q 1284 -91 818 406 
Q 353 903 353 1747 
Q 353 2603 823 3093 
Q 1294 3584 2113 3584 
Q 2378 3584 2631 3529 
Q 2884 3475 3122 3366 
z
" transform="scale(0.015625)"/>
       <path id="DejaVuSans-5b" d="M 550 4863 
L 1875 4863 
L 1875 4416 
L 1125 4416 
L 1125 -397 
L 1875 -397 
L 1875 -844 
L 550 -844 
L 550 4863 
z
" transform="scale(0.015625)"/>
       <path id="DejaVuSans-25" d="M 4653 2053 
Q 4381 2053 4226 1822 
Q 4072 1591 4072 1178 
Q 4072 772 4226 539 
Q 4381 306 4653 306 
Q 4919 306 5073 539 
Q 5228 772 5228 1178 
Q 5228 1588 5073 1820 
Q 4919 2053 4653 2053 
z
M 4653 2450 
Q 5147 2450 5437 2106 
Q 5728 1763 5728 1178 
Q 5728 594 5436 251 
Q 5144 -91 4653 -91 
Q 4153 -91 3862 251 
Q 3572 594 3572 1178 
Q 3572 1766 3864 2108 
Q 4156 2450 4653 2450 
z
M 1428 4353 
Q 1159 4353 1004 4120 
Q 850 3888 850 3481 
Q 850 3069 1003 2837 
Q 1156 2606 1428 2606 
Q 1700 2606 1854 2837 
Q 2009 3069 2009 3481 
Q 2009 3884 1853 4118 
Q 1697 4353 1428 4353 
z
M 4250 4750 
L 4750 4750 
L 1831 -91 
L 1331 -91 
L 4250 4750 
z
M 1428 4750 
Q 1922 4750 2215 4408 
Q 2509 4066 2509 3481 
Q 2509 2891 2217 2550 
Q 1925 2209 1428 2209 
Q 931 2209 642 2551 
Q 353 2894 353 3481 
Q 353 4063 643 4406 
Q 934 4750 1428 4750 
z
" transform="scale(0.015625)"/>
       <path id="DejaVuSans-5d" d="M 1947 4863 
L 1947 -844 
L 622 -844 
L 622 -397 
L 1369 -397 
L 1369 4416 
L 622 4416 
L 622 4863 
L 1947 4863 
z
" transform="scale(0.015625)"/>
      </defs>
      <use xlink:href="#DejaVuSans-4b"/>
      <use xlink:href="#DejaVuSans-6f" x="60.576172"/>
      <use xlink:href="#DejaVuSans-6c" x="121.757812"/>
      <use xlink:href="#DejaVuSans-6d" x="149.541016"/>
      <use xlink:href="#DejaVuSans-6f" x="246.953125"/>
      <use xlink:href="#DejaVuSans-67" x="308.134766"/>
      <use xlink:href="#DejaVuSans-6f" x="371.611328"/>
      <use xlink:href="#DejaVuSans-72" x="432.792969"/>
      <use xlink:href="#DejaVuSans-6f" x="471.65625"/>
      <use xlink:href="#DejaVuSans-76" x="532.837891"/>
      <use xlink:href="#DejaVuSans-2d" x="589.392578"/>
      <use xlink:href="#DejaVuSans-53" x="625.476562"/>
      <use xlink:href="#DejaVuSans-6d" x="688.953125"/>
      <use xlink:href="#DejaVuSans-69" x="786.365234"/>
      <use xlink:href="#DejaVuSans-72" x="814.148438"/>
      <use xlink:href="#DejaVuSans-6e" x="853.511719"/>
      <use xlink:href="#DejaVuSans-6f" x="916.890625"/>
      <use xlink:href="#DejaVuSans-76" x="978.072266"/>
      <use xlink:href="#DejaVuSans-20" x="1037.251953"/>
      <use xlink:href="#DejaVuSans-73" x="1069.039062"/>
      <use xlink:href="#DejaVuSans-74" x="1121.138672"/>
      <use xlink:href="#DejaVuSans-61" x="1160.347656"/>
      <use xlink:href="#DejaVuSans-74" x="1221.626953"/>
      <use xlink:href="#DejaVuSans-69" x="1260.835938"/>
      <use xlink:href="#DejaVuSans-73" x="1288.619141"/>
      <use xlink:href="#DejaVuSans-69" x="1340.71875"/>
      <use xlink:href="#DejaVuSans-63" x="1368.501953"/>
      <use xlink:href="#DejaVuSans-20" x="1423.482422"/>
      <use xlink:href="#DejaVuSans-5b" x="1455.269531"/>
      <use xlink:href="#DejaVuSans-6d" x="1494.283203"/>
      <use xlink:href="#DejaVuSans-61" x="1591.695312"/>
      <use xlink:href="#DejaVuSans-73" x="1652.974609"/>
      <use xlink:href="#DejaVuSans-73" x="1705.074219"/>
      <use xlink:href="#DejaVuSans-20" x="1757.173828"/>
      <use xlink:href="#DejaVuSans-25" x="1788.960938"/>
      <use xlink:href="#DejaVuSans-5d" x="1883.980469"/>
     </g>
    </g>
   </g>
   <g id="line2d_21">
    <path d="M 85.202802 32.959866 
L 85.202802 111.766012 
" clip-path="url(#pcccc31c27d)" style="fill: none; stroke: #000000; stroke-width: 1.5; stroke-linecap: square"/>
   </g>
   <g id="line2d_22">
    <path d="M 190.81844 32.788846 
L 190.81844 85.866357 
" clip-path="url(#pcccc31c27d)" style="fill: none; stroke: #000000; stroke-width: 1.5; stroke-linecap: square"/>
   </g>
   <g id="patch_3">
    <path d="M 39.26 191 
L 39.26 10.8 
" style="fill: none; stroke: #000000; stroke-width: 0.8; stroke-linejoin: miter; stroke-linecap: square"/>
   </g>
   <g id="patch_4">
    <path d="M 236.761242 191 
L 236.761242 10.8 
" style="fill: none; stroke: #000000; stroke-width: 0.8; stroke-linejoin: miter; stroke-linecap: square"/>
   </g>
   <g id="patch_5">
    <path d="M 39.26 191 
L 236.761242 191 
" style="fill: none; stroke: #000000; stroke-width: 0.8; stroke-linejoin: miter; stroke-linecap: square"/>
   </g>
   <g id="patch_6">
    <path d="M 39.26 10.8 
L 236.761242 10.8 
" style="fill: none; stroke: #000000; stroke-width: 0.8; stroke-linejoin: miter; stroke-linecap: square"/>
   </g>
   <g id="text_12">
    <!-- $KS_{med}$ -->
    <g transform="translate(92.595897 52.523) scale(0.08 -0.08)">
     <defs>
      <path id="DejaVuSans-Oblique-4b" d="M 1081 4666 
L 1716 4666 
L 1331 2700 
L 3781 4666 
L 4622 4666 
L 1850 2438 
L 3878 0 
L 3109 0 
L 1247 2272 
L 806 0 
L 172 0 
L 1081 4666 
z
" transform="scale(0.015625)"/>
      <path id="DejaVuSans-Oblique-53" d="M 3859 4513 
L 3738 3897 
Q 3422 4066 3111 4152 
Q 2800 4238 2509 4238 
Q 1944 4238 1609 3991 
Q 1275 3744 1275 3334 
Q 1275 3109 1398 2989 
Q 1522 2869 2034 2731 
L 2413 2638 
Q 3053 2472 3303 2217 
Q 3553 1963 3553 1503 
Q 3553 797 2998 353 
Q 2444 -91 1538 -91 
Q 1166 -91 791 -17 
Q 416 56 38 206 
L 166 856 
Q 513 641 861 531 
Q 1209 422 1556 422 
Q 2147 422 2503 684 
Q 2859 947 2859 1369 
Q 2859 1650 2717 1795 
Q 2575 1941 2106 2059 
L 1728 2156 
Q 1081 2325 845 2545 
Q 609 2766 609 3163 
Q 609 3859 1145 4304 
Q 1681 4750 2541 4750 
Q 2875 4750 3203 4690 
Q 3531 4631 3859 4513 
z
" transform="scale(0.015625)"/>
      <path id="DejaVuSans-Oblique-6d" d="M 5747 2113 
L 5338 0 
L 4763 0 
L 5166 2094 
Q 5191 2228 5203 2325 
Q 5216 2422 5216 2491 
Q 5216 2772 5059 2928 
Q 4903 3084 4622 3084 
Q 4203 3084 3875 2770 
Q 3547 2456 3450 1953 
L 3066 0 
L 2491 0 
L 2900 2094 
Q 2925 2209 2937 2307 
Q 2950 2406 2950 2484 
Q 2950 2769 2794 2926 
Q 2638 3084 2363 3084 
Q 1938 3084 1609 2770 
Q 1281 2456 1184 1953 
L 800 0 
L 225 0 
L 909 3500 
L 1484 3500 
L 1375 2956 
Q 1609 3263 1923 3423 
Q 2238 3584 2597 3584 
Q 2978 3584 3223 3384 
Q 3469 3184 3519 2828 
Q 3781 3197 4126 3390 
Q 4472 3584 4856 3584 
Q 5306 3584 5551 3325 
Q 5797 3066 5797 2591 
Q 5797 2488 5784 2364 
Q 5772 2241 5747 2113 
z
" transform="scale(0.015625)"/>
      <path id="DejaVuSans-Oblique-65" d="M 3078 2063 
Q 3088 2113 3092 2166 
Q 3097 2219 3097 2272 
Q 3097 2653 2873 2875 
Q 2650 3097 2266 3097 
Q 1838 3097 1509 2826 
Q 1181 2556 1013 2059 
L 3078 2063 
z
M 3578 1613 
L 903 1613 
Q 884 1494 878 1425 
Q 872 1356 872 1306 
Q 872 872 1139 634 
Q 1406 397 1894 397 
Q 2269 397 2603 481 
Q 2938 566 3225 728 
L 3116 159 
Q 2806 34 2476 -28 
Q 2147 -91 1806 -91 
Q 1078 -91 686 257 
Q 294 606 294 1247 
Q 294 1794 489 2264 
Q 684 2734 1063 3103 
Q 1306 3334 1642 3459 
Q 1978 3584 2356 3584 
Q 2950 3584 3301 3228 
Q 3653 2872 3653 2272 
Q 3653 2128 3634 1964 
Q 3616 1800 3578 1613 
z
" transform="scale(0.015625)"/>
      <path id="DejaVuSans-Oblique-64" d="M 2675 525 
Q 2444 222 2128 65 
Q 1813 -91 1428 -91 
Q 903 -91 598 267 
Q 294 625 294 1247 
Q 294 1766 478 2236 
Q 663 2706 1013 3078 
Q 1244 3325 1534 3454 
Q 1825 3584 2144 3584 
Q 2481 3584 2739 3421 
Q 2997 3259 3138 2956 
L 3513 4863 
L 4091 4863 
L 3144 0 
L 2566 0 
L 2675 525 
z
M 891 1350 
Q 891 897 1095 644 
Q 1300 391 1663 391 
Q 1931 391 2161 520 
Q 2391 650 2566 903 
Q 2750 1166 2856 1509 
Q 2963 1853 2963 2188 
Q 2963 2622 2758 2865 
Q 2553 3109 2194 3109 
Q 1922 3109 1687 2981 
Q 1453 2853 1288 2613 
Q 1106 2353 998 2009 
Q 891 1666 891 1350 
z
" transform="scale(0.015625)"/>
     </defs>
     <use xlink:href="#DejaVuSans-Oblique-4b" transform="translate(0 0.78125)"/>
     <use xlink:href="#DejaVuSans-Oblique-53" transform="translate(65.576172 0.78125)"/>
     <use xlink:href="#DejaVuSans-Oblique-6d" transform="translate(129.052734 -15.625) scale(0.7)"/>
     <use xlink:href="#DejaVuSans-Oblique-65" transform="translate(197.241211 -15.625) scale(0.7)"/>
     <use xlink:href="#DejaVuSans-Oblique-64" transform="translate(240.307617 -15.625) scale(0.7)"/>
    </g>
    <!-- 3.5% -->
    <g transform="translate(92.595897 61.48125) scale(0.08 -0.08)">
     <defs>
      <path id="DejaVuSans-2e" d="M 684 794 
L 1344 794 
L 1344 0 
L 684 0 
L 684 794 
z
" transform="scale(0.015625)"/>
      <path id="DejaVuSans-35" d="M 691 4666 
L 3169 4666 
L 3169 4134 
L 1269 4134 
L 1269 2991 
Q 1406 3038 1543 3061 
Q 1681 3084 1819 3084 
Q 2600 3084 3056 2656 
Q 3513 2228 3513 1497 
Q 3513 744 3044 326 
Q 2575 -91 1722 -91 
Q 1428 -91 1123 -41 
Q 819 9 494 109 
L 494 744 
Q 775 591 1075 516 
Q 1375 441 1709 441 
Q 2250 441 2565 725 
Q 2881 1009 2881 1497 
Q 2881 1984 2565 2268 
Q 2250 2553 1709 2553 
Q 1456 2553 1204 2497 
Q 953 2441 691 2322 
L 691 4666 
z
" transform="scale(0.015625)"/>
     </defs>
     <use xlink:href="#DejaVuSans-33"/>
     <use xlink:href="#DejaVuSans-2e" x="63.623047"/>
     <use xlink:href="#DejaVuSans-35" x="95.410156"/>
     <use xlink:href="#DejaVuSans-25" x="159.033203"/>
    </g>
   </g>
   <g id="text_13">
    <!-- $KS_{p95}$ -->
    <g transform="translate(92.595897 118.1625) scale(0.08 -0.08)">
     <defs>
      <path id="DejaVuSans-Oblique-70" d="M 3175 2156 
Q 3175 2616 2975 2859 
Q 2775 3103 2400 3103 
Q 2144 3103 1911 2972 
Q 1678 2841 1497 2591 
Q 1319 2344 1212 1994 
Q 1106 1644 1106 1300 
Q 1106 863 1306 627 
Q 1506 391 1875 391 
Q 2147 391 2380 519 
Q 2613 647 2778 891 
Q 2956 1147 3065 1494 
Q 3175 1841 3175 2156 
z
M 1394 2969 
Q 1625 3272 1939 3428 
Q 2253 3584 2638 3584 
Q 3175 3584 3472 3232 
Q 3769 2881 3769 2247 
Q 3769 1728 3584 1258 
Q 3400 788 3053 416 
Q 2822 169 2531 39 
Q 2241 -91 1919 -91 
Q 1547 -91 1294 64 
Q 1041 219 916 525 
L 556 -1331 
L -19 -1331 
L 922 3500 
L 1497 3500 
L 1394 2969 
z
" transform="scale(0.015625)"/>
     </defs>
     <use xlink:href="#DejaVuSans-Oblique-4b" transform="translate(0 0.78125)"/>
     <use xlink:href="#DejaVuSans-Oblique-53" transform="translate(65.576172 0.78125)"/>
     <use xlink:href="#DejaVuSans-Oblique-70" transform="translate(129.052734 -15.625) scale(0.7)"/>
     <use xlink:href="#DejaVuSans-39" transform="translate(173.486328 -15.625) scale(0.7)"/>
     <use xlink:href="#DejaVuSans-35" transform="translate(218.022461 -15.625) scale(0.7)"/>
    </g>
    <!-- 8.0% -->
    <g transform="translate(92.595897 127.937) scale(0.08 -0.08)">
     <use xlink:href="#DejaVuSans-38"/>
     <use xlink:href="#DejaVuSans-2e" x="63.623047"/>
     <use xlink:href="#DejaVuSans-30" x="95.410156"/>
     <use xlink:href="#DejaVuSans-25" x="159.033203"/>
    </g>
   </g>
   <g id="text_14">
    <!-- $KS_{med}$ -->
    <g transform="translate(198.211534 42.38675) scale(0.08 -0.08)">
     <use xlink:href="#DejaVuSans-Oblique-4b" transform="translate(0 0.78125)"/>
     <use xlink:href="#DejaVuSans-Oblique-53" transform="translate(65.576172 0.78125)"/>
     <use xlink:href="#DejaVuSans-Oblique-6d" transform="translate(129.052734 -15.625) scale(0.7)"/>
     <use xlink:href="#DejaVuSans-Oblique-65" transform="translate(197.241211 -15.625) scale(0.7)"/>
     <use xlink:href="#DejaVuSans-Oblique-64" transform="translate(240.307617 -15.625) scale(0.7)"/>
    </g>
    <!-- 2.6% -->
    <g transform="translate(198.211534 51.345) scale(0.08 -0.08)">
     <use xlink:href="#DejaVuSans-32"/>
     <use xlink:href="#DejaVuSans-2e" x="63.623047"/>
     <use xlink:href="#DejaVuSans-36" x="95.410156"/>
     <use xlink:href="#DejaVuSans-25" x="159.033203"/>
    </g>
   </g>
   <g id="text_15">
    <!-- $KS_{p95}$ -->
    <g transform="translate(198.211534 92.25875) scale(0.08 -0.08)">
     <use xlink:href="#DejaVuSans-Oblique-4b" transform="translate(0 0.78125)"/>
     <use xlink:href="#DejaVuSans-Oblique-53" transform="translate(65.576172 0.78125)"/>
     <use xlink:href="#DejaVuSans-Oblique-70" transform="translate(129.052734 -15.625) scale(0.7)"/>
     <use xlink:href="#DejaVuSans-39" transform="translate(173.486328 -15.625) scale(0.7)"/>
     <use xlink:href="#DejaVuSans-35" transform="translate(218.022461 -15.625) scale(0.7)"/>
    </g>
    <!-- 5.7% -->
    <g transform="translate(198.211534 102.03325) scale(0.08 -0.08)">
     <use xlink:href="#DejaVuSans-35"/>
     <use xlink:href="#DejaVuSans-2e" x="63.623047"/>
     <use xlink:href="#DejaVuSans-37" x="95.410156"/>
     <use xlink:href="#DejaVuSans-25" x="159.033203"/>
    </g>
   </g>
   <g id="PathCollection_1">
    <defs>
     <path id="m7b22cd14c7" d="M 0 5 
C 1.326016 5 2.597899 4.473168 3.535534 3.535534 
C 4.473168 2.597899 5 1.326016 5 0 
C 5 -1.326016 4.473168 -2.597899 3.535534 -3.535534 
C 2.597899 -4.473168 1.326016 -5 0 -5 
C -1.326016 -5 -2.597899 -4.473168 -3.535534 -3.535534 
C -4.473168 -2.597899 -5 -1.326016 -5 0 
C -5 1.326016 -4.473168 2.597899 -3.535534 3.535534 
C -2.597899 4.473168 -1.326016 5 0 5 
z
" style="stroke: #000000"/>
    </defs>
    <g clip-path="url(#pcccc31c27d)">
     <use xlink:href="#m7b22cd14c7" x="85.202802" y="61.48125" style="fill: #ffffff; stroke: #000000"/>
     <use xlink:href="#m7b22cd14c7" x="190.81844" y="51.345" style="fill: #ffffff; stroke: #000000"/>
    </g>
   </g>
   <g id="PathCollection_2">
    <defs>
     <path id="ma650a11c52" d="M 0 3.535534 
C 0.937635 3.535534 1.836992 3.163008 2.5 2.5 
C 3.163008 1.836992 3.535534 0.937635 3.535534 0 
C 3.535534 -0.937635 3.163008 -1.836992 2.5 -2.5 
C 1.836992 -3.163008 0.937635 -3.535534 0 -3.535534 
C -0.937635 -3.535534 -1.836992 -3.163008 -2.5 -2.5 
C -3.163008 -1.836992 -3.535534 -0.937635 -3.535534 0 
C -3.535534 0.937635 -3.163008 1.836992 -2.5 2.5 
C -1.836992 3.163008 -0.937635 3.535534 0 3.535534 
z
" style="stroke: #000000"/>
    </defs>
    <g clip-path="url(#pcccc31c27d)">
     <use xlink:href="#ma650a11c52" x="85.202802" y="112.1625" style="stroke: #000000"/>
     <use xlink:href="#ma650a11c52" x="190.81844" y="86.25875" style="stroke: #000000"/>
    </g>
   </g>
  </g>
 </g>
 <defs>
  <clipPath id="pcccc31c27d">
   <rect x="39.26" y="10.8" width="197.501242" height="180.2"/>
  </clipPath>
 </defs>
</svg>
